<svg width="28" height="28" viewBox="0 0 28 28" fill="none" xmlns="http://www.w3.org/2000/svg">
<path fill-rule="evenodd" clip-rule="evenodd" d="M22.6231 13.5025H24.5578C24.8342 13.5025 25 13.7789 25 14.1106C25 14.4422 24.7236 14.6633 24.4472 14.6633H22.5126C22.402 16.598 21.6281 18.3668 20.4121 19.7487L21.794 21.1307C22.0151 21.3518 22.0151 21.6834 21.794 21.9045C21.6834 22.0151 21.5729 22.0704 21.407 22.0704C21.2965 22.0704 21.1307 22.0151 21.0201 21.9045L19.6382 20.5226C18.2563 21.7387 16.4874 22.5126 14.5528 22.6231V24.5578C14.5528 24.8894 14.2764 25.1106 14 25.1106C13.7236 25.1106 13.4472 24.8894 13.4472 24.5578V22.5678C11.5126 22.4573 9.74372 21.6834 8.36181 20.4673L6.9799 21.8492C6.86935 21.9598 6.75879 22.0151 6.59296 22.0151C6.48241 22.0151 6.31658 21.9598 6.20603 21.8492C5.98492 21.6281 5.98492 21.2965 6.20603 21.0754L7.58794 19.6935C6.37186 18.3116 5.59799 16.5427 5.48744 14.608H3.55276C3.27638 14.608 3 14.3869 3 14.0553C3 13.7236 3.27638 13.5025 3.55276 13.5025H5.54271C5.65327 11.5678 6.42714 9.799 7.64322 8.41709L6.26131 7.03518C6.0402 6.81407 6.0402 6.48241 6.26131 6.26131C6.48241 6.0402 6.81407 6.0402 7.03518 6.26131L8.41709 7.58794C9.799 6.37186 11.5678 5.59799 13.5025 5.48744V3.55276C13.5025 3.22111 13.7789 3 14.0553 3C14.3317 3 14.608 3.22111 14.608 3.55276V5.54271C16.5427 5.65327 18.3116 6.42714 19.6935 7.64322L21.0754 6.26131C21.2965 6.0402 21.6281 6.0402 21.8492 6.26131C22.0704 6.48241 22.0704 6.81407 21.8492 7.03518L20.5226 8.41709C21.7387 9.799 22.5126 11.5678 22.6231 13.5025ZM6.59296 14.0553C6.59296 18.1457 9.96482 21.5176 14.0553 21.5176C18.1457 21.5176 21.5176 18.1457 21.5176 14.0553C21.5176 9.96482 18.1457 6.59296 14.0553 6.59296C9.96482 6.59296 6.59296 9.96482 6.59296 14.0553ZM13.5025 19.8593C13.5025 20.191 13.7236 20.4121 14.0553 20.4121C14.3317 20.4121 14.608 20.191 14.608 19.8593V8.25127C14.608 7.91961 14.3869 7.6985 14.0553 7.6985C13.7236 7.6985 13.5025 7.91961 13.5025 8.25127V19.8593ZM10.7387 19.3065C10.7387 19.6382 10.9598 19.8593 11.2915 19.8593C11.5678 19.8593 11.8442 19.6382 11.8442 19.3065V8.80403C11.8442 8.47237 11.6231 8.25127 11.2915 8.25127C10.9598 8.25127 10.7387 8.47237 10.7387 8.80403V19.3065ZM7.97487 16.8191C7.97487 17.1508 8.19598 17.3719 8.52764 17.3719C8.80402 17.3719 9.0804 17.1508 9.0804 16.8191V11.2915C9.0804 10.9598 8.8593 10.7387 8.52764 10.7387C8.19598 10.7387 7.97487 10.9598 7.97487 11.2915V16.8191Z" fill="white"/>
</svg>
