<svg width="28" height="28" viewBox="0 0 28 28" fill="none" xmlns="http://www.w3.org/2000/svg">
<path d="M10.4282 18.115L20.8747 5.78699H8.76602V6.73352H18.5546L3.32922 21.1624H17.5388L16.5922 18.115H10.4282Z" fill="#FFFFFE"/>
<path d="M5.21086 8.45346C6.45752 8.45346 7.46177 7.43767 7.46177 6.20256C7.46177 4.96745 6.45752 3.95166 5.21086 3.95166C3.96421 3.95166 2.95996 4.96745 2.95996 6.20256C2.95996 7.43767 3.97575 8.45346 5.21086 8.45346ZM5.21086 4.79431C5.99579 4.79431 6.61912 5.42918 6.61912 6.20256C6.61912 6.97595 5.99579 7.62236 5.21086 7.62236C4.42593 7.62236 3.80261 6.98749 3.80261 6.20256C3.80261 5.41763 4.43748 4.79431 5.21086 4.79431Z" fill="#FFFFFE"/>
<path d="M21.6252 11.1199C19.2127 11.1199 17.2504 13.0822 17.2504 15.4947C17.2504 17.7456 21.0827 26.0105 21.2443 26.3568L21.6252 27.1763L22.0061 26.3568C22.1677 26.0105 26 17.7456 26 15.4947C26 13.0822 24.0377 11.1199 21.6252 11.1199ZM21.6252 25.1678C20.367 22.3975 18.093 17.03 18.093 15.4832C18.093 13.5324 19.6744 11.951 21.6252 11.951C23.576 11.951 25.1574 13.5324 25.1574 15.4832C25.1574 17.03 22.8834 22.3975 21.6252 25.1678Z" fill="#FFFFFE"/>
<path d="M21.6251 13.6017C20.5862 13.6017 19.7321 14.4558 19.7321 15.4947C19.7321 16.5336 20.5862 17.3878 21.6251 17.3878C22.664 17.3878 23.5182 16.5336 23.5182 15.4947C23.5182 14.4558 22.6755 13.6017 21.6251 13.6017ZM21.6251 16.5451C21.048 16.5451 20.5747 16.0719 20.5747 15.4947C20.5747 14.9176 21.048 14.4443 21.6251 14.4443C22.2023 14.4443 22.6755 14.9176 22.6755 15.4947C22.6755 16.0719 22.2023 16.5451 21.6251 16.5451Z" fill="#FFFFFE"/>
</svg>
