<svg width="28" height="28" viewBox="0 0 28 28" fill="none" xmlns="http://www.w3.org/2000/svg">
<path d="M2 23.5411H22.452V11.0173H2V23.5411ZM2.90999 11.9387H21.5307V22.6311H2.90999V11.9387Z" fill="#FFFFFE"/>
<path d="M17.3902 15.6014C16.4575 15.6014 15.7067 16.3521 15.7067 17.2849C15.7067 18.2176 16.4575 18.9683 17.3902 18.9683C18.323 18.9683 19.0737 18.2176 19.0737 17.2849C19.0737 16.3521 18.323 15.6014 17.3902 15.6014Z" fill="#FFFFFE"/>
<path d="M24.909 6.42186H19.324V5L16.9125 6.77448L19.324 8.93571V7.34323H24.909C25.4664 7.34323 25.91 7.78685 25.91 8.34422V13.9862H26.82V8.34422C26.82 7.28635 25.9669 6.42186 24.909 6.42186Z" fill="#FFFFFE"/>
</svg>
