<svg width="28" height="28" viewBox="0 0 28 28" fill="none" xmlns="http://www.w3.org/2000/svg">
<path d="M17.6812 13.173C15.3044 13.173 13.3667 15.1011 13.3667 17.4874C13.3667 19.8642 15.2948 21.8019 17.6812 21.8019C20.0579 21.8019 21.9956 19.8737 21.9956 17.4874C21.9861 15.1107 20.0579 13.173 17.6812 13.173ZM19.7811 17.9265H18.1107V19.5969H17.2421V17.9265H15.5717V17.0579H17.2421V15.3875H18.1107V17.0579H19.7811V17.9265Z" fill="white"/>
<path d="M13.1662 22.661C11.4004 19.2438 8.08816 12.3807 8.08816 10.1662C8.08816 7.36947 10.3695 5.08816 13.1662 5.08816C15.963 5.08816 18.2443 7.36947 18.2443 10.1662C18.2443 10.6339 18.0916 11.3021 17.8434 12.1039C18.2157 12.1135 18.5784 12.1612 18.9316 12.2471C19.1797 11.4167 19.3229 10.6912 19.3229 10.1662C19.3229 6.76812 16.5548 4 13.1567 4C9.75858 4 7 6.75858 7 10.1567C7 13.3639 12.4599 23.6441 12.689 24.0832L13.1662 24.99L13.6435 24.0832C13.7008 23.9687 14.1303 23.1669 14.7126 22.0023C14.3976 21.8019 14.1112 21.5633 13.8439 21.296C13.6053 21.7923 13.3762 22.2505 13.1662 22.661Z" fill="white"/>
<path d="M10.7036 10.1567C10.7036 11.5121 11.8109 12.6193 13.1663 12.6193C14.5217 12.6193 15.629 11.5121 15.629 10.1567C15.629 8.80125 14.5217 7.694 13.1663 7.694C11.8109 7.694 10.7036 8.80125 10.7036 10.1567ZM14.5408 10.1567C14.5408 10.9107 13.9204 11.5312 13.1663 11.5312C12.4122 11.5312 11.7918 10.9107 11.7918 10.1567C11.7918 9.4026 12.4122 8.78216 13.1663 8.78216C13.9204 8.78216 14.5408 9.4026 14.5408 10.1567Z" fill="white"/>
</svg>
