<svg width="28" height="28" viewBox="0 0 28 28" fill="none" xmlns="http://www.w3.org/2000/svg">
<path d="M14 2.89001C7.87001 2.89001 2.89001 7.87001 2.89001 14C2.89001 20.13 7.87001 25.11 14 25.11C20.13 25.11 25.11 20.13 25.11 14C25.11 7.87001 20.13 2.89001 14 2.89001ZM14 24.29C8.33001 24.29 3.71001 19.67 3.71001 14C3.71001 8.33001 8.33001 3.71001 14 3.71001C19.67 3.71001 24.29 8.32001 24.29 14C24.29 19.68 19.67 24.29 14 24.29Z" fill="white"/>
<path d="M14.41 9.23001H13.59V13.59H9.23004V14.41H13.59V18.76H14.41V14.41H18.76V13.59H14.41V9.23001Z" fill="white"/>
</svg>
