<svg width="28" height="28" viewBox="0 0 28 28" fill="none" xmlns="http://www.w3.org/2000/svg">
<path d="M19.457 12.0877C21.9676 12.0877 24.0009 10.0544 24.0009 7.54383C24.0009 5.03327 21.9676 3 19.457 3C16.9465 3 14.9132 5.03327 14.9132 7.54383C14.9132 10.0544 16.9465 12.0877 19.457 12.0877ZM17.2424 7.08563H18.9988V5.31965H19.9152V7.07609H21.6717V7.99249H19.9152V9.74893H18.9988V8.00203H17.2424V7.08563Z" fill="white"/>
<path d="M22.0536 12.4504C22.1395 12.9659 22.1967 13.5004 22.1967 14.0446C22.1967 18.1493 19.4953 21.6431 15.7724 22.8268C17.6052 21.1371 18.8557 17.8343 18.8557 14.0446C18.8557 13.7104 18.8366 13.3859 18.8175 13.0518C18.5598 13.0231 18.302 12.9659 18.0538 12.899C18.0825 13.2713 18.1016 13.6532 18.1016 14.035C18.1016 18.9511 15.9537 22.9604 13.2618 23.2277V4.85188C13.6627 4.89007 14.0541 5.02371 14.4264 5.22417C14.5791 4.88052 14.7701 4.56551 14.9896 4.26959C14.3405 4.13594 13.6723 4.06912 12.985 4.06912C7.47701 4.06912 3 8.54613 3 14.0446C3 19.543 7.47701 24.02 12.9754 24.02C18.4739 24.02 22.9509 19.543 22.9509 14.0446C22.9509 13.3477 22.8745 12.6699 22.7409 12.0113C22.5213 12.1736 22.2922 12.3263 22.0536 12.4504ZM3.76367 14.0446C3.76367 9.93983 6.46515 6.45559 10.188 5.26236C8.35523 6.95197 7.10472 10.2548 7.10472 14.0446C7.10472 17.8343 8.35523 21.1371 10.188 22.8268C6.46515 21.6335 3.76367 18.1493 3.76367 14.0446ZM12.4886 23.2086C9.90166 22.7599 7.86839 18.8175 7.86839 14.0446C7.86839 9.27162 9.90166 5.32918 12.4886 4.88052V23.2086Z" fill="white"/>
</svg>
