<svg width="28" height="28" viewBox="0 0 28 28" fill="none" xmlns="http://www.w3.org/2000/svg">
<path d="M22.1191 7.27727L17.0566 5.02731C16.9042 4.9929 16.7463 4.99098 16.5931 5.02169L11.1774 7.22552L6.37025 5.02731C6.20576 4.99044 6.03508 4.99111 5.87089 5.02929C5.7067 5.06746 5.55322 5.14215 5.42188 5.24781C5.15525 5.46043 5 5.7833 5 6.12529V19.625C4.99999 19.8808 5.08713 20.1289 5.24705 20.3285C5.40697 20.5281 5.63014 20.6672 5.87975 20.723L10.9186 22.9729C11.0714 23.007 11.2297 23.0089 11.3832 22.9786L16.799 20.7747L21.6297 22.9729C21.7943 23.0097 21.9649 23.009 22.1292 22.9709C22.2934 22.9328 22.4469 22.8583 22.5785 22.7529C22.71 22.6475 22.8162 22.5139 22.8892 22.3619C22.9621 22.21 23 22.0435 23 21.875V8.37524C23 7.84763 22.6333 7.39089 22.1191 7.27727ZM11.75 8.14237L16.25 6.35028V19.85L11.75 21.6421V8.14237ZM6.125 6.12529L10.625 8.1345V21.6342L6.125 19.625V6.12529ZM21.875 21.875L17.375 19.8748V6.37503L21.875 8.37524V21.875Z" fill="white"/>
</svg>
