<svg width="28" height="28" viewBox="0 0 28 28" fill="none" xmlns="http://www.w3.org/2000/svg">
<path d="M15.5014 3C10.7199 3 6.67757 6.36082 5.41867 10.9593L6.41193 10.7032C7.69393 6.69156 11.2858 3.80019 15.5014 3.80019C20.8027 3.80019 25.1222 8.3773 25.1222 14C25.1222 14.7789 25.0414 15.547 24.8797 16.2726C24.845 16.4219 24.8104 16.5926 24.7642 16.742C24.6833 17.0407 24.6025 17.3395 24.487 17.6382L20.8951 14.3628L17.3609 7.73715L11.8171 8.15325L10.1424 11.0019L2 13.0824L5.68431 18.2997H11.1242C11.8056 17.8089 13.0876 12.8157 13.0876 12.8157C13.5265 15.0776 11.9673 21.1484 11.9673 21.1484C15.2473 23.4636 18.9778 20.967 18.9778 20.967C18.5852 20.6043 16.6679 11.8128 16.6679 11.8128C17.6381 12.9331 20.0751 18.7051 21.4148 22.0126C21.1838 22.2047 20.9528 22.3754 20.7103 22.5461C20.5832 22.6314 20.4562 22.7168 20.3176 22.7915C18.897 23.6877 17.2454 24.1891 15.4783 24.1891C12.0943 24.1891 9.11453 22.3327 7.41674 19.516H6.43503C8.25986 22.8021 11.6323 25 15.5014 25C17.3725 25 19.1395 24.4772 20.6525 23.581C20.7796 23.5063 20.9182 23.4316 21.0452 23.3463C21.2878 23.1862 21.5303 23.0155 21.7613 22.8235C23.2512 21.6499 24.4408 20.0815 25.1684 18.2677C25.2839 17.9796 25.3879 17.7022 25.4802 17.4035C25.538 17.2541 25.5726 17.0941 25.6073 16.934C25.8729 15.9952 26 15.0136 26 13.9893C26.0115 7.93986 21.2993 3 15.5014 3ZM11.7363 10.8846C11.7363 10.8846 11.9326 9.75364 13.307 10.0737C14.6699 10.3831 12.2676 11.194 11.7363 10.8846Z" fill="#FFFFFE"/>
</svg>
