<svg width="28" height="28" viewBox="0 0 28 28" fill="none" xmlns="http://www.w3.org/2000/svg">
<path fill-rule="evenodd" clip-rule="evenodd" d="M21.2676 5C21.5803 5 21.8802 5.12471 22.1015 5.34678L22.6552 5.90344C22.8761 6.126 23.0001 6.42754 23.0001 6.74192C23.0001 7.0563 22.8761 7.35784 22.6552 7.5804L22.1549 8.08346L19.9332 5.84984L20.4336 5.34678C20.6549 5.12471 20.9549 5 21.2676 5ZM22.1501 16.0814C22.2386 15.9925 22.3586 15.9425 22.4837 15.9425C22.5457 15.9425 22.607 15.9548 22.6643 15.9786C22.7215 16.0024 22.7735 16.0374 22.8174 16.0814C22.8612 16.1255 22.8959 16.1778 22.9196 16.2353C22.9433 16.2929 22.9555 16.3546 22.9555 16.4168V20.6284C22.9548 21.2572 22.7061 21.86 22.2638 22.3046C21.8216 22.7492 21.222 22.9993 20.5966 23H7.3589C6.7335 22.9993 6.13392 22.7492 5.69169 22.3046C5.24947 21.86 5.00071 21.2572 5 20.6284V8.26803C5.00071 7.63926 5.24947 7.03645 5.69169 6.59184C6.13392 6.14724 6.7335 5.89714 7.3589 5.89643H11.5479C11.673 5.89643 11.793 5.9464 11.8815 6.03535C11.97 6.1243 12.0197 6.24495 12.0197 6.37075C12.0197 6.49654 11.97 6.61719 11.8815 6.70614C11.793 6.79509 11.673 6.84507 11.5479 6.84507H7.3589C6.98366 6.84549 6.62391 6.99555 6.35857 7.26231C6.09324 7.52908 5.94398 7.89077 5.94356 8.26803V20.6283C5.94398 21.0056 6.09324 21.3673 6.35857 21.634C6.62391 21.9008 6.98366 22.0509 7.3589 22.0513H20.5966C20.9719 22.0509 21.3316 21.9008 21.5969 21.634C21.8623 21.3673 22.0115 21.0056 22.012 20.6283V16.4168C22.012 16.291 22.0617 16.1704 22.1501 16.0814ZM12.3773 13.4465L19.2659 6.52073L21.4875 8.75432L14.5989 15.6801L12.3773 13.4465ZM11.2531 16.8102L13.7082 16.1264L11.9332 14.3418L11.2531 16.8102Z" fill="white"/>
</svg>
