<svg width="28" height="28" viewBox="0 0 28 28" fill="none" xmlns="http://www.w3.org/2000/svg">
<path d="M14.7765 13.1357L22.4057 8.31143L14.7765 4.57143V3H13.7943V18.1014H14.7765V13.1357Z" fill="white"/>
<path d="M20.5357 11.03L19.7264 11.5407C20.9914 12.8686 21.7693 14.66 21.7693 16.64C21.7693 20.7336 18.4536 24.0493 14.36 24.0493C10.2664 24.0493 6.95071 20.7336 6.95071 16.64C6.95071 13.2143 9.28429 10.3307 12.4429 9.49V8.51572C8.75 9.38 6 12.6879 6 16.64C6 21.26 9.74 25 14.36 25C18.98 25 22.72 21.26 22.72 16.64C22.7121 14.4793 21.8871 12.515 20.5357 11.03Z" fill="white"/>
</svg>
