<svg width="28" height="28" viewBox="0 0 28 28" fill="none" xmlns="http://www.w3.org/2000/svg">
<path fill-rule="evenodd" clip-rule="evenodd" d="M13.7874 15.1556L5.34886 10.2331C5.2427 10.1712 5.15463 10.0825 5.09342 9.97594C5.03221 9.86936 5 9.74861 5 9.6257C5 9.5028 5.03221 9.38205 5.09342 9.27547C5.15463 9.16889 5.2427 9.08022 5.34886 9.01829L13.7874 4.0958C13.895 4.03306 14.0173 4 14.1418 4C14.2663 4 14.3886 4.03306 14.4961 4.0958L22.9347 9.01829C23.0408 9.08022 23.1289 9.16889 23.1901 9.27547C23.2513 9.38205 23.2835 9.5028 23.2835 9.6257C23.2835 9.74861 23.2513 9.86936 23.1901 9.97594C23.1289 10.0825 23.0408 10.1712 22.9347 10.2331L14.4961 15.1556C14.3886 15.2183 14.2663 15.2514 14.1418 15.2514C14.0173 15.2514 13.895 15.2183 13.7874 15.1556ZM22.226 13.2376L14.1418 17.9534L6.05758 13.2376C5.89648 13.1436 5.70465 13.1175 5.52428 13.1649C5.34391 13.2124 5.18979 13.3295 5.09581 13.4906C5.00183 13.6517 4.97569 13.8436 5.02315 14.0239C5.07061 14.2043 5.18777 14.3584 5.34887 14.4524L13.7874 19.3749C13.895 19.4376 14.0173 19.4707 14.1418 19.4707C14.2663 19.4707 14.3886 19.4376 14.4961 19.3749L22.9347 14.4524C23.0958 14.3584 23.2129 14.2043 23.2604 14.0239C23.3079 13.8436 23.2817 13.6517 23.1877 13.4906C23.0938 13.3295 22.9396 13.2124 22.7593 13.1649C22.5789 13.1175 22.3871 13.1436 22.226 13.2376ZM22.226 17.4569L14.1418 22.1727L6.05758 17.4569C5.89648 17.3629 5.70465 17.3368 5.52428 17.3842C5.34391 17.4317 5.18979 17.5489 5.09581 17.71C5.00183 17.8711 4.97569 18.0629 5.02315 18.2433C5.07061 18.4236 5.18777 18.5778 5.34887 18.6717L13.7874 23.5942C13.895 23.657 14.0173 23.69 14.1418 23.69C14.2663 23.69 14.3886 23.657 14.4961 23.5942L22.9347 18.6717C23.0145 18.6252 23.0843 18.5634 23.1402 18.4899C23.196 18.4164 23.2369 18.3326 23.2604 18.2433C23.2839 18.154 23.2896 18.0609 23.2771 17.9694C23.2646 17.8779 23.2343 17.7897 23.1877 17.71C23.1412 17.6302 23.0794 17.5604 23.0059 17.5045C22.9324 17.4486 22.8486 17.4077 22.7593 17.3842C22.67 17.3608 22.5769 17.3551 22.4854 17.3675C22.3939 17.38 22.3057 17.4104 22.226 17.4569Z" fill="white"/>
</svg>
