<svg width="28" height="28" viewBox="0 0 28 28" fill="none" xmlns="http://www.w3.org/2000/svg">
<path d="M23.4201 13.7024C23.0893 9.02598 19.314 5.29628 14.6148 5.06816V2H13.7024V5.06816C9.01457 5.29628 5.22784 9.02598 4.89708 13.7024H2V14.6148H4.89708C5.03395 19.4509 8.90051 23.3631 13.7138 23.6026V26.3172H14.6262V23.6026C19.4395 23.3631 23.3061 19.4509 23.4429 14.6148H26.34V13.7024H23.4201ZM22.5191 14.6148C22.3822 18.949 18.9262 22.4506 14.6148 22.6901C14.4665 22.7015 14.3183 22.7015 14.1586 22.7015C13.9989 22.7015 13.8506 22.7015 13.7024 22.6901C9.39097 22.4506 5.935 18.949 5.79814 14.6148C5.78673 14.5236 5.78673 14.4323 5.78673 14.3411C5.78673 14.1244 5.79813 13.9191 5.80954 13.7024C6.1175 9.53924 9.50502 6.20874 13.691 5.98063C13.8392 5.96922 13.9875 5.96922 14.1472 5.96922C14.3069 5.96922 14.4551 5.96922 14.6034 5.98063C18.8008 6.20874 22.1769 9.53924 22.4848 13.7024C22.5076 13.9077 22.5076 14.1244 22.5076 14.3411C22.5191 14.4323 22.5191 14.5236 22.5191 14.6148Z" fill="white"/>
<path d="M16.2915 12.288C16.2915 11.1132 15.3334 10.1552 14.1586 10.1552C12.9838 10.1552 12.0257 11.1132 12.0257 12.288V14.0559H11.3071V18.1734H17.0214V14.0559H16.3029V12.288H16.2915ZM15.4132 14.0559H12.9039V12.288C12.9039 11.5923 13.4742 11.0334 14.1586 11.0334C14.8543 11.0334 15.4132 11.6037 15.4132 12.288V14.0559Z" fill="white"/>
</svg>
