<svg width="28" height="28" viewBox="0 0 28 28" fill="none" xmlns="http://www.w3.org/2000/svg">
<path d="M13.6899 10.5574C13.254 10.5574 12.8223 10.6433 12.4196 10.8101C12.0168 10.9769 11.6509 11.2215 11.3426 11.5297C11.0344 11.8379 10.7899 12.2039 10.623 12.6066C10.4562 13.0094 10.3704 13.441 10.3704 13.877C10.3704 14.3129 10.4562 14.7446 10.623 15.1473C10.7899 15.5501 11.0344 15.916 11.3426 16.2243C11.6509 16.5325 12.0168 16.777 12.4196 16.9438C12.8223 17.1107 13.254 17.1965 13.6899 17.1965C14.5703 17.1963 15.4146 16.8464 16.037 16.2237C16.6594 15.601 17.0089 14.7566 17.0087 13.8762C17.0085 12.9958 16.6586 12.1516 16.0359 11.5292C15.4132 10.9068 14.5688 10.5572 13.6884 10.5574H13.6899ZM13.6899 6.6361C14.1256 6.6359 14.5571 6.54988 14.9596 6.38295C15.3621 6.21602 15.7277 5.97144 16.0357 5.6632C16.3437 5.35495 16.5879 4.98906 16.7545 4.58642C16.921 4.18378 17.0067 3.75227 17.0065 3.31654C17.0063 2.88081 16.9202 2.44938 16.7533 2.04689C16.5864 1.6444 16.3418 1.27874 16.0336 0.970767C15.7253 0.662798 15.3594 0.418559 14.9568 0.251994C14.5541 0.0854299 14.1226 -0.000197717 13.6869 3.42805e-07C12.8069 0.000400356 11.9631 0.350363 11.3411 0.9729C10.7192 1.59544 10.37 2.43956 10.3704 3.31956C10.3708 4.19956 10.7207 5.04336 11.3433 5.66533C11.9658 6.2873 12.8099 6.6365 13.6899 6.6361ZM13.6899 21.1148C12.8095 21.1148 11.9652 21.4646 11.3426 22.0871C10.7201 22.7097 10.3704 23.554 10.3704 24.4344C10.3704 25.3148 10.7201 26.1591 11.3426 26.7817C11.9652 27.4042 12.8095 27.754 13.6899 27.754C14.5703 27.754 15.4147 27.4042 16.0372 26.7817C16.6597 26.1591 17.0095 25.3148 17.0095 24.4344C17.0095 23.554 16.6597 22.7097 16.0372 22.0871C15.4147 21.4646 14.5703 21.1148 13.6899 21.1148Z" fill="white"/>
</svg>
