<svg width="28" height="28" viewBox="0 0 28 28" fill="none" xmlns="http://www.w3.org/2000/svg">
<path fill-rule="evenodd" clip-rule="evenodd" d="M7.53696 17.7695C7.29053 17.7341 7.02857 17.7143 6.75 17.7143C4.69821 17.7143 3.55232 18.797 3.11303 19.3364C3.04178 19.4291 3.00375 19.5427 3.00375 19.66C3.00375 19.6632 3.00375 19.6664 3.00321 19.6691C3 19.8673 3 20.1298 3 20.3929C3 20.6886 3.24 20.9286 3.53571 20.9286H7.37786C7.31732 20.7582 7.28571 20.5771 7.28571 20.3929C7.28571 19.7832 7.28571 19.0568 7.28786 18.6277C7.28786 18.3223 7.37518 18.025 7.53696 17.7695ZM19.6071 20.9286H8.89286C8.75089 20.9286 8.61428 20.8723 8.51411 20.7716C8.41339 20.6714 8.35714 20.5348 8.35714 20.3929C8.35714 19.7848 8.35714 19.0616 8.35928 18.6309C8.35928 18.6298 8.35928 18.6288 8.35928 18.6277C8.35928 18.5045 8.40214 18.3855 8.47982 18.2902C9.14464 17.5311 11.1536 15.5714 14.25 15.5714C17.7546 15.5714 19.5145 17.5273 20.0529 18.265C20.1123 18.3555 20.1429 18.4579 20.1429 18.5623V20.3929C20.1429 20.5348 20.0866 20.6714 19.9859 20.7716C19.8857 20.8723 19.7491 20.9286 19.6071 20.9286ZM21.1221 20.9286H24.9643C25.26 20.9286 25.5 20.6886 25.5 20.3929V19.6595C25.5 19.5411 25.4609 19.4264 25.3891 19.3327C24.9477 18.797 23.8012 17.7143 21.75 17.7143C21.4859 17.7143 21.2368 17.732 21.0021 17.7641C21.1409 18.0068 21.2143 18.2821 21.2143 18.5634V20.3929C21.2143 20.5771 21.1827 20.7582 21.1221 20.9286ZM6.75 11.2857C5.27143 11.2857 4.07143 12.4857 4.07143 13.9643C4.07143 15.4429 5.27143 16.6429 6.75 16.6429C8.22857 16.6429 9.42857 15.4429 9.42857 13.9643C9.42857 12.4857 8.22857 11.2857 6.75 11.2857ZM21.75 11.2857C20.2714 11.2857 19.0714 12.4857 19.0714 13.9643C19.0714 15.4429 20.2714 16.6429 21.75 16.6429C23.2286 16.6429 24.4286 15.4429 24.4286 13.9643C24.4286 12.4857 23.2286 11.2857 21.75 11.2857ZM14.25 7C12.1805 7 10.5 8.68054 10.5 10.75C10.5 12.8195 12.1805 14.5 14.25 14.5C16.3195 14.5 18 12.8195 18 10.75C18 8.68054 16.3195 7 14.25 7Z" fill="white"/>
</svg>
