<svg width="116" height="115" viewBox="0 0 116 115" fill="none" xmlns="http://www.w3.org/2000/svg">
<g style="mix-blend-mode:luminosity">
<circle r="39.75" transform="matrix(1 0 0 -1 59.5743 59.6312)" fill="url(#paint0_linear_29:1314)" stroke="#2EB1B7" stroke-width="0.5"/>
<path d="M61.4517 10.9269L60.5523 10.9048L60.6837 6.63123L61.6502 6.65616L61.4517 10.9269ZM60.6885 10.7764L61.3251 10.7917L61.5112 6.78464L60.8112 6.76642L60.6885 10.7764Z" fill="#2EB1B7"/>
<path d="M62.9024 11.0305L62.0059 10.9624L62.2648 6.69452L63.2284 6.76739L62.9024 11.0305ZM62.1459 10.8406L62.7806 10.8895L63.0865 6.89013L62.3884 6.83739L62.1459 10.8406Z" fill="#2EB1B7"/>
<path d="M64.3502 11.1579L64.2821 11.1474C64.1038 11.1206 63.9187 11.1071 63.7403 11.0947C63.6675 11.0899 63.5946 11.0841 63.5217 11.0784L63.4556 11.0726L63.842 6.81433L63.9072 6.82008C63.9849 6.8268 64.0616 6.83255 64.1392 6.8383C64.3368 6.85269 64.54 6.86803 64.7404 6.89775L64.8028 6.90734L64.3502 11.1579ZM63.5994 10.9518C63.6493 10.9556 63.7001 10.9595 63.7499 10.9633C63.9091 10.9748 64.0721 10.9863 64.2342 11.0074L64.6589 7.01857C64.4835 6.99556 64.3042 6.98213 64.1296 6.96967C64.0731 6.96583 64.0175 6.96104 63.9609 6.9572L63.5994 10.9518Z" fill="#2EB1B7"/>
<path d="M65.7933 11.3392L64.9016 11.2261L65.4156 6.9812L66.3744 7.10298L65.7933 11.3392ZM65.0483 11.112L65.6802 11.1925L66.2248 7.21804L65.5297 7.12983L65.0483 11.112Z" fill="#2EB1B7"/>
<path d="M67.2296 11.5616L67.1644 11.5501C67.0743 11.5348 66.9832 11.5175 66.893 11.5012C66.732 11.4715 66.5709 11.4427 66.4088 11.4169L66.3436 11.4063L66.9851 7.17871L67.0503 7.18926C67.2296 7.21707 67.4089 7.24967 67.5873 7.28227C67.6822 7.29953 67.7771 7.31679 67.872 7.33309L67.9372 7.34459L67.2296 11.5616ZM66.4942 11.297C66.6351 11.32 66.7761 11.3459 66.9161 11.3708C66.9841 11.3833 67.0522 11.3958 67.1213 11.4073L67.7857 7.45103C67.7119 7.4376 67.6381 7.42514 67.5642 7.41172C67.408 7.38391 67.2517 7.35514 67.0954 7.33021L66.4942 11.297Z" fill="#2EB1B7"/>
<path d="M68.6603 11.8167L67.7753 11.6594L68.5433 7.45294L69.4955 7.62362L68.6603 11.8167ZM67.9296 11.5521L68.5567 11.6633L69.3401 7.72909L68.6507 7.6054L67.9296 11.5521Z" fill="#2EB1B7"/>
<path d="M70.0785 12.1351L69.2031 11.9327L70.0986 7.75214L71.0412 7.9698L70.0785 12.1351ZM69.3594 11.833L69.9797 11.9769L70.882 8.06856L70.1993 7.91131L69.3594 11.833Z" fill="#2EB1B7"/>
<path d="M71.4899 12.4793L71.4237 12.4592C71.2406 12.4026 71.0498 12.3594 70.8647 12.3172C70.8043 12.3038 70.7439 12.2894 70.6835 12.276L70.6183 12.2607L71.6395 8.10883L71.7028 8.12417C71.766 8.13951 71.8303 8.15389 71.8936 8.16827C72.0978 8.21526 72.3097 8.2632 72.5159 8.32649L72.5763 8.3447L71.4899 12.4793ZM70.7794 12.161C70.8177 12.1696 70.8561 12.1782 70.8944 12.1868C71.0603 12.2242 71.23 12.2635 71.3969 12.3115L72.4171 8.43196C72.2349 8.37922 72.047 8.33607 71.8658 8.29484C71.8226 8.28526 71.7804 8.27567 71.7373 8.26512L70.7794 12.161Z" fill="#2EB1B7"/>
<path d="M77.0158 14.3126L76.1797 13.9828L77.6975 9.98529L78.5969 10.3401L77.0158 14.3126ZM76.3494 13.908L76.942 14.1419L78.4253 10.4149L77.7733 10.1579L76.3494 13.908Z" fill="#2EB1B7"/>
<path d="M78.3582 14.8678L77.9478 14.6818C77.874 14.6492 77.7973 14.6195 77.7215 14.5897C77.6793 14.5734 77.6362 14.5571 77.594 14.5399L77.5317 14.515L79.1704 10.5654L79.2308 10.5904C79.2758 10.6086 79.3219 10.6268 79.3679 10.6441C79.4523 10.6767 79.5367 10.7102 79.6201 10.7467L80.0602 10.9451L78.3582 14.8678ZM77.7052 14.4421C77.7263 14.4507 77.7474 14.4584 77.7685 14.467C77.8462 14.4977 77.9248 14.5274 78.0015 14.561L78.2901 14.6923L79.8857 11.0123L79.5645 10.8675C79.4839 10.832 79.4014 10.7994 79.318 10.7677C79.2921 10.7582 79.2663 10.7476 79.2404 10.7371L77.7052 14.4421Z" fill="#2EB1B7"/>
<path d="M79.6833 15.4671L78.8644 15.097L80.6211 11.1992L81.5023 11.5981L79.6833 15.4671ZM79.0389 15.0308L79.6191 15.2926L81.3258 11.6623L80.6872 11.3737L79.0389 15.0308Z" fill="#2EB1B7"/>
<path d="M80.9854 16.1124L80.1857 15.702L82.0593 11.8589L82.9203 12.299L80.9854 16.1124ZM80.3611 15.6435L80.9278 15.934L82.7429 12.3575L82.1197 12.0382L80.3611 15.6435Z" fill="#2EB1B7"/>
<path d="M82.275 16.7817L82.2165 16.7491C82.0746 16.6685 81.9259 16.5937 81.7821 16.5209C81.7006 16.4796 81.6182 16.4384 81.5376 16.3952L81.4791 16.3646L83.4688 12.58L83.5272 12.6106C83.6135 12.6557 83.7008 12.7008 83.788 12.7449C83.9463 12.8254 84.1102 12.9079 84.2684 12.9971L84.325 13.0287L82.275 16.7817ZM81.6575 16.3089C81.7188 16.3406 81.7802 16.3713 81.8416 16.4029C81.9672 16.4662 82.0966 16.5314 82.2222 16.6014L84.1447 13.0805C84.0067 13.0047 83.8648 12.9328 83.7267 12.8628C83.6586 12.8283 83.5905 12.7938 83.5224 12.7583L81.6575 16.3089Z" fill="#2EB1B7"/>
<path d="M83.535 17.5075L82.7555 17.0597L84.8583 13.3365L85.6963 13.8188L83.535 17.5075ZM82.9358 17.0099L83.4881 17.3272L85.5161 13.8667L84.9091 13.5177L82.9358 17.0099Z" fill="#2EB1B7"/>
<path d="M87.1892 19.8845L86.4567 19.3629L88.8864 15.8448L89.6746 16.4048L87.1892 19.8845ZM86.6388 19.3312L87.1576 19.7004L89.4886 16.4365L88.9181 16.0309L86.6388 19.3312Z" fill="#2EB1B7"/>
<path d="M88.361 20.7446L88.0062 20.4656L87.6409 20.2058L90.1751 16.7625L90.5673 17.0425L90.9489 17.3417L88.361 20.7446ZM87.8278 20.176L88.0858 20.3601L88.337 20.5577L90.7648 17.3647L90.4877 17.148L90.2039 16.9457L87.8278 20.176Z" fill="#2EB1B7"/>
<path d="M89.5049 21.644L88.7972 21.0888L91.4331 17.7223L92.1935 18.3197L89.5049 21.644ZM88.9823 21.0658L89.4828 21.4589L92.0056 18.3407L91.4552 17.9083L88.9823 21.0658Z" fill="#2EB1B7"/>
<path d="M90.6161 22.5808L89.9363 21.9921L92.6719 18.7061L93.4025 19.3389L90.6161 22.5808ZM90.1204 21.9767L90.6017 22.3938L93.2165 19.3523L92.6872 18.894L90.1204 21.9767Z" fill="#2EB1B7"/>
<path d="M104.779 43.4695L104.492 42.618L108.51 41.1586L108.821 42.0743L104.779 43.4695ZM104.658 42.6976L104.862 43.3007L108.654 41.9919L108.429 41.3283L104.658 42.6976Z" fill="#2EB1B7"/>
<path d="M105.245 44.8454L104.957 43.994L109.019 42.6573L109.328 43.574L105.245 44.8454ZM105.125 44.0783L105.329 44.6815L109.159 43.4886L108.934 42.8251L105.125 44.0783Z" fill="#2EB1B7"/>
<path d="M105.64 46.2444L105.394 45.3795L109.494 44.1666L109.759 45.0967L105.64 46.2444ZM105.557 45.4697L105.731 46.0824L109.595 45.0065L109.403 44.3324L105.557 45.4697Z" fill="#2EB1B7"/>
<path d="M106.01 47.6501L105.994 47.5849C105.98 47.5235 105.966 47.4631 105.952 47.4017C105.91 47.2176 105.867 47.0268 105.81 46.8446L105.79 46.7785L109.926 45.6902L109.944 45.7506C110.007 45.9558 110.055 46.1677 110.102 46.3729C110.116 46.4371 110.132 46.5004 110.146 46.5647L110.161 46.6279L106.01 47.6501ZM105.956 46.8715C106.004 47.0383 106.043 47.2081 106.081 47.373C106.089 47.4123 106.098 47.4506 106.107 47.49L110.002 46.5321C109.993 46.4889 109.982 46.4467 109.973 46.4036C109.931 46.2214 109.888 46.0335 109.835 45.8522L105.956 46.8715Z" fill="#2EB1B7"/>
<path d="M106.336 49.0663L106.133 48.1909L110.3 47.2292L110.517 48.1717L106.336 49.0663ZM106.293 48.2897L106.435 48.91L110.358 48.0701L110.201 47.3874L106.293 48.2897Z" fill="#2EB1B7"/>
<path d="M106.61 50.4931L106.453 49.6081L110.646 48.7729L110.816 49.7251L106.61 50.4931ZM106.605 49.7126L106.716 50.3397L110.662 49.6186L110.538 48.9292L106.605 49.7126Z" fill="#2EB1B7"/>
<path d="M107.197 54.8128L107.191 54.7466C107.185 54.6728 107.18 54.5999 107.174 54.5261C107.161 54.3487 107.148 54.1646 107.121 53.9862L107.11 53.9181L111.362 53.4646L111.372 53.5269C111.401 53.7273 111.417 53.9306 111.431 54.1272C111.437 54.2048 111.443 54.2835 111.449 54.3611L111.455 54.4263L107.197 54.8128ZM107.262 54.0351C107.283 54.1962 107.295 54.3592 107.306 54.5165C107.31 54.5673 107.314 54.6181 107.318 54.6689L111.312 54.3065C111.307 54.2499 111.304 54.1933 111.3 54.1368C111.287 53.9632 111.274 53.7839 111.251 53.6094L107.262 54.0351Z" fill="#2EB1B7"/>
<path d="M107.306 56.2626L107.238 55.366L111.501 55.04L111.574 56.0037L107.306 56.2626ZM107.38 55.4878L107.429 56.1226L111.433 55.88L111.38 55.1819L107.38 55.4878Z" fill="#2EB1B7"/>
<path d="M107.364 57.7162L107.341 56.8167L111.612 56.6183L111.637 57.5848L107.364 57.7162ZM107.477 56.9433L107.492 57.58L111.501 57.4563L111.483 56.7563L107.477 56.9433Z" fill="#2EB1B7"/>
<path d="M94.792 26.6243L94.1716 25.9742L97.2802 23.0391L97.9466 23.7391L94.792 26.6243ZM94.3586 25.979L94.7987 26.4402L97.7587 23.7324L97.2754 23.2251L94.3586 25.979Z" fill="#2EB1B7"/>
<path d="M95.7469 27.7212L95.1582 27.0414L98.3531 24.2003L98.986 24.931L95.7469 27.7212ZM95.3433 27.0539L95.7604 27.5352L98.7999 24.9175L98.3416 24.3883L95.3433 27.0539Z" fill="#2EB1B7"/>
<path d="M96.6886 28.8451L96.4105 28.4903C96.3607 28.426 96.306 28.3647 96.2523 28.3033C96.2226 28.2688 96.1919 28.2343 96.1622 28.1997L96.119 28.1489L99.3983 25.4056L99.4405 25.4555C99.4721 25.4929 99.5038 25.5293 99.5364 25.5667C99.5958 25.6348 99.6562 25.7038 99.7119 25.7748L100.01 26.1535L96.6886 28.8451ZM96.307 28.1652C96.3223 28.1825 96.3367 28.1997 96.352 28.217C96.4076 28.2803 96.4623 28.3426 96.5141 28.4088L96.7097 28.6581L99.8269 26.1334L99.6093 25.8573C99.5546 25.7882 99.4961 25.7211 99.4376 25.654C99.4194 25.6329 99.4012 25.6128 99.383 25.5917L96.307 28.1652Z" fill="#2EB1B7"/>
<path d="M97.5871 29.9889L97.0309 29.2822L100.391 26.6387L100.988 27.399L97.5871 29.9889ZM97.217 29.3043L97.6111 29.8048L100.802 27.3741L100.37 26.8237L97.217 29.3043Z" fill="#2EB1B7"/>
<path d="M98.4433 31.1635L97.9227 30.431L101.36 27.889L101.921 28.6772L98.4433 31.1635ZM98.1058 30.4597L98.475 30.9794L101.738 28.6465L101.331 28.076L98.1058 30.4597Z" fill="#2EB1B7"/>
<path d="M99.2765 32.3554L99.2411 32.2969C99.1749 32.1886 99.0992 32.0831 99.0282 31.9834L98.7664 31.6161L102.28 29.1787L102.559 29.5718C102.637 29.6802 102.72 29.7972 102.796 29.9199L102.829 29.9736L99.2765 32.3554ZM98.9505 31.6478L99.1346 31.9057C99.195 31.9891 99.2574 32.0773 99.3168 32.1684L102.648 29.9343C102.584 29.8346 102.516 29.7387 102.45 29.6476L102.247 29.3609L98.9505 31.6478Z" fill="#2EB1B7"/>
<path d="M100.062 33.5789L99.5767 32.8224L103.161 30.4914L103.682 31.3055L100.062 33.5789ZM99.7588 32.8607L100.102 33.3967L103.499 31.2633L103.122 30.6736L99.7588 32.8607Z" fill="#2EB1B7"/>
<path d="M100.814 34.8225L100.365 34.0439L104.017 31.8223L104.501 32.6593L100.814 34.8225ZM100.543 34.09L100.862 34.6413L104.321 32.6114L103.971 32.0045L100.543 34.09Z" fill="#2EB1B7"/>
<path d="M101.539 36.0834L101.09 35.3039L104.808 33.1925L105.29 34.0315L101.539 36.0834ZM101.27 35.3528L101.587 35.9051L105.106 33.9807L104.757 33.3727L101.27 35.3528Z" fill="#2EB1B7"/>
<path d="M102.203 37.375L101.794 36.5753L105.573 34.5771L106.014 35.4381L102.203 37.375ZM101.971 36.6309L102.262 37.1976L105.837 35.3806L105.518 34.7573L101.971 36.6309Z" fill="#2EB1B7"/>
<path d="M102.845 38.68L102.659 38.2686C102.624 38.1958 102.587 38.1229 102.549 38.051C102.528 38.0107 102.507 37.9695 102.487 37.9292L102.457 37.8698L106.296 35.9866L106.326 36.0451C106.348 36.0892 106.371 36.1333 106.393 36.1774C106.434 36.257 106.476 36.3375 106.514 36.419L106.714 36.8591L102.845 38.68ZM102.636 37.9283C102.646 37.9484 102.657 37.9685 102.667 37.9896C102.706 38.0635 102.744 38.1382 102.779 38.213L102.91 38.5026L106.539 36.7939L106.394 36.4737C106.357 36.3941 106.317 36.3155 106.276 36.2378C106.264 36.2129 106.25 36.1879 106.238 36.163L102.636 37.9283Z" fill="#2EB1B7"/>
<path d="M103.443 40.0042L103.073 39.1853L106.967 37.4191L107.365 38.3003L103.443 40.0042ZM103.247 39.2505L103.51 39.8306L107.189 38.2322L106.9 37.5936L103.247 39.2505Z" fill="#2EB1B7"/>
<path d="M57.5279 111.694L56.5613 111.669L56.7598 107.398L57.6592 107.42L57.5279 111.694ZM56.6994 111.541L57.3994 111.559L57.5231 107.55L56.8864 107.534L56.6994 111.541Z" fill="#2EB1B7"/>
<path d="M55.9478 111.631L54.9842 111.558L55.3102 107.295L56.2067 107.363L55.9478 111.631ZM55.1251 111.436L55.8232 111.489L56.0658 107.485L55.431 107.436L55.1251 111.436Z" fill="#2EB1B7"/>
<path d="M54.3696 111.512L54.3044 111.506C54.2267 111.499 54.149 111.494 54.0704 111.488C53.8738 111.473 53.6696 111.458 53.4702 111.428L53.4078 111.419L53.8614 107.167L53.9295 107.178C54.1078 107.205 54.2909 107.218 54.4693 107.23C54.5431 107.236 54.6169 107.241 54.6898 107.248L54.756 107.254L54.3696 111.512ZM53.5526 111.307C53.7281 111.33 53.9064 111.343 54.08 111.355C54.1366 111.359 54.1931 111.364 54.2497 111.368L54.6122 107.373C54.5613 107.37 54.5105 107.366 54.4597 107.362C54.3015 107.35 54.1394 107.339 53.9783 107.318L53.5526 111.307Z" fill="#2EB1B7"/>
<path d="M52.7969 111.344L51.8381 111.222L52.4191 106.986L53.3109 107.099L52.7969 111.344ZM51.9867 111.107L52.6819 111.195L53.1632 107.213L52.5313 107.133L51.9867 111.107Z" fill="#2EB1B7"/>
<path d="M51.2264 111.146L51.1612 111.135C50.9829 111.107 50.8045 111.075 50.6262 111.043C50.5303 111.026 50.4344 111.008 50.3385 110.992L50.2733 110.981L50.9819 106.765L51.0471 106.776C51.1392 106.792 51.2312 106.809 51.3233 106.825C51.4824 106.854 51.6426 106.883 51.8027 106.908L51.8679 106.919L51.2264 111.146ZM50.4258 110.873C50.5006 110.887 50.5744 110.9 50.6492 110.913C50.8045 110.941 50.9599 110.97 51.1162 110.995L51.7174 107.029C51.5783 107.006 51.4383 106.981 51.2993 106.956C51.2293 106.944 51.1603 106.931 51.0903 106.919L50.4258 110.873Z" fill="#2EB1B7"/>
<path d="M49.6683 110.872L48.7161 110.702L49.5513 106.509L50.4363 106.666L49.6683 110.872ZM48.8715 110.595L49.5609 110.719L50.2819 106.773L49.6548 106.662L48.8715 110.595Z" fill="#2EB1B7"/>
<path d="M48.114 110.574L47.1714 110.356L48.1332 106.19L49.0086 106.392L48.114 110.574ZM47.3297 110.258L48.0124 110.415L48.8523 106.492L48.2319 106.349L47.3297 110.258Z" fill="#2EB1B7"/>
<path d="M46.5711 110.218L46.5078 110.203C46.4446 110.188 46.3803 110.173 46.3161 110.159C46.1118 110.112 45.8999 110.064 45.6938 110.001L45.6334 109.982L46.7217 105.847L46.7878 105.867C46.97 105.924 47.1608 105.967 47.3449 106.009C47.4063 106.023 47.4667 106.037 47.5281 106.051L47.5933 106.066L46.5711 110.218ZM45.7935 109.892C45.9757 109.945 46.1636 109.988 46.3448 110.029C46.388 110.039 46.4302 110.049 46.4733 110.059L47.4312 106.164C47.3919 106.156 47.3535 106.146 47.3142 106.137C47.1493 106.1 46.9796 106.062 46.8128 106.013L45.7935 109.892Z" fill="#2EB1B7"/>
<path d="M40.514 108.34L39.6146 107.985L41.1958 104.013L42.0319 104.342L40.514 108.34ZM39.7863 107.911L40.4383 108.168L41.8622 104.418L41.2696 104.184L39.7863 107.911Z" fill="#2EB1B7"/>
<path d="M39.0411 107.76L38.9807 107.735C38.9357 107.717 38.8896 107.698 38.8446 107.681C38.7602 107.649 38.6758 107.615 38.5924 107.579L38.1523 107.38L39.8533 103.457L40.2637 103.643C40.3375 103.676 40.4142 103.706 40.49 103.735C40.5322 103.752 40.5753 103.768 40.6175 103.785L40.6798 103.81L39.0411 107.76ZM38.3249 107.313L38.6451 107.458C38.7257 107.493 38.8091 107.526 38.8916 107.557C38.9174 107.567 38.9433 107.578 38.9683 107.587L40.5053 103.882C40.4842 103.874 40.4631 103.866 40.442 103.857C40.3644 103.827 40.2857 103.797 40.21 103.763L39.9204 103.632L38.3249 107.313Z" fill="#2EB1B7"/>
<path d="M37.5905 107.127L36.7094 106.728L38.5283 102.859L39.3472 103.229L37.5905 107.127ZM36.8867 106.663L37.5253 106.951L39.1736 103.294L38.5935 103.033L36.8867 106.663Z" fill="#2EB1B7"/>
<path d="M36.1522 106.466L35.2912 106.026L37.2262 102.214L38.0259 102.624L36.1522 106.466ZM35.4695 105.969L36.0938 106.288L37.8523 102.683L37.2856 102.392L35.4695 105.969Z" fill="#2EB1B7"/>
<path d="M34.7437 105.745L34.6852 105.715C34.5989 105.67 34.5117 105.625 34.4244 105.581C34.2662 105.501 34.1022 105.417 33.944 105.328L33.8875 105.297L35.9365 101.544L35.995 101.576C36.1369 101.657 36.2855 101.731 36.4284 101.803C36.5109 101.845 36.5924 101.887 36.6739 101.929L36.7324 101.96L34.7437 105.745ZM34.0658 105.246C34.2039 105.321 34.3458 105.394 34.4848 105.464C34.5529 105.499 34.621 105.533 34.6881 105.568L36.554 102.017C36.4927 101.986 36.4303 101.954 36.369 101.923C36.2434 101.86 36.1149 101.795 35.9883 101.726L34.0658 105.246Z" fill="#2EB1B7"/>
<path d="M33.3534 104.99L32.5153 104.507L34.6766 100.819L35.4561 101.266L33.3534 104.99ZM32.6965 104.459L33.3035 104.808L35.2759 101.315L34.7236 100.998L32.6965 104.459Z" fill="#2EB1B7"/>
<path d="M29.3261 102.48L28.538 101.92L31.0233 98.4416L31.7559 98.9632L29.3261 102.48ZM28.7221 101.889L29.2926 102.294L31.5718 98.9939L31.053 98.6248L28.7221 101.889Z" fill="#2EB1B7"/>
<path d="M28.0365 101.563L27.6443 101.283L27.2627 100.984L29.8506 97.5806L30.2054 97.8596L30.5707 98.1195L28.0365 101.563ZM27.4468 100.961L27.7239 101.177L28.0077 101.38L30.3847 98.1492L30.1268 97.9651L29.8756 97.7676L27.4468 100.961Z" fill="#2EB1B7"/>
<path d="M26.7785 100.604L26.0181 100.006L28.7077 96.6821L29.4144 97.2373L26.7785 100.604ZM26.2051 99.9854L26.7555 100.418L29.2284 97.2603L28.7279 96.8672L26.2051 99.9854Z" fill="#2EB1B7"/>
<path d="M25.5396 99.6191L24.809 98.9862L27.5964 95.7444L28.2762 96.3341L25.5396 99.6191ZM24.995 98.9728L25.5243 99.4312L28.0911 96.3484L27.6098 95.9313L24.995 98.9728Z" fill="#2EB1B7"/>
<path d="M9.70123 77.1675L9.39056 76.2518L13.4321 74.8566L13.7198 75.7081L9.70123 77.1675ZM9.55836 76.3333L9.7837 76.9968L13.5539 75.6275L13.3506 75.0244L9.55836 76.3333Z" fill="#2EB1B7"/>
<path d="M9.19405 75.6678L8.88434 74.7512L12.9662 73.4797L13.2548 74.3312L9.19405 75.6678ZM9.0531 74.8375L9.27747 75.501L13.088 74.2468L12.8837 73.6437L9.0531 74.8375Z" fill="#2EB1B7"/>
<path d="M8.7174 74.1586L8.45276 73.2285L12.572 72.0817L12.8175 72.9466L8.7174 74.1586ZM8.61672 73.3196L8.80849 73.9937L12.6554 72.8555L12.4819 72.2428L8.61672 73.3196Z" fill="#2EB1B7"/>
<path d="M8.2869 72.635L8.26869 72.5746C8.2054 72.3694 8.15746 72.1575 8.11047 71.9523C8.09609 71.889 8.08171 71.8248 8.06637 71.7615L8.05103 71.6982L12.2029 70.677L12.2182 70.7422C12.2326 70.8026 12.246 70.863 12.2604 70.9244C12.3026 71.1094 12.3457 71.3003 12.4023 71.4834L12.4224 71.5496L8.2869 72.635ZM8.20924 71.7941C8.21882 71.8372 8.22937 71.8794 8.23896 71.9226C8.28019 72.1047 8.32334 72.2927 8.37608 72.4749L12.2556 71.4546C12.2067 71.2878 12.1684 71.1171 12.131 70.9522C12.1223 70.9138 12.1137 70.8755 12.1041 70.8362L8.20924 71.7941Z" fill="#2EB1B7"/>
<path d="M7.91194 71.097L7.69427 70.1545L11.8749 69.2589L12.0772 70.1343L7.91194 71.097ZM7.85345 70.2561L8.0107 70.9388L11.919 70.0365L11.7752 69.4161L7.85345 70.2561Z" fill="#2EB1B7"/>
<path d="M7.56692 69.5532L7.39624 68.6011L11.6027 67.833L11.76 68.7181L7.56692 69.5532ZM7.54966 68.7075L7.67335 69.3969L11.6075 68.6136L11.4963 67.9865L7.54966 68.7075Z" fill="#2EB1B7"/>
<path d="M6.8485 64.8606L6.83892 64.7983C6.80919 64.5979 6.79385 64.3936 6.77946 64.1971C6.77371 64.1194 6.76796 64.0427 6.76125 63.965L6.75549 63.8998L11.0138 63.5134L11.0195 63.5796C11.0253 63.6524 11.031 63.7253 11.0358 63.7982C11.0483 63.9765 11.0617 64.1616 11.0886 64.3399L11.0991 64.408L6.8485 64.8606ZM6.89932 64.0187C6.90412 64.0753 6.90795 64.1309 6.91179 64.1875C6.92425 64.362 6.93768 64.5413 6.96069 64.7168L10.9495 64.292C10.9275 64.1299 10.916 63.9669 10.9054 63.8078C10.9016 63.7579 10.8987 63.7071 10.8939 63.6572L6.89932 64.0187Z" fill="#2EB1B7"/>
<path d="M6.71051 63.2852L6.63763 62.3215L10.9055 62.0627L10.9736 62.9592L10.9074 62.964L6.71051 63.2852ZM6.77954 62.4452L6.83228 63.1433L10.8317 62.8374L10.7828 62.2026L6.77954 62.4452Z" fill="#2EB1B7"/>
<path d="M6.59927 61.7069L6.57434 60.7404L10.848 60.609L10.87 61.5084L6.59927 61.7069ZM6.70954 60.8689L6.72776 61.5688L10.7348 61.3828L10.7195 60.7461L6.70954 60.8689Z" fill="#2EB1B7"/>
<path d="M20.9322 95.287L20.2658 94.587L23.4204 91.7009L24.0408 92.351L20.9322 95.287ZM20.4537 94.5937L20.937 95.101L23.8538 92.3471L23.4137 91.8859L20.4537 94.5937Z" fill="#2EB1B7"/>
<path d="M19.8582 94.1248L19.2254 93.3942L22.4654 90.6039L23.0541 91.2838L19.8582 94.1248ZM19.4114 93.4086L19.8698 93.9379L22.8671 91.2723L22.45 90.7909L19.4114 93.4086Z" fill="#2EB1B7"/>
<path d="M18.8132 92.9196L18.771 92.8698C18.7393 92.8333 18.7077 92.7969 18.676 92.7604C18.6156 92.6914 18.5562 92.6233 18.4996 92.5514L18.2014 92.1727L21.5238 89.4811L21.8019 89.8359C21.8518 89.8992 21.9055 89.9606 21.9592 90.0219C21.9899 90.0565 22.0196 90.091 22.0493 90.1255L22.0924 90.1763L18.8132 92.9196ZM18.3846 92.1918L18.6022 92.468C18.6578 92.538 18.7163 92.6051 18.7748 92.6722C18.793 92.6924 18.8103 92.7135 18.8285 92.7336L21.9055 90.16C21.8901 90.1428 21.8757 90.1255 21.8604 90.1082C21.8048 90.045 21.7501 89.9826 21.6984 89.9165L21.5028 89.6672L18.3846 92.1918Z" fill="#2EB1B7"/>
<path d="M17.8199 91.6874L17.2225 90.9271L20.6246 88.3372L21.1807 89.0439L17.8199 91.6874ZM17.4095 90.951L17.842 91.5024L20.9947 89.0218L20.6006 88.5213L17.4095 90.951Z" fill="#2EB1B7"/>
<path d="M16.8515 90.4371L16.2905 89.6489L19.7683 87.1617L20.289 87.8942L16.8515 90.4371ZM16.4746 89.6796L16.8812 90.2502L20.1068 87.8655L19.7376 87.3467L16.4746 89.6796Z" fill="#2EB1B7"/>
<path d="M15.9338 89.1474L15.6547 88.7543C15.5761 88.646 15.4936 88.529 15.4179 88.4062L15.3843 88.3516L18.935 85.9698L18.9705 86.0283C19.0366 86.1366 19.1095 86.2383 19.1833 86.3418L19.4451 86.7091L15.9338 89.1474ZM15.5646 88.3909C15.6288 88.4906 15.6969 88.5865 15.7621 88.6776L15.9654 88.9643L19.261 86.6774L19.0769 86.4195C19.0146 86.3322 18.9532 86.2469 18.8947 86.1568L15.5646 88.3909Z" fill="#2EB1B7"/>
<path d="M15.0506 87.8348L14.529 87.0207L18.1496 84.7473L18.6348 85.5038L15.0506 87.8348ZM14.7121 87.0619L15.0899 87.6516L18.4526 85.4645L18.1094 84.9285L14.7121 87.0619Z" fill="#2EB1B7"/>
<path d="M14.1945 86.5039L13.7103 85.6668L17.398 83.5027L17.8468 84.2812L14.1945 86.5039ZM13.8915 85.7138L14.2415 86.3207L17.6684 84.2362L17.3501 83.6848L13.8915 85.7138Z" fill="#2EB1B7"/>
<path d="M13.4044 85.1327L12.923 84.2937L16.6741 82.2418L17.1228 83.0213L13.4044 85.1327ZM13.1043 84.3455L13.4533 84.9534L16.9416 82.9734L16.6242 82.422L13.1043 84.3455Z" fill="#2EB1B7"/>
<path d="M12.6381 83.7482L12.197 82.8871L16.0085 80.9492L16.4179 81.7499L12.6381 83.7482ZM12.3754 82.9456L12.6947 83.5688L16.2415 81.6943L15.9509 81.1276L12.3754 82.9456Z" fill="#2EB1B7"/>
<path d="M11.9162 82.3396L11.8865 82.2811C11.8645 82.237 11.8424 82.1938 11.8194 82.1497C11.7782 82.0692 11.736 81.9886 11.6986 81.9071L11.4991 81.467L15.3672 79.6452L15.5522 80.0565C15.5867 80.1294 15.6241 80.2023 15.6615 80.2742C15.6826 80.3154 15.7037 80.3557 15.7248 80.3969L15.7545 80.4564L11.9162 82.3396ZM11.6737 81.5312L11.8184 81.8515C11.8558 81.9311 11.8961 82.0097 11.9373 82.0883C11.9498 82.1133 11.9632 82.1382 11.9757 82.1622L15.5772 80.396C15.5666 80.3758 15.5561 80.3547 15.5455 80.3346C15.5072 80.2608 15.4688 80.1869 15.4333 80.1112L15.3029 79.8216L11.6737 81.5312Z" fill="#2EB1B7"/>
<path d="M11.245 80.9061L10.8471 80.0249L14.7688 78.322L15.1389 79.1408L11.245 80.9061ZM11.0226 80.093L11.3112 80.7316L14.9644 79.0747L14.7017 78.4946L11.0226 80.093Z" fill="#2EB1B7"/>
<path d="M107.41 61.4461L107.428 60.6771L111.57 60.8047L111.548 61.6379L107.41 61.4461Z" fill="#2EB1B7"/>
<path d="M107.309 62.8988L107.367 62.1326L111.503 62.3829L111.44 63.2142L107.309 62.8988Z" fill="#2EB1B7"/>
<path d="M107.187 64.3495C107.225 64.0964 107.236 63.8404 107.257 63.5853L111.384 63.9592C111.361 64.2364 111.349 64.5135 111.307 64.7887L107.187 64.3495Z" fill="#2EB1B7"/>
<path d="M107.003 65.7936L107.1 65.0313L111.213 65.5289L111.108 66.3564L107.003 65.7936Z" fill="#2EB1B7"/>
<path d="M106.783 67.2318C106.827 66.9797 106.876 66.7284 106.916 66.4753L111.012 67.0966C110.969 67.3709 110.916 67.6441 110.869 67.9184L106.783 67.2318Z" fill="#2EB1B7"/>
<path d="M106.528 68.6653L106.663 67.9098L110.739 68.6538L110.592 69.4746L106.528 68.6653Z" fill="#2EB1B7"/>
<path d="M106.213 70.0854L106.385 69.3375L110.438 70.2053L110.25 71.0184L106.213 70.0854Z" fill="#2EB1B7"/>
<path d="M105.873 71.5007C105.949 71.2562 106 71.0049 106.059 70.7556L110.082 71.7452C110.018 72.0156 109.962 72.2879 109.881 72.5545L105.873 71.5007Z" fill="#2EB1B7"/>
<path d="M104.042 77.0361L104.323 76.3218L108.197 77.7927L107.891 78.5684L104.042 77.0361Z" fill="#2EB1B7"/>
<path d="M103.489 78.3814L103.647 78.0314C103.699 77.9145 103.742 77.7936 103.79 77.6747L107.617 79.2626C107.565 79.3911 107.517 79.5225 107.461 79.649L107.29 80.0287L103.489 78.3814Z" fill="#2EB1B7"/>
<path d="M102.888 79.7075L103.205 79.0085L106.982 80.7105L106.639 81.4708L102.888 79.7075Z" fill="#2EB1B7"/>
<path d="M102.245 81.0135L102.596 80.3298L106.32 82.1459L105.941 82.8881L102.245 81.0135Z" fill="#2EB1B7"/>
<path d="M101.578 82.306C101.703 82.0836 101.814 81.8515 101.932 81.6252L105.599 83.5535C105.471 83.7999 105.35 84.0511 105.214 84.2928L101.578 82.306Z" fill="#2EB1B7"/>
<path d="M100.852 83.5679L101.235 82.9024L104.842 84.94L104.427 85.663L100.852 83.5679Z" fill="#2EB1B7"/>
<path d="M98.4758 87.2307L98.9207 86.6046L102.33 88.9595L101.847 89.6384L98.4758 87.2307Z" fill="#2EB1B7"/>
<path d="M97.6169 88.4063L97.8547 88.1042L98.0771 87.7916L101.415 90.2473L101.172 90.5867L100.915 90.9146L97.6169 88.4063Z" fill="#2EB1B7"/>
<path d="M96.7173 89.5511L97.192 88.9471L100.454 91.5015L99.9382 92.1573L96.7173 89.5511Z" fill="#2EB1B7"/>
<path d="M95.7814 90.6663L96.2839 90.0852L99.4682 92.7364L98.9226 93.3674L95.7814 90.6663Z" fill="#2EB1B7"/>
<path d="M74.8832 104.877L75.611 104.631L77.0253 108.526L76.2352 108.793L74.8832 104.877Z" fill="#2EB1B7"/>
<path d="M73.5054 105.344L74.2322 105.098L75.5277 109.033L74.7376 109.3L73.5054 105.344Z" fill="#2EB1B7"/>
<path d="M72.1055 105.742L72.8438 105.532L74.0193 109.506L73.2168 109.733L72.1055 105.742Z" fill="#2EB1B7"/>
<path d="M70.6989 106.115C70.9482 106.057 71.1994 106.006 71.4439 105.93L72.4977 109.937C72.2321 110.019 71.9588 110.074 71.6884 110.139L70.6989 106.115Z" fill="#2EB1B7"/>
<path d="M69.2806 106.442L70.0285 106.27L70.9615 110.307L70.1483 110.494L69.2806 106.442Z" fill="#2EB1B7"/>
<path d="M67.8521 106.719L68.6086 106.585L69.4179 110.649L68.5971 110.796L67.8521 106.719Z" fill="#2EB1B7"/>
<path d="M63.5275 107.314C63.7826 107.293 64.0386 107.282 64.2917 107.244L64.7309 111.364C64.4557 111.405 64.1776 111.417 63.9015 111.441L63.5275 107.314Z" fill="#2EB1B7"/>
<path d="M62.0758 107.424L62.8419 107.366L63.1574 111.497L62.3261 111.56L62.0758 107.424Z" fill="#2EB1B7"/>
<path d="M60.6203 107.485L61.3884 107.466L61.5811 111.605L60.7478 111.627L60.6203 107.485Z" fill="#2EB1B7"/>
<path d="M91.7362 94.8517L92.2923 94.3214L95.1373 97.3342L94.5332 97.9095L91.7362 94.8517Z" fill="#2EB1B7"/>
<path d="M90.6401 95.8105L91.2211 95.3081L93.974 98.4042L93.3441 98.9498L90.6401 95.8105Z" fill="#2EB1B7"/>
<path d="M89.5172 96.7559L89.8193 96.5191C89.9199 96.4395 90.0139 96.3523 90.1117 96.2698L92.7706 99.4475C92.6651 99.5376 92.5625 99.6316 92.4532 99.7179L92.1253 99.9758L89.5172 96.7559Z" fill="#2EB1B7"/>
<path d="M88.3725 97.6563L88.9756 97.1817L91.5377 100.438L90.8818 100.953L88.3725 97.6563Z" fill="#2EB1B7"/>
<path d="M87.1969 98.5155L87.823 98.0706L90.2863 101.403L89.6075 101.886L87.1969 98.5155Z" fill="#2EB1B7"/>
<path d="M86.0069 99.3535C86.1162 99.2864 86.2207 99.2126 86.3243 99.1378L86.6369 98.9153L88.9995 102.319L88.6601 102.561C88.5469 102.642 88.4338 102.722 88.3158 102.796L86.0069 99.3535Z" fill="#2EB1B7"/>
<path d="M84.7806 100.139L85.4269 99.7246L87.686 103.198L86.9841 103.648L84.7806 100.139Z" fill="#2EB1B7"/>
<path d="M83.537 100.894L84.2015 100.511L86.3551 104.051L85.6331 104.468L83.537 100.894Z" fill="#2EB1B7"/>
<path d="M82.275 101.62L82.9405 101.237L84.9857 104.84L84.2627 105.255L82.275 101.62Z" fill="#2EB1B7"/>
<path d="M80.9816 102.289L81.6652 101.94L83.6012 105.602L82.859 105.983L80.9816 102.289Z" fill="#2EB1B7"/>
<path d="M79.6776 102.934L80.0275 102.776C80.1436 102.722 80.2557 102.66 80.3698 102.602L82.1946 106.322C82.0699 106.385 81.9481 106.451 81.8225 106.51L81.4428 106.682L79.6776 102.934Z" fill="#2EB1B7"/>
<path d="M78.3514 103.533L79.0504 103.217L80.7619 106.991L80.0016 107.334L78.3514 103.533Z" fill="#2EB1B7"/>
<path d="M10.8029 56.88L10.7838 57.6481L6.64246 57.5206L6.66355 56.6873L10.8029 56.88Z" fill="#2EB1B7"/>
<path d="M10.9026 55.4274L10.8441 56.1935L6.70856 55.9423L6.77184 55.1119L10.9026 55.4274Z" fill="#2EB1B7"/>
<path d="M11.0254 53.9766C10.9871 54.2298 10.9765 54.4858 10.9554 54.7408L6.82849 54.3669C6.8515 54.0898 6.86397 53.8127 6.9052 53.5375L11.0254 53.9766Z" fill="#2EB1B7"/>
<path d="M11.2086 52.5316L11.1127 53.2939L6.99921 52.7963L7.10372 51.9688L11.2086 52.5316Z" fill="#2EB1B7"/>
<path d="M11.4281 51.0933C11.384 51.3455 11.3351 51.5967 11.2958 51.8499L7.19952 51.2285C7.24267 50.9543 7.29541 50.681 7.3424 50.4068L11.4281 51.0933Z" fill="#2EB1B7"/>
<path d="M11.6832 49.6608L11.549 50.4164L7.4729 49.6714L7.6196 48.8506L11.6832 49.6608Z" fill="#2EB1B7"/>
<path d="M11.9986 48.2398L11.826 48.9877L7.77484 48.1199L7.96182 47.3078L11.9986 48.2398Z" fill="#2EB1B7"/>
<path d="M12.3382 46.8245C12.2624 47.069 12.2116 47.3203 12.1531 47.5696L8.12976 46.58C8.194 46.3096 8.24962 46.0373 8.33112 45.7708L12.3382 46.8245Z" fill="#2EB1B7"/>
<path d="M14.1704 41.29L13.8885 42.0043L10.0148 40.5335L10.3206 39.7578L14.1704 41.29Z" fill="#2EB1B7"/>
<path d="M14.7238 39.9438L14.5655 40.2937C14.5138 40.4107 14.4706 40.5315 14.4227 40.6504L10.5959 39.0626C10.6477 38.9341 10.6956 38.8027 10.7512 38.6762L10.9229 38.2964L14.7238 39.9438Z" fill="#2EB1B7"/>
<path d="M15.323 38.6177L15.0066 39.3177L11.2297 37.6147L11.5729 36.8553L15.323 38.6177Z" fill="#2EB1B7"/>
<path d="M15.9664 37.3127L15.6164 37.9954L11.8922 36.1793L12.2719 35.4372L15.9664 37.3127Z" fill="#2EB1B7"/>
<path d="M16.6337 36.0192C16.5081 36.2416 16.3978 36.4737 16.2799 36.6999L12.6122 34.7717C12.7407 34.5253 12.8615 34.274 12.9977 34.0324L16.6337 36.0192Z" fill="#2EB1B7"/>
<path d="M17.3604 34.7573L16.9769 35.4228L13.3697 33.3852L13.7849 32.6632L17.3604 34.7573Z" fill="#2EB1B7"/>
<path d="M19.7356 31.0955L19.2907 31.7206L15.881 29.3667L16.3642 28.6868L19.7356 31.0955Z" fill="#2EB1B7"/>
<path d="M20.5948 29.9199L20.357 30.2209L20.1345 30.5345L16.7977 28.0779L17.0394 27.7394L17.2963 27.4115L20.5948 29.9199Z" fill="#2EB1B7"/>
<path d="M21.4941 28.775L21.0204 29.3791L17.7574 26.8237L18.2733 26.1688L21.4941 28.775Z" fill="#2EB1B7"/>
<path d="M22.431 27.6599L21.9276 28.24L18.7433 25.5888L19.2889 24.9588L22.431 27.6599Z" fill="#2EB1B7"/>
<path d="M43.3283 13.4487L42.6005 13.6941L41.1871 9.79926L41.9763 9.53174L43.3283 13.4487Z" fill="#2EB1B7"/>
<path d="M44.7061 12.9817L43.9793 13.2281L42.6839 9.29201L43.474 9.02545L44.7061 12.9817Z" fill="#2EB1B7"/>
<path d="M46.1061 12.5838L45.3678 12.7928L44.1922 8.82031L44.9948 8.5921L46.1061 12.5838Z" fill="#2EB1B7"/>
<path d="M47.5127 12.2108C47.2634 12.2693 47.0122 12.3201 46.7677 12.3959L45.7139 8.3888C45.9795 8.30729 46.2527 8.25168 46.5231 8.18744L47.5127 12.2108Z" fill="#2EB1B7"/>
<path d="M48.9308 11.8829L48.1829 12.0555L47.2509 8.0187L48.063 7.83173L48.9308 11.8829Z" fill="#2EB1B7"/>
<path d="M50.3596 11.6058L49.603 11.74L48.7938 7.67733L49.6145 7.52966L50.3596 11.6058Z" fill="#2EB1B7"/>
<path d="M54.684 11.0122C54.429 11.0333 54.1729 11.0439 53.9198 11.0822L53.4807 6.96203C53.7558 6.92079 54.0339 6.90929 54.3101 6.88531L54.684 11.0122Z" fill="#2EB1B7"/>
<path d="M56.1367 10.901L55.3706 10.9595L55.0541 6.82873L55.8855 6.76544L56.1367 10.901Z" fill="#2EB1B7"/>
<path d="M57.5913 10.8406L56.8233 10.8598L56.6306 6.72037L57.4638 6.69928L57.5913 10.8406Z" fill="#2EB1B7"/>
<path d="M26.4754 23.4735L25.9192 24.0038L23.0753 20.991L23.6784 20.4167L26.4754 23.4735Z" fill="#2EB1B7"/>
<path d="M27.5714 22.5147L26.9904 23.0181L24.2375 19.921L24.8675 19.3754L27.5714 22.5147Z" fill="#2EB1B7"/>
<path d="M28.6952 21.5692L28.3932 21.8061C28.2925 21.8857 28.1985 21.9729 28.1007 22.0554L25.4418 18.8768C25.5473 18.7866 25.6499 18.6927 25.7592 18.6064L26.0871 18.3484L28.6952 21.5692Z" fill="#2EB1B7"/>
<path d="M29.84 20.6698L29.2359 21.1445L26.6739 17.8882L27.3297 17.3733L29.84 20.6698Z" fill="#2EB1B7"/>
<path d="M31.0146 19.8097L30.3885 20.2546L27.9252 16.9226L28.604 16.4393L31.0146 19.8097Z" fill="#2EB1B7"/>
<path d="M32.2055 18.9717C32.0962 19.0388 31.9917 19.1127 31.8882 19.1875L31.5756 19.4099L29.213 16.006L29.5524 15.7643C29.6655 15.6828 29.7787 15.6033 29.8966 15.5294L32.2055 18.9717Z" fill="#2EB1B7"/>
<path d="M33.431 18.1864L32.7847 18.6016L30.5256 15.1276L31.2275 14.6779L33.431 18.1864Z" fill="#2EB1B7"/>
<path d="M34.6755 17.4317L34.0101 17.8153L31.8565 14.2752L32.5785 13.8581L34.6755 17.4317Z" fill="#2EB1B7"/>
<path d="M35.9375 16.7059L35.272 17.0885L33.2258 13.4851L33.9488 13.0699L35.9375 16.7059Z" fill="#2EB1B7"/>
<path d="M37.2299 16.0366L36.5463 16.3866L34.6104 12.7228L35.3525 12.3431L37.2299 16.0366Z" fill="#2EB1B7"/>
<path d="M38.534 15.3913L38.184 15.5495C38.068 15.6032 37.9558 15.6655 37.8417 15.7231L36.017 12.0027C36.1416 11.9404 36.2634 11.8742 36.389 11.8148L36.7687 11.6431L38.534 15.3913Z" fill="#2EB1B7"/>
<path d="M39.8611 14.792L39.1611 15.1084L37.4496 11.3353L38.21 10.9921L39.8611 14.792Z" fill="#2EB1B7"/>
<path d="M17.2757 47.0596L13.5237 45.9493L13.5441 45.8802C13.5684 45.7956 13.5927 45.7111 13.616 45.6255C13.6588 45.4719 13.7036 45.3124 13.7541 45.1569L14.4765 43.0208L15.3039 40.9207C15.3671 40.7681 15.4352 40.6193 15.5032 40.4696C15.5392 40.3899 15.5752 40.3111 15.6111 40.2314L16.2305 38.8624C16.3724 38.5649 16.5251 38.2684 16.6728 37.9825C16.7526 37.8279 16.8323 37.6743 16.9101 37.5197C17.2338 36.8547 17.6101 36.2043 17.9747 35.5752C18.1069 35.3467 18.2392 35.1192 18.3685 34.8898C18.4667 34.7118 18.5775 34.5388 18.6854 34.3706L19.5751 32.9822C19.5994 32.9443 19.6237 32.9073 19.647 32.8704C19.6908 32.8013 19.7345 32.7323 19.7821 32.6652L21.0889 30.8296L22.4831 29.0562C22.5356 28.992 22.5891 28.9308 22.6425 28.8695L23.713 27.6338C23.9386 27.3625 24.1865 27.1039 24.4267 26.854C24.5297 26.7461 24.6337 26.6391 24.7349 26.5302L25.3678 25.8671C25.501 25.7271 25.6381 25.5823 25.7839 25.4491L25.8355 25.4024L28.587 28.1841L28.5316 28.2346C28.4013 28.3532 28.2768 28.4845 28.1563 28.6119L27.5719 29.2253C27.4757 29.3284 27.3775 29.4305 27.2783 29.5326C27.0615 29.7582 26.8369 29.9915 26.6347 30.2365L25.6468 31.377C25.5982 31.4324 25.5496 31.4878 25.5029 31.5452L24.2215 33.1757L23.0208 34.8645C22.979 34.9238 22.9401 34.986 22.9002 35.0473C22.8778 35.0823 22.8564 35.1173 22.8331 35.1513L22.0106 36.4337C21.9134 36.5844 21.8122 36.741 21.7257 36.8994C21.5974 37.1269 21.4661 37.3525 21.3358 37.5781C21.0101 38.14 20.6737 38.7215 20.3859 39.3155C20.3101 39.4662 20.2333 39.615 20.1565 39.7647C20.0242 40.0204 19.8872 40.2858 19.7617 40.5493L19.193 41.8084C19.1599 41.8833 19.1249 41.9591 19.0909 42.0349C19.0296 42.1691 18.9684 42.3023 18.912 42.4384L18.1517 44.3674L17.4876 46.3294C17.4429 46.4685 17.402 46.6133 17.3632 46.7524C17.3408 46.8321 17.3194 46.9108 17.2961 46.9906L17.2757 47.0596ZM13.7026 45.852L17.1784 46.8807C17.194 46.8253 17.2095 46.7699 17.2251 46.7144C17.264 46.5735 17.3048 46.4267 17.3515 46.2847L18.0165 44.3188L18.7788 42.385C18.8361 42.2469 18.8984 42.1108 18.9596 41.9756C18.9936 41.9008 19.0277 41.8259 19.0617 41.7501L19.6314 40.489C19.7588 40.2217 19.8959 39.9553 20.0291 39.6986C20.1059 39.5498 20.1827 39.402 20.2576 39.2523C20.5463 38.6544 20.8847 38.071 21.2114 37.5061C21.3417 37.2815 21.4719 37.056 21.6003 36.8294C21.6888 36.6661 21.7908 36.5086 21.89 36.355L22.7126 35.0725C22.7349 35.0375 22.7573 35.0035 22.7787 34.9695C22.8195 34.9053 22.8594 34.8421 22.9031 34.7799L24.1068 33.0882L25.3911 31.4538C25.4398 31.3945 25.4893 31.3381 25.5389 31.2817L26.5258 30.1432C26.7299 29.8952 26.9565 29.66 27.1762 29.4324C27.2744 29.3313 27.3716 29.2292 27.4689 29.1262L28.0532 28.5127C28.1582 28.4018 28.2671 28.2871 28.3809 28.1792L25.8316 25.6027C25.7081 25.7203 25.5885 25.8448 25.4728 25.9673L24.8399 26.6304C24.7378 26.7393 24.6337 26.8472 24.5307 26.9551C24.2925 27.203 24.0465 27.4597 23.8229 27.7281L22.7514 28.9658C22.6989 29.026 22.6464 29.0863 22.5959 29.1476L21.2055 30.9171L19.9017 32.7498C19.856 32.8149 19.8133 32.882 19.7715 32.9491C19.7471 32.987 19.7228 33.025 19.6985 33.0629L18.8089 34.4503C18.702 34.6156 18.5921 34.7867 18.4968 34.9617C18.3665 35.1921 18.2343 35.4206 18.1011 35.6491C17.7384 36.2752 17.3632 36.9237 17.0413 37.5849C16.9626 37.7414 16.8829 37.896 16.8031 38.0506C16.6563 38.3355 16.5037 38.631 16.3637 38.9247L15.7453 40.2926C15.7103 40.3724 15.6734 40.4521 15.6374 40.5318C15.5703 40.6796 15.5032 40.8274 15.441 40.9771L14.6146 43.0723L13.8931 45.2035C13.8436 45.3552 13.7998 45.5137 13.757 45.6663C13.7376 45.7276 13.7201 45.7898 13.7026 45.852Z" fill="#2EB1B7"/>
<path d="M33.4328 24.0509L31.1198 20.895L31.1781 20.8522C34.5489 18.4031 38.0802 16.4449 41.6737 15.0312C41.8331 14.969 41.9916 14.9068 42.1501 14.8436C42.4525 14.724 42.7646 14.5996 43.0747 14.4848L45.2118 13.7615L47.3828 13.1451C47.7037 13.0644 48.0303 12.9895 48.3454 12.9175C48.5136 12.8787 48.6808 12.8407 48.849 12.8009C48.9491 12.7785 49.0493 12.7552 49.1485 12.7318C49.5315 12.6424 49.9272 12.551 50.3229 12.4878L52.1702 12.1592L53.3622 12.0065L53.861 15.8878L52.7604 16.0268L51.0619 16.3302C50.705 16.3856 50.3482 16.4692 50.0031 16.5499C49.9058 16.5723 49.8096 16.5956 49.7124 16.617C49.5471 16.6559 49.3818 16.6938 49.2155 16.7317C48.9365 16.7949 48.6487 16.861 48.3668 16.932L46.3726 17.4979L44.4106 18.1619C44.1403 18.2631 43.87 18.37 43.5988 18.4779C43.4413 18.5401 43.2837 18.6033 43.1253 18.6646C39.8371 19.9558 36.5946 21.7535 33.4892 24.0091L33.4328 24.0509ZM31.321 20.9261L33.4639 23.8497C36.5615 21.6076 39.7943 19.8177 43.0737 18.5295C43.2322 18.4682 43.3888 18.406 43.5463 18.3428C43.8175 18.2349 44.0888 18.1269 44.363 18.0248L46.3308 17.3588L48.3298 16.791C48.6147 16.7191 48.9044 16.653 49.1835 16.5898C49.3487 16.5519 49.514 16.514 49.6793 16.4751C49.7765 16.4527 49.8728 16.4303 49.97 16.408C50.3181 16.3263 50.6768 16.2427 51.0376 16.1873L52.7381 15.8839L53.6996 15.7624L53.2378 12.167L52.1916 12.3002L50.3463 12.6288C49.9535 12.691 49.5607 12.7824 49.1805 12.8709C49.0804 12.8942 48.9812 12.9175 48.8811 12.9399C48.7138 12.9788 48.5456 13.0177 48.3774 13.0566C48.0634 13.1285 47.7377 13.2034 47.4198 13.2831L45.2536 13.8986L43.1224 14.62C42.8161 14.7337 42.504 14.8582 42.2026 14.9768C42.0441 15.04 41.8847 15.1022 41.7262 15.1644C38.1648 16.5665 34.6646 18.5042 31.321 20.9261Z" fill="#2EB1B7"/>
<path d="M81.4228 21.418L81.3605 21.3811C79.661 20.3719 77.908 19.5717 76.4185 18.9222L75.1341 18.4167C75.0573 18.3875 74.9805 18.3564 74.9037 18.3253C74.7666 18.2708 74.6305 18.2164 74.4915 18.1668L72.5275 17.5018L71.2004 17.1255C67.7829 16.1561 64.1135 15.6243 60.2945 15.5456L60.2225 15.5436L60.2964 11.6312L60.3684 11.6332C64.5151 11.7187 68.5111 12.2972 72.2446 13.3551L73.6894 13.7663L75.8274 14.4897C75.982 14.5451 76.1336 14.6054 76.2853 14.6657C76.367 14.6977 76.4487 14.7308 76.5303 14.7619L77.9284 15.3132C79.4393 15.9695 81.414 16.8669 83.3148 17.9918L83.376 18.0278L81.4228 21.418ZM60.3684 15.4017C64.1738 15.4863 67.8305 16.0191 71.2383 16.9855L72.5693 17.3637L74.5382 18.0297C74.6791 18.0803 74.8182 18.1357 74.9562 18.1911C75.033 18.2212 75.1089 18.2523 75.1857 18.2815L76.473 18.789C77.9508 19.4336 79.6843 20.2251 81.3712 21.2197L83.1816 18.0793C81.3071 16.9748 79.3625 16.0929 77.875 15.4454L76.4798 14.8951C76.3981 14.864 76.3164 14.8309 76.2338 14.7989C76.0841 14.7396 75.9333 14.6793 75.7817 14.6248L73.6476 13.9034L72.2057 13.4931C68.5053 12.445 64.5472 11.8685 60.4384 11.779L60.3684 15.4017Z" fill="#2EB1B7"/>
<path d="M101.996 48.4023L101.598 47.0042C101.576 46.9254 101.554 46.8467 101.531 46.7669C101.491 46.625 101.451 46.4821 101.407 46.342L100.743 44.3781L99.9833 42.451C99.9279 42.3159 99.8657 42.1798 99.8054 42.0476C99.7714 41.9727 99.7364 41.8978 99.7033 41.822L99.1345 40.5619C99.0101 40.2985 98.873 40.033 98.7398 39.7764C98.663 39.6276 98.5862 39.4798 98.5113 39.3301C98.4646 39.2387 98.417 39.1473 98.3703 39.0549C98.2109 38.7419 98.0466 38.4191 97.8628 38.1147L97.1725 36.914C97.0782 36.7419 96.9703 36.5737 96.8653 36.4123L96.0641 35.163C96.0417 35.1289 96.0194 35.0929 95.997 35.0579C95.9581 34.9967 95.9192 34.9345 95.8774 34.8742L94.6747 33.1834L93.3943 31.5539C93.3486 31.4975 93.3009 31.4421 93.2523 31.3877C93.2251 31.3565 93.1979 31.3254 93.1706 31.2933C93.0277 31.129 92.8838 30.9637 92.7419 30.7975C92.2908 30.2744 91.8241 29.7329 91.3292 29.236L91.2776 29.1835L94.1157 26.4904L94.1653 26.5399C94.7204 27.1 95.2435 27.7057 95.7481 28.292C95.8891 28.4553 96.0301 28.6186 96.1711 28.781C96.1993 28.815 96.2284 28.8471 96.2566 28.8802C96.3111 28.9424 96.3645 29.0046 96.417 29.0688L97.8093 30.8412L99.117 32.6798C99.1637 32.7479 99.2074 32.8169 99.2512 32.8859L100.189 34.3482C100.305 34.5281 100.425 34.7138 100.53 34.9063L101.278 36.2072C101.483 36.5455 101.664 36.9043 101.841 37.2504C101.89 37.3457 101.939 37.441 101.987 37.5353C102.065 37.6899 102.144 37.8435 102.223 37.9961C102.371 38.283 102.525 38.5805 102.666 38.878L103.286 40.2479C103.322 40.3296 103.359 40.4103 103.396 40.491C103.462 40.6358 103.53 40.7856 103.592 40.9363L104.419 43.0344L105.142 45.1724C105.192 45.3299 105.236 45.4874 105.28 45.6449C105.304 45.7295 105.328 45.8131 105.352 45.8968L105.783 47.4135L101.996 48.4023ZM91.4828 29.1874C91.9621 29.6735 92.4142 30.1976 92.8508 30.7042C92.9937 30.8694 93.1366 31.0347 93.2795 31.2C93.3068 31.2321 93.334 31.2622 93.3602 31.2933C93.4098 31.3497 93.4594 31.4061 93.5061 31.4654L94.7885 33.0979L95.9931 34.7925C96.0359 34.8547 96.0768 34.9179 96.1166 34.9811C96.139 35.0161 96.1604 35.0511 96.1837 35.0852L96.9849 36.3345C97.0908 36.4988 97.2007 36.668 97.296 36.844L97.9843 38.0418C98.17 38.3491 98.3363 38.6748 98.4967 38.9898C98.5434 39.0812 98.5901 39.1735 98.6377 39.2649C98.7126 39.4147 98.7894 39.5625 98.8662 39.7102C98.9994 39.9679 99.1374 40.2343 99.2638 40.5017L99.8336 41.7637C99.8666 41.8395 99.9007 41.9134 99.9357 41.9883C99.9969 42.1215 100.06 42.2595 100.117 42.3976L100.877 44.3285L101.543 46.2973C101.589 46.4412 101.628 46.5851 101.669 46.729C101.692 46.8078 101.713 46.8865 101.736 46.9653L102.095 48.2282L105.602 47.3114L105.212 45.9366C105.188 45.853 105.164 45.7684 105.14 45.6838C105.096 45.5283 105.053 45.3717 105.003 45.2171L104.281 43.084L103.456 40.9907C103.396 40.8439 103.328 40.6951 103.263 40.5512C103.226 40.4696 103.189 40.3889 103.153 40.3072L102.534 38.9392C102.395 38.6446 102.242 38.3491 102.094 38.0632C102.014 37.9096 101.936 37.756 101.858 37.6014C101.809 37.5071 101.761 37.4118 101.712 37.3165C101.537 36.9723 101.355 36.6165 101.153 36.2811L100.403 34.9782C100.299 34.7896 100.182 34.6058 100.067 34.4279L99.1287 32.9656C99.0859 32.8986 99.0431 32.8305 98.9974 32.7644L97.6927 30.9297L96.3033 29.1612C96.2537 29.0989 96.2002 29.0387 96.1477 28.9774C96.1186 28.9444 96.0894 28.9113 96.0612 28.8773C95.9202 28.7149 95.7792 28.5516 95.6383 28.3882C95.1502 27.8214 94.6456 27.2361 94.1118 26.6945L91.4828 29.1874Z" fill="#2EB1B7"/>
<path d="M103.619 77.9591L100.008 76.4531L100.54 75.1007C100.57 75.0239 100.6 74.947 100.631 74.8702C100.685 74.7361 100.741 74.598 100.785 74.459L101.007 73.8027C101.062 73.6384 101.118 73.4741 101.173 73.3107C101.266 73.0385 101.359 72.7663 101.448 72.493L102.013 70.4999L102.48 68.4825C102.54 68.1976 102.592 67.903 102.641 67.6181C102.671 67.4538 102.699 67.2885 102.73 67.1242C102.752 66.9891 102.778 66.8529 102.803 66.7168C102.86 66.4057 102.92 66.0839 102.952 65.765C102.977 65.555 103.004 65.3469 103.031 65.1388C103.121 64.4456 103.214 63.7281 103.251 63.0183C103.263 62.8501 103.276 62.6829 103.289 62.5157C103.311 62.2279 103.336 61.9304 103.35 61.6377L103.403 59.5639C103.405 59.418 103.4 59.2703 103.396 59.1225C103.393 59.0398 103.391 58.9572 103.389 58.8745L103.354 57.491C103.353 57.2752 103.336 57.0574 103.319 56.8464L103.202 55.2937C103.188 55.1119 103.174 54.9233 103.147 54.7405L103.135 54.6666L107.026 54.2495L107.036 54.3175C107.066 54.5237 107.082 54.7337 107.097 54.9369L107.225 56.6121C107.243 56.8445 107.262 57.0836 107.264 57.3218L107.302 58.8211C107.304 58.9086 107.305 58.9961 107.308 59.0826C107.313 59.243 107.318 59.4093 107.316 59.5736L107.26 61.8254C107.242 62.1559 107.216 62.4894 107.191 62.8112C107.177 62.9824 107.164 63.1544 107.152 63.3256C107.108 64.1219 107.004 64.9249 106.904 65.7028C106.878 65.9069 106.851 66.1111 106.826 66.3143C106.789 66.6682 106.724 67.0241 106.662 67.3682C106.636 67.5121 106.609 67.656 106.585 67.7999C106.553 67.972 106.523 68.1431 106.493 68.3143C106.437 68.6312 106.379 68.9589 106.312 69.2807L105.802 71.478L105.186 73.6491C105.083 73.968 104.976 74.284 104.869 74.599C104.815 74.7584 104.761 74.9169 104.708 75.0764L104.466 75.788C104.416 75.9446 104.354 76.0992 104.294 76.2479C104.262 76.3286 104.229 76.4103 104.198 76.492L103.619 77.9591ZM100.193 76.3743L103.539 77.7695L104.063 76.4404C104.094 76.3588 104.127 76.2771 104.159 76.1954C104.219 76.0476 104.28 75.896 104.328 75.7433L104.569 75.0307C104.623 74.8712 104.677 74.7118 104.731 74.5523C104.838 74.2373 104.945 73.9233 105.047 73.6063L105.661 71.4411L106.169 69.2486C106.236 68.9316 106.293 68.605 106.349 68.289C106.379 68.1169 106.409 67.9458 106.441 67.7746C106.465 67.6308 106.492 67.4869 106.518 67.342C106.58 67.0007 106.644 66.6478 106.681 66.2978C106.707 66.0926 106.733 65.8885 106.76 65.6843C106.86 64.9094 106.964 64.1082 107.008 63.3168C107.021 63.1438 107.033 62.9717 107.047 62.8005C107.072 62.4787 107.098 62.1472 107.115 61.8195L107.171 59.5707C107.173 59.4103 107.168 59.2459 107.164 59.0865C107.162 58.999 107.159 58.9115 107.157 58.824L107.119 57.3238C107.117 57.0895 107.098 56.8522 107.081 56.6228L106.953 54.9476C106.94 54.7696 106.926 54.5869 106.903 54.407L103.3 54.7939C103.321 54.9573 103.333 55.1226 103.345 55.283L103.463 56.8347C103.481 57.0486 103.498 57.2693 103.499 57.4891L103.534 58.8716C103.536 58.9543 103.538 59.0359 103.541 59.1186C103.545 59.2654 103.55 59.4171 103.549 59.5668L103.496 61.6435C103.481 61.9401 103.457 62.2386 103.434 62.5273C103.421 62.6936 103.408 62.8608 103.396 63.0271C103.358 63.7407 103.265 64.4612 103.175 65.1573C103.148 65.3654 103.122 65.5734 103.096 65.7815C103.062 66.1043 103.003 66.429 102.945 66.7431C102.92 66.8782 102.895 67.0134 102.872 67.1495C102.841 67.3148 102.813 67.4781 102.784 67.6424C102.735 67.9283 102.683 68.2238 102.622 68.5126L102.153 70.5359L101.586 72.5349C101.496 72.812 101.403 73.0842 101.31 73.3574C101.255 73.5207 101.199 73.685 101.144 73.8494L100.923 74.5047C100.877 74.6476 100.819 74.7886 100.765 74.9247C100.734 75.0005 100.704 75.0764 100.675 75.1532L100.193 76.3743Z" fill="#2EB1B7"/>
<path d="M83.3827 100.935L81.4178 97.5512L81.481 97.5153C84.5485 95.7593 87.4983 93.5124 90.2489 90.8358L90.4997 90.5966C90.5522 90.5461 90.6028 90.4926 90.6533 90.4391C90.6815 90.409 90.7097 90.3798 90.7379 90.3497L91.7559 89.2831C91.891 89.1421 92.031 88.9953 92.1584 88.8436C92.3169 88.6579 92.4763 88.4751 92.6358 88.2914C93.0743 87.7887 93.5274 87.2676 93.9338 86.726L94.3625 86.1806C94.4092 86.1193 94.4588 86.0571 94.5074 85.9959C94.5998 85.8792 94.696 85.7596 94.7796 85.6351L95.5827 84.5054C95.6294 84.4383 95.678 84.3702 95.7266 84.3031C95.8112 84.1865 95.8987 84.0649 95.9755 83.9415L96.3489 83.3581C96.4393 83.2152 96.5307 83.0732 96.6221 82.9313C96.7776 82.6902 96.939 82.4403 97.0917 82.1914L97.1286 82.1301L100.477 84.1544L100.439 84.2166C100.267 84.4966 100.086 84.7776 99.9122 85.0489C99.8189 85.1937 99.7255 85.3386 99.6332 85.4844L99.2277 86.1164C99.1412 86.2545 99.044 86.3896 98.9506 86.5189C98.8991 86.5909 98.8476 86.6619 98.798 86.7348L97.9268 87.9598C97.8325 88.0989 97.7266 88.2321 97.6235 88.3614C97.572 88.4265 97.5195 88.4917 97.4689 88.5578L97.0042 89.1489C96.5472 89.7556 96.0397 90.338 95.5487 90.9009C95.3892 91.0837 95.2298 91.2675 95.0713 91.4512C94.9284 91.6223 94.7718 91.7867 94.6202 91.9451L93.5244 93.0944C93.4923 93.1264 93.4622 93.1595 93.4311 93.1916C93.3757 93.2499 93.3193 93.3092 93.2619 93.3656L92.9897 93.6252C90.0068 96.5303 86.7954 98.9775 83.445 100.897L83.3827 100.935ZM81.6152 97.6047L83.4352 100.739C86.7526 98.8307 89.9339 96.404 92.8895 93.5241L93.1618 93.2645C93.2182 93.2101 93.2726 93.1527 93.3271 93.0953C93.3582 93.0623 93.3893 93.0292 93.4214 92.9971L94.5161 91.8489C94.6659 91.6924 94.8205 91.53 94.9614 91.3618C95.1199 91.1761 95.2803 90.9933 95.4398 90.8095C95.9288 90.2485 96.4344 89.6681 96.8894 89.0643L97.3542 88.4732C97.4047 88.4071 97.4572 88.341 97.5097 88.2748C97.6109 88.1475 97.7149 88.0162 97.8073 87.8811L98.6784 86.656C98.728 86.5841 98.7805 86.5112 98.832 86.4392C98.9244 86.3109 99.0197 86.1786 99.1043 86.0435L99.5107 85.4106C99.603 85.2647 99.6964 85.1198 99.7907 84.974C99.9521 84.7232 100.119 84.4645 100.279 84.2059L97.1772 82.3304C97.0353 82.5599 96.8875 82.7893 96.7436 83.012C96.6522 83.1539 96.5608 83.2949 96.4704 83.4378L96.0971 84.0202C96.0173 84.1476 95.9288 84.2701 95.8433 84.3897C95.7956 84.4558 95.747 84.5229 95.7004 84.59L94.8982 85.7188C94.8127 85.8461 94.7145 85.9686 94.6202 86.0873C94.5716 86.1475 94.5229 86.2088 94.4763 86.27L94.0475 86.8145C93.6392 87.359 93.1841 87.8821 92.7437 88.3867C92.5843 88.5694 92.4248 88.7522 92.2673 88.937C92.138 89.0925 91.996 89.2403 91.8589 89.3842L90.841 90.4508C90.8128 90.4799 90.7846 90.5091 90.7574 90.5393C90.7058 90.5947 90.6533 90.6491 90.5989 90.7026L90.348 90.9418C87.6082 93.6058 84.671 95.8478 81.6152 97.6047Z" fill="#2EB1B7"/>
<path d="M59.6285 107.348C59.3135 107.348 58.9994 107.345 58.6854 107.338L57.1842 107.3C57.017 107.3 56.8468 107.286 56.6825 107.272C56.5989 107.265 56.5153 107.258 56.4317 107.253L54.5591 107.111L52.6933 106.874C52.2869 106.831 51.8786 106.758 51.4828 106.686L51.2067 106.636C51.0385 106.606 50.8713 106.576 50.7031 106.547C50.3774 106.489 50.0517 106.431 49.7279 106.368L47.5296 105.86C47.3711 105.818 47.2156 105.775 47.06 105.73C46.9745 105.706 46.8889 105.681 46.8033 105.657L46.7343 105.638L47.7649 101.863L47.8349 101.883C47.9146 101.905 47.9953 101.928 48.0751 101.951C48.216 101.992 48.358 102.031 48.4999 102.069L50.5193 102.535C50.8023 102.589 51.0891 102.64 51.3759 102.691C51.5431 102.72 51.7104 102.75 51.8776 102.78L52.1469 102.829C52.5037 102.894 52.8722 102.96 53.2378 102.998L54.9548 103.217L56.6767 103.347C56.7554 103.352 56.8342 103.359 56.9139 103.365C57.0598 103.378 57.2105 103.391 57.3582 103.391C57.3592 103.391 57.3602 103.391 57.3612 103.391L58.7476 103.426C62.3285 103.503 66.0153 103.101 69.7041 102.228L69.7741 102.211L70.6841 106.017L70.6141 106.033C66.9282 106.905 63.2375 107.348 59.6285 107.348ZM46.9113 105.537C46.9745 105.555 47.0377 105.573 47.0999 105.591C47.2545 105.635 47.4091 105.679 47.5646 105.72L49.7581 106.227C50.0789 106.289 50.4036 106.346 50.7284 106.405C50.8966 106.435 51.0648 106.464 51.232 106.494L51.5081 106.544C51.9009 106.615 52.3073 106.688 52.7098 106.73L54.5737 106.967L56.4414 107.109C56.525 107.113 56.6096 107.12 56.6932 107.128C56.8546 107.142 57.0218 107.155 57.1852 107.155L58.6873 107.193C62.5599 107.277 66.5364 106.844 70.5081 105.909L69.6652 102.383C65.9881 103.248 62.3129 103.647 58.7427 103.569L57.3582 103.534C57.2046 103.529 57.05 103.521 56.9003 103.508C56.8216 103.501 56.7438 103.495 56.665 103.49L54.9392 103.36L53.2203 103.141C52.8508 103.103 52.4794 103.035 52.1207 102.97L51.8513 102.921C51.6841 102.891 51.5169 102.861 51.3496 102.832C51.0619 102.781 50.775 102.73 50.4882 102.675L48.464 102.208C48.3191 102.17 48.1762 102.129 48.0342 102.089C47.9778 102.072 47.9214 102.057 47.8651 102.04L46.9113 105.537Z" fill="#2EB1B7"/>
<path d="M40.1871 103.312L38.752 102.662C38.4516 102.514 38.155 102.361 37.8585 102.209C37.7097 102.132 37.56 102.056 37.4103 101.98L36.7414 101.637C36.5955 101.562 36.4516 101.479 36.3136 101.398C36.2377 101.355 36.1619 101.31 36.0851 101.267L34.7823 100.518C32.7104 99.2332 31.1868 98.1763 29.8402 97.0903L29.251 96.6266C29.216 96.5984 29.181 96.5711 29.147 96.5439C29.0828 96.4934 29.0187 96.4438 28.9555 96.3903L27.2521 94.9144L25.6196 93.3578C25.5603 93.2985 25.5039 93.2392 25.4475 93.1799L25.3571 93.0846C25.2161 92.9368 25.0752 92.789 24.9342 92.6422C24.3907 92.0754 23.8297 91.4891 23.3173 90.8737L22.7184 90.1824C22.592 90.0365 22.4607 89.8858 22.3412 89.7283L21.3689 88.4916L24.4762 86.1135L25.3756 87.2578C25.4816 87.3998 25.6002 87.5349 25.7139 87.6652L26.2711 88.3079C26.727 88.8582 27.2287 89.3822 27.7149 89.8897C27.8588 90.0395 28.0017 90.1892 28.1446 90.3409L28.2302 90.4313C28.2807 90.4848 28.3303 90.5373 28.3818 90.5888L29.883 92.02L31.4493 93.3772C31.5048 93.4239 31.5621 93.4686 31.6205 93.5143C31.6535 93.5396 31.6856 93.5649 31.7177 93.5911L32.2612 94.018C33.8178 95.277 35.5037 96.3611 36.7987 97.1662L37.9956 97.8545C38.0666 97.8944 38.1375 97.9362 38.2085 97.977C38.3339 98.05 38.4632 98.1258 38.5945 98.1919L39.2109 98.5069C39.3636 98.5847 39.5152 98.6625 39.6679 98.7412C39.9255 98.8735 40.1832 99.0067 40.4428 99.135L41.766 99.7329L40.1871 103.312ZM21.5731 88.5179L22.4559 89.6418C22.5726 89.7964 22.7019 89.9452 22.8273 90.0891L23.4272 90.7813C23.9366 91.3938 24.4967 91.9782 25.0382 92.544C25.1792 92.6918 25.3202 92.8386 25.4612 92.9864L25.5525 93.0817C25.608 93.14 25.6634 93.1984 25.7208 93.2557L27.3503 94.8084L29.0498 96.2814C29.1101 96.332 29.1733 96.3815 29.2355 96.4311C29.2705 96.4584 29.3055 96.4866 29.3405 96.5138L29.9307 96.9775C31.2734 98.0616 32.792 99.1146 34.8571 100.394L36.157 101.142C36.2338 101.185 36.3107 101.229 36.3865 101.274C36.5236 101.354 36.6655 101.436 36.8075 101.509L37.4764 101.852C37.6261 101.928 37.7749 102.005 37.9246 102.082C38.2202 102.234 38.5167 102.386 38.8142 102.533L40.1142 103.121L41.5794 99.8059L40.3835 99.2662C40.121 99.136 39.8623 99.0028 39.6047 98.8705C39.453 98.7928 39.3004 98.714 39.1487 98.6362L38.5323 98.3212C38.3981 98.2532 38.2669 98.1763 38.1395 98.1015C38.0695 98.0606 37.9985 98.0198 37.9275 97.9799L36.7278 97.2906C35.4269 96.4827 33.7361 95.3947 32.1737 94.1317L31.6302 93.7049C31.5981 93.6786 31.566 93.6543 31.5339 93.6291C31.4746 93.5834 31.4153 93.5367 31.3579 93.4881L29.7887 92.1279L28.2836 90.6928C28.2302 90.6394 28.1786 90.5849 28.1271 90.5305L28.0415 90.441C27.8986 90.2903 27.7547 90.1406 27.6118 89.9899C27.1247 89.4814 26.6211 88.9544 26.1622 88.4022L25.606 87.7614C25.4903 87.6282 25.3707 87.4912 25.2618 87.3473L24.4519 86.3167L21.5731 88.5179Z" fill="#2EB1B7"/>
<path d="M17.5663 82.6795L17.3447 82.2915L16.316 80.2828C16.2791 80.2089 16.246 80.1341 16.212 80.0592C16.1945 80.0193 16.176 79.9785 16.1575 79.9386C16.0613 79.7228 15.9631 79.5079 15.8659 79.294C15.5538 78.6076 15.23 77.8979 14.9626 77.1764C14.9004 77.015 14.8362 76.8536 14.7721 76.6923C14.6525 76.3928 14.53 76.0836 14.4201 75.7744L13.9379 74.3501C13.9106 74.2664 13.8824 74.1838 13.8533 74.1012C13.8008 73.9466 13.7473 73.792 13.7006 73.6355L13.0852 71.4663C12.1042 67.588 11.5957 63.5813 11.5743 59.558V59.4861L15.4867 59.4803V59.5522C15.5081 63.2488 15.9747 66.9288 16.8741 70.4892L17.44 72.4833C17.4818 72.6233 17.5304 72.7624 17.578 72.9014C17.6052 72.9792 17.6315 73.0579 17.6577 73.1357L18.1001 74.4454C18.1973 74.7205 18.3082 74.9976 18.4151 75.2659C18.4774 75.4215 18.5396 75.5761 18.5989 75.7326C18.8351 76.3753 19.1239 77.0082 19.403 77.6208C19.5012 77.8366 19.5993 78.0515 19.6956 78.2683C19.7121 78.3052 19.7296 78.3432 19.7462 78.3811C19.7763 78.4482 19.8055 78.5143 19.8385 78.5794L20.7845 80.4257L20.9916 80.7865L17.5663 82.6795ZM11.7182 59.629C11.7454 63.6172 12.2519 67.586 13.2242 71.4284L13.8397 73.5946C13.8863 73.7482 13.9388 73.9019 13.9904 74.0545C14.0186 74.1381 14.0477 74.2208 14.0749 74.3044L14.5562 75.7268C14.6651 76.0321 14.7876 76.3403 14.9062 76.6388C14.9704 76.8011 15.0355 76.9625 15.0978 77.1249C15.3632 77.8424 15.686 78.5493 15.9971 79.2338C16.0953 79.4486 16.1925 79.6635 16.2888 79.8784C16.3073 79.9182 16.3257 79.9591 16.3432 79.9999C16.3763 80.0728 16.4084 80.1457 16.4443 80.2177L17.4711 82.2225L17.6208 82.484L20.7923 80.7301L20.6562 80.4938L19.7082 78.6436C19.6742 78.5755 19.6441 78.5075 19.613 78.4384C19.5964 78.4015 19.5799 78.3636 19.5624 78.3266C19.4661 78.1098 19.3679 77.8949 19.2697 77.6801C18.9897 77.0646 18.7 76.4297 18.4618 75.7832C18.4025 75.6286 18.3403 75.474 18.279 75.3194C18.1711 75.0501 18.0603 74.7711 17.9611 74.493L17.5177 73.1814C17.4915 73.1027 17.4652 73.0258 17.439 72.9481C17.3904 72.8071 17.3418 72.6661 17.299 72.5232L16.7321 70.5261C15.8357 66.9754 15.3681 63.3081 15.3408 59.6242L11.7182 59.629Z" fill="#2EB1B7"/>
<path d="M37.1395 102.578C42.9985 105.528 49.4603 107.262 56.0104 107.647L55.8415 110.464C48.9149 110.057 42.0712 108.222 35.8732 105.101L37.1395 102.578Z" fill="#2EB1B7"/>
<path d="M18.2972 85.8527C20.1045 88.5895 22.1889 91.1442 24.5062 93.467C26.8291 95.7844 29.3837 97.8676 32.1206 99.676L30.5628 102.03C27.6681 100.118 24.9666 97.914 22.5102 95.4631C20.0592 93.0067 17.8556 90.3051 15.9435 87.4104L18.2972 85.8527Z" fill="#2EB1B7"/>
<path d="M10.3251 61.9618C10.7104 68.5119 12.4437 74.9748 15.3937 80.8327L12.871 82.099C9.74994 75.9 7.91397 69.0573 7.50769 62.1307L10.3251 61.9618Z" fill="#2EB1B7"/>
<path d="M80.8154 15.4111C74.9564 12.4611 68.4946 10.7278 61.9445 10.3425L62.1134 7.52509C69.04 7.93247 75.8837 9.76734 82.0817 12.8884L80.8154 15.4111Z" fill="#2EB1B7"/>
<path d="M99.6586 32.1369C97.8514 29.4 95.767 26.8454 93.4496 24.5225C91.1268 22.2052 88.5721 20.1219 85.8353 18.3135L87.393 15.9598C90.2877 17.8719 92.9893 20.0755 95.4457 22.5265C97.8966 24.9829 100.1 27.6844 102.012 30.5791L99.6586 32.1369Z" fill="#2EB1B7"/>
<path d="M107.63 56.0277C107.244 49.4776 105.511 43.0147 102.561 37.1568L105.084 35.8905C108.205 42.0896 110.041 48.9322 110.447 55.8588L107.63 56.0277Z" fill="#2EB1B7"/>
<path d="M59.5739 101.631C48.3555 101.631 37.8078 97.2626 29.8753 89.3292C21.9429 81.3968 17.5743 70.8491 17.5743 59.6307C17.5743 48.4124 21.9429 37.8647 29.8753 29.9322C37.8078 21.9998 48.3555 17.6312 59.5739 17.6312C70.7922 17.6312 81.3399 21.9998 89.2724 29.9322C97.2048 37.8647 101.574 48.4124 101.574 59.6307C101.574 70.8491 97.2058 81.3968 89.2724 89.3292C81.339 97.2617 70.7922 101.631 59.5739 101.631ZM59.5739 17.7712C36.4919 17.7712 17.7143 36.5497 17.7143 59.6307C17.7143 82.7118 36.4928 101.49 59.5739 101.49C82.6549 101.49 101.433 82.7118 101.433 59.6307C101.433 36.5497 82.6549 17.7712 59.5739 17.7712Z" fill="#2EB1B7"/>
<path d="M59.1053 107.918C46.0818 107.918 33.839 102.847 24.6297 93.6376C15.4214 84.4293 10.3491 72.1856 10.3491 59.1621C10.3491 46.1387 15.4205 33.8959 24.6297 24.6866C33.8381 15.4783 46.0818 10.406 59.1053 10.406C72.1287 10.406 84.3715 15.4773 93.5808 24.6866C102.789 33.8949 107.861 46.1387 107.861 59.1621C107.861 72.1856 102.79 84.4284 93.5808 93.6376C84.3715 102.847 72.1278 107.918 59.1053 107.918ZM59.1053 10.5703C32.3106 10.5703 10.5125 32.3695 10.5125 59.1631C10.5125 85.9568 32.3116 107.756 59.1053 107.756C85.8989 107.756 107.698 85.9568 107.698 59.1631C107.698 32.3695 85.8989 10.5703 59.1053 10.5703Z" fill="#2EB1B7"/>
<path d="M59.5743 106.631C47.0207 106.631 35.2179 101.743 26.3403 92.8653C17.4637 83.9887 12.5743 72.1859 12.5743 59.6312C12.5743 47.0775 17.4627 35.2748 26.3403 26.3972C35.2169 17.5206 47.0197 12.6312 59.5743 12.6312C72.128 12.6312 83.9308 17.5196 92.8084 26.3972C101.685 35.2738 106.574 47.0766 106.574 59.6312C106.574 72.1849 101.686 83.9877 92.8084 92.8653C83.9308 101.742 72.128 106.631 59.5743 106.631ZM59.5743 16.4016C35.7372 16.4016 16.3447 35.794 16.3447 59.6312C16.3447 83.4684 35.7372 102.861 59.5743 102.861C83.4115 102.861 102.804 83.4684 102.804 59.6312C102.804 35.794 83.4105 16.4016 59.5743 16.4016Z" fill="#2EB1B7"/>
</g>
<path d="M45.6553 60.0312H40.8896L39.8193 63H38.2725L42.6162 51.625H43.9287L48.2803 63H46.7412L45.6553 60.0312ZM41.3428 58.7969H45.21L43.2725 53.4766L41.3428 58.7969ZM51.1553 63H49.71V51H51.1553V63ZM56.9834 63.1562C55.8376 63.1562 54.9053 62.7812 54.1865 62.0312C53.4678 61.276 53.1084 60.2682 53.1084 59.0078V58.7422C53.1084 57.9036 53.2672 57.1562 53.585 56.5C53.9079 55.8385 54.3558 55.3229 54.9287 54.9531C55.5068 54.5781 56.1318 54.3906 56.8037 54.3906C57.9027 54.3906 58.7568 54.7526 59.3662 55.4766C59.9756 56.2005 60.2803 57.237 60.2803 58.5859V59.1875H54.5537C54.5745 60.0208 54.8167 60.6953 55.2803 61.2109C55.749 61.7214 56.3428 61.9766 57.0615 61.9766C57.5719 61.9766 58.0042 61.8724 58.3584 61.6641C58.7126 61.4557 59.0225 61.1797 59.2881 60.8359L60.1709 61.5234C59.4626 62.612 58.4001 63.1562 56.9834 63.1562ZM56.8037 55.5781C56.2204 55.5781 55.7308 55.7917 55.335 56.2188C54.9391 56.6406 54.6943 57.2344 54.6006 58H58.835V57.8906C58.7933 57.1562 58.5954 56.5885 58.2412 56.1875C57.887 55.7812 57.4079 55.5781 56.8037 55.5781ZM66.0459 55.8438C65.8271 55.8073 65.5902 55.7891 65.335 55.7891C64.387 55.7891 63.7438 56.1927 63.4053 57V63H61.96V54.5469H63.3662L63.3896 55.5234C63.8636 54.7682 64.5355 54.3906 65.4053 54.3906C65.6865 54.3906 65.9001 54.4271 66.0459 54.5V55.8438ZM69.7334 52.5V54.5469H71.3115V55.6641H69.7334V60.9062C69.7334 61.2448 69.8037 61.5 69.9443 61.6719C70.085 61.8385 70.3245 61.9219 70.6631 61.9219C70.8297 61.9219 71.0589 61.8906 71.3506 61.8281V63C70.9704 63.1042 70.6006 63.1562 70.2412 63.1562C69.5954 63.1562 69.1084 62.9609 68.7803 62.5703C68.4521 62.1797 68.2881 61.625 68.2881 60.9062V55.6641H66.749V54.5469H68.2881V52.5H69.7334ZM77.9287 60.7578C77.9287 60.3672 77.7803 60.0651 77.4834 59.8516C77.1917 59.6328 76.6787 59.4453 75.9443 59.2891C75.2152 59.1328 74.6344 58.9453 74.2021 58.7266C73.7751 58.5078 73.4573 58.2474 73.249 57.9453C73.0459 57.6432 72.9443 57.2839 72.9443 56.8672C72.9443 56.1745 73.236 55.5885 73.8193 55.1094C74.4079 54.6302 75.1579 54.3906 76.0693 54.3906C77.0277 54.3906 77.8037 54.638 78.3975 55.1328C78.9964 55.6276 79.2959 56.2604 79.2959 57.0312H77.8428C77.8428 56.6354 77.6735 56.2943 77.335 56.0078C77.0016 55.7214 76.5797 55.5781 76.0693 55.5781C75.5433 55.5781 75.1318 55.6927 74.835 55.9219C74.5381 56.151 74.3896 56.4505 74.3896 56.8203C74.3896 57.1693 74.5277 57.4323 74.8037 57.6094C75.0797 57.7865 75.5771 57.9557 76.2959 58.1172C77.0198 58.2786 77.6058 58.4714 78.0537 58.6953C78.5016 58.9193 78.8323 59.1901 79.0459 59.5078C79.2646 59.8203 79.374 60.2031 79.374 60.6562C79.374 61.4115 79.0719 62.0182 78.4678 62.4766C77.8636 62.9297 77.0797 63.1562 76.1162 63.1562C75.4391 63.1562 74.8402 63.0365 74.3193 62.7969C73.7985 62.5573 73.3896 62.224 73.0928 61.7969C72.8011 61.3646 72.6553 60.8984 72.6553 60.3984H74.1006C74.1266 60.8828 74.3193 61.2682 74.6787 61.5547C75.0433 61.8359 75.5225 61.9766 76.1162 61.9766C76.6631 61.9766 77.1006 61.8672 77.4287 61.6484C77.762 61.4245 77.9287 61.1276 77.9287 60.7578Z" fill="#9D9D9D"/>
<defs>
<linearGradient id="paint0_linear_29:1314" x1="40" y1="0" x2="40" y2="80" gradientUnits="userSpaceOnUse">
<stop stop-color="#155555"/>
<stop offset="1" stop-opacity="0"/>
</linearGradient>
</defs>
</svg>
