<svg width="28" height="28" viewBox="0 0 28 28" fill="none" xmlns="http://www.w3.org/2000/svg">
<path fill-rule="evenodd" clip-rule="evenodd" d="M14.8273 4.6C14.8273 4.26863 14.5587 4 14.2273 4C13.8959 4 13.6273 4.26863 13.6273 4.6V12.9152C13.6273 13.2466 13.8959 13.5152 14.2273 13.5152C14.5587 13.5152 14.8273 13.2466 14.8273 12.9152V4.6ZM9.30354 5.75898C9.58127 5.57822 9.65989 5.20655 9.47913 4.92882C9.29838 4.65108 8.9267 4.57247 8.64897 4.75322C6.80101 5.95592 5.39116 7.72358 4.62955 9.79274C3.86795 11.8619 3.79537 14.1218 4.42264 16.2355C5.04991 18.3493 6.34343 20.2038 8.11041 21.5226C9.8774 22.8414 12.0232 23.5539 14.2281 23.5539C16.433 23.5539 18.5788 22.8414 20.3458 21.5226C22.1128 20.2038 23.4064 18.3493 24.0336 16.2356C24.6609 14.1218 24.5883 11.8619 23.8267 9.79278C23.0651 7.72362 21.6553 5.95595 19.8073 4.75325C19.5296 4.57249 19.1579 4.65111 18.9772 4.92884C18.7964 5.20657 18.875 5.57824 19.1528 5.759C20.7839 6.8206 22.0284 8.38087 22.7006 10.2073C23.3728 12.0337 23.4369 14.0284 22.8832 15.8942C22.3295 17.7599 21.1878 19.3968 19.6281 20.5609C18.0684 21.725 16.1743 22.3539 14.2281 22.3539C12.2819 22.3539 10.3878 21.725 8.82817 20.5609C7.26849 19.3968 6.12673 17.7599 5.57305 15.8941C5.01938 14.0284 5.08344 12.0336 5.75569 10.2072C6.42794 8.38084 7.67238 6.82057 9.30354 5.75898Z" fill="white"/>
</svg>
