<svg width="28" height="28" viewBox="0 0 28 28" fill="none" xmlns="http://www.w3.org/2000/svg">
<path fill-rule="evenodd" clip-rule="evenodd" d="M12.6758 25C12.588 24.9999 12.5028 24.9706 12.4336 24.9166C12.3644 24.8627 12.3151 24.7872 12.2936 24.7021L11.6142 21.9854C11.0757 21.8175 10.5549 21.5968 10.0597 21.3266L7.64385 22.777C7.56846 22.8219 7.48031 22.8405 7.39321 22.8299C7.30611 22.8193 7.225 22.78 7.16261 22.7183L5.28524 20.8409C5.2232 20.7787 5.18373 20.6976 5.1731 20.6104C5.16246 20.5232 5.18129 20.4349 5.22656 20.3597L6.67693 17.9467C6.40952 17.4522 6.19299 16.9318 6.03062 16.3935L3.29931 15.7098C3.21415 15.6884 3.13851 15.6394 3.08432 15.5703C3.03012 15.5012 3.00046 15.4161 3 15.3283V12.6761C3 12.4942 3.12471 12.3364 3.29931 12.2939L6.01448 11.616C6.18101 11.0812 6.40256 10.5603 6.67474 10.0585L5.22437 7.64255C5.1791 7.567 5.1603 7.47853 5.17092 7.39111C5.18155 7.30368 5.221 7.2223 5.28305 7.1598L7.15746 5.28533C7.2194 5.22236 7.30089 5.18227 7.38857 5.17161C7.47626 5.16095 7.56497 5.18035 7.6402 5.22663L10.056 6.67559C10.5505 6.40962 11.0703 6.19359 11.6076 6.03071L12.2899 3.29933C12.3113 3.21405 12.3605 3.13831 12.4297 3.08411C12.4989 3.0299 12.5842 3.0003 12.6721 3H15.3242C15.5047 3 15.6639 3.12326 15.7064 3.29933L16.3858 6.01751C16.9235 6.18567 17.4436 6.40557 17.9388 6.67412L20.3576 5.22223C20.4335 5.17874 20.5215 5.16108 20.6083 5.17193C20.6951 5.18278 20.776 5.22154 20.8389 5.28238L22.7133 7.15687C22.7759 7.21899 22.8159 7.30032 22.8268 7.38785C22.8377 7.47537 22.8189 7.56403 22.7734 7.63961L21.3231 10.0585C21.5894 10.5544 21.8058 11.0746 21.9664 11.6057L24.7007 12.291C24.8767 12.3342 25 12.4927 25 12.6732V15.3224C25.0001 15.4104 24.9706 15.4959 24.9164 15.5652C24.8621 15.6345 24.7861 15.6836 24.7007 15.7046L21.9664 16.3899C21.8058 16.9254 21.5894 17.4456 21.3245 17.9386L22.7764 20.356C22.8218 20.4316 22.8406 20.5202 22.8297 20.6078C22.8188 20.6953 22.7788 20.7766 22.7162 20.8387L20.8418 22.7161C20.7792 22.7774 20.6982 22.8165 20.6113 22.8273C20.5244 22.8382 20.4363 22.8203 20.3605 22.7763L17.9418 21.3244C17.4429 21.5966 16.9213 21.816 16.3872 21.9832L15.7108 24.6999C15.689 24.7851 15.6395 24.8606 15.57 24.9146C15.5005 24.9685 15.4151 24.9978 15.3271 24.9978L12.6758 25ZM10.0524 20.4748C10.1199 20.4748 10.1888 20.4917 10.2504 20.5277C10.8293 20.8615 11.4352 21.1182 12.05 21.2885C12.1171 21.308 12.1779 21.3448 12.2264 21.3951C12.2749 21.4454 12.3095 21.5076 12.3266 21.5753L12.9854 24.2106L15.0197 24.2091L15.6771 21.5724C15.694 21.5051 15.7284 21.4435 15.7767 21.3937C15.825 21.3438 15.8855 21.3075 15.9522 21.2885C16.5817 21.111 17.1863 20.8549 17.7518 20.5262C17.8765 20.4528 18.0284 20.4558 18.1516 20.5291L20.5014 21.9407L21.9415 20.4976L20.53 18.1506C20.4936 18.0902 20.474 18.0211 20.4732 17.9506C20.4724 17.88 20.4905 17.8106 20.5256 17.7493C20.8506 17.1859 21.1 16.5857 21.2695 15.9599C21.2878 15.8921 21.3239 15.8304 21.3741 15.7813C21.4243 15.7321 21.4867 15.6973 21.5549 15.6804L24.2113 15.0143V12.9813L21.5549 12.3166C21.4867 12.2996 21.4244 12.2648 21.3742 12.2156C21.3241 12.1665 21.2879 12.1049 21.2695 12.0371C21.0993 11.4107 20.8493 10.8089 20.5256 10.2463C20.491 10.1852 20.4731 10.116 20.4739 10.0458C20.4747 9.97552 20.494 9.90675 20.53 9.84643L21.9386 7.49801L20.4999 6.05932L18.1501 7.4694C18.0901 7.50636 18.0211 7.52618 17.9506 7.52669C17.8801 7.52721 17.8108 7.50841 17.7503 7.47233C17.1842 7.14523 16.5798 6.88968 15.9507 6.71155C15.8838 6.69293 15.823 6.65681 15.7746 6.60691C15.7263 6.55701 15.6921 6.49512 15.6756 6.42762L15.0168 3.78941H12.9825L12.3193 6.44302C12.3021 6.51109 12.2672 6.57339 12.2181 6.62353C12.169 6.67368 12.1074 6.70987 12.0397 6.72842C11.4162 6.89716 10.8131 7.14807 10.246 7.47381C10.1854 7.50982 10.116 7.52846 10.0455 7.52768C9.97499 7.5269 9.90603 7.50674 9.8462 7.4694L7.49933 6.06079L6.06069 7.50095L7.46926 9.84643C7.50574 9.9069 7.52525 9.97607 7.52577 10.0467C7.52629 10.1173 7.50778 10.1867 7.47219 10.2477C7.14417 10.8146 6.88812 11.4201 6.70995 12.0503C6.6911 12.1175 6.65475 12.1786 6.60462 12.2272C6.55448 12.2757 6.49235 12.3102 6.42457 12.3269L3.78937 12.9843V15.0187L6.4429 15.6834C6.51104 15.7004 6.57341 15.7352 6.62358 15.7844C6.67375 15.8335 6.70989 15.8951 6.72829 15.9629C6.89703 16.585 7.14646 17.1881 7.47513 17.7552C7.51049 17.8163 7.52874 17.8858 7.52796 17.9565C7.52719 18.0271 7.50741 18.0962 7.47072 18.1565L6.06217 20.5005L7.50226 21.9421L9.84914 20.5321C9.91039 20.4948 9.98067 20.475 10.0524 20.4748ZM14.0029 11.7429C13.4047 11.7437 12.8311 11.9817 12.4081 12.4048C11.9851 12.8278 11.7471 13.4014 11.7463 13.9996C11.7471 14.5979 11.9851 15.1715 12.4081 15.5945C12.8311 16.0176 13.4047 16.2556 14.0029 16.2563C14.6007 16.255 15.1736 16.0167 15.5961 15.5937C16.0185 15.1707 16.2561 14.5975 16.2566 13.9996C16.2561 13.4018 16.0185 12.8286 15.5961 12.4056C15.1736 11.9826 14.6007 11.7443 14.0029 11.7429ZM14.0029 17.0465C13.1953 17.0457 12.421 16.7245 11.8499 16.1534C11.2789 15.5824 10.9577 14.808 10.9569 14.0004C10.9577 13.1927 11.2789 12.4184 11.8499 11.8473C12.421 11.2762 13.1953 10.955 14.0029 10.9542C14.8101 10.9554 15.5839 11.2768 16.1545 11.8479C16.725 12.419 17.0456 13.1931 17.046 14.0004C17.0456 14.8076 16.725 15.5817 16.1545 16.1528C15.5839 16.7239 14.8101 17.0453 14.0029 17.0465Z" fill="white"/>
</svg>
