<svg width="165" height="163" viewBox="0 0 165 163" fill="none" xmlns="http://www.w3.org/2000/svg">
<g clip-path="url(#clip0_29:3099)">
<circle r="56.3413" transform="matrix(1 0 0 -1 84.4402 84.5208)" fill="url(#paint0_linear_29:3099)" stroke="#2EB1B7" stroke-width="0.708696"/>
<path d="M87.101 15.4877L85.8262 15.4564L86.0124 9.39905L87.3823 9.43439L87.101 15.4877ZM86.0192 15.2743L86.9216 15.2961L87.1852 9.6165L86.1931 9.59068L86.0192 15.2743Z" fill="#2EB1B7"/>
<path d="M89.1573 15.6345L87.8866 15.538L88.2535 9.48874L89.6194 9.59203L89.1573 15.6345ZM88.085 15.3654L88.9847 15.4347L89.4183 9.76599L88.4289 9.69124L88.085 15.3654Z" fill="#2EB1B7"/>
<path d="M91.2094 15.8152L91.1129 15.8003C90.8601 15.7622 90.5978 15.7432 90.345 15.7255C90.2418 15.7187 90.1385 15.7106 90.0352 15.7024L89.9414 15.6943L90.4891 9.6586L90.5815 9.66675C90.6916 9.67627 90.8003 9.68442 90.9104 9.69258C91.1904 9.71296 91.4785 9.73471 91.7626 9.77684L91.8509 9.79043L91.2094 15.8152ZM90.1453 15.523C90.2159 15.5284 90.288 15.5339 90.3586 15.5393C90.5843 15.5556 90.8153 15.5719 91.045 15.6018L91.647 9.94808C91.3983 9.91547 91.1442 9.89644 90.8968 9.87877C90.8166 9.87333 90.7378 9.86654 90.6576 9.8611L90.1453 15.523Z" fill="#2EB1B7"/>
<path d="M93.2549 16.0721L91.991 15.9117L92.7194 9.8951L94.0785 10.0677L93.2549 16.0721ZM92.1989 15.75L93.0945 15.8641L93.8665 10.2308L92.8812 10.1058L92.1989 15.75Z" fill="#2EB1B7"/>
<path d="M95.2907 16.3874L95.1983 16.3711C95.0705 16.3493 94.9414 16.3249 94.8137 16.3018C94.5853 16.2596 94.357 16.2189 94.1273 16.1822L94.0349 16.1672L94.9441 10.1751L95.0365 10.19C95.2907 10.2294 95.5448 10.2756 95.7976 10.3218C95.9322 10.3463 96.0667 10.3708 96.2013 10.3939L96.2937 10.4102L95.2907 16.3874ZM94.2483 16.0123C94.4481 16.0449 94.6479 16.0816 94.8463 16.1169C94.9428 16.1346 95.0393 16.1523 95.1371 16.1686L96.0789 10.561C95.9743 10.542 95.8697 10.5243 95.765 10.5053C95.5435 10.4659 95.322 10.4251 95.1004 10.3898L94.2483 16.0123Z" fill="#2EB1B7"/>
<path d="M97.3185 16.7489L96.0641 16.526L97.1527 10.5638L98.5023 10.8057L97.3185 16.7489ZM96.2829 16.3738L97.1717 16.5315L98.2821 10.9552L97.3049 10.7799L96.2829 16.3738Z" fill="#2EB1B7"/>
<path d="M99.3286 17.2001L98.0878 16.9134L99.3571 10.9878L100.693 11.2963L99.3286 17.2001ZM98.3093 16.772L99.1886 16.9759L100.468 11.4363L99.4998 11.2134L98.3093 16.772Z" fill="#2EB1B7"/>
<path d="M101.329 17.688L101.235 17.6595C100.976 17.5793 100.705 17.5181 100.443 17.4583C100.357 17.4393 100.272 17.4189 100.186 17.3999L100.094 17.3782L101.541 11.4934L101.631 11.5151C101.721 11.5369 101.812 11.5572 101.901 11.5776C102.191 11.6442 102.491 11.7122 102.783 11.8019L102.869 11.8277L101.329 17.688ZM100.322 17.2368C100.376 17.249 100.431 17.2613 100.485 17.2735C100.72 17.3265 100.961 17.3822 101.197 17.4502L102.643 11.9514C102.385 11.8766 102.119 11.8155 101.862 11.757C101.801 11.7434 101.741 11.7298 101.68 11.7149L100.322 17.2368Z" fill="#2EB1B7"/>
<path d="M109.162 20.2866L107.976 19.8191L110.128 14.1531L111.403 14.6559L109.162 20.2866ZM108.217 19.7131L109.057 20.0447L111.159 14.762L110.235 14.3977L108.217 19.7131Z" fill="#2EB1B7"/>
<path d="M111.064 21.0735L110.482 20.8098C110.378 20.7636 110.269 20.7215 110.162 20.6793C110.102 20.6562 110.041 20.6331 109.981 20.6087L109.893 20.5733L112.215 14.9753L112.301 15.0106C112.365 15.0365 112.43 15.0623 112.495 15.0868C112.615 15.133 112.734 15.1805 112.853 15.2322L113.476 15.5135L111.064 21.0735ZM110.139 20.47C110.168 20.4823 110.198 20.4931 110.228 20.5054C110.338 20.5489 110.45 20.591 110.559 20.6386L110.968 20.8248L113.229 15.6086L112.774 15.4034C112.66 15.3531 112.543 15.3069 112.425 15.2621C112.388 15.2485 112.351 15.2335 112.314 15.2186L110.139 20.47Z" fill="#2EB1B7"/>
<path d="M112.943 21.9229L111.782 21.3983L114.272 15.8737L115.521 16.439L112.943 21.9229ZM112.029 21.3045L112.851 21.6755L115.271 16.5301L114.365 16.121L112.029 21.3045Z" fill="#2EB1B7"/>
<path d="M114.788 22.8376L113.654 22.2559L116.31 16.8087L117.53 17.4325L114.788 22.8376ZM113.903 22.173L114.706 22.5848L117.279 17.5154L116.396 17.0629L113.903 22.173Z" fill="#2EB1B7"/>
<path d="M116.616 23.7862L116.533 23.74C116.332 23.6258 116.121 23.5198 115.917 23.4165C115.802 23.3581 115.685 23.2996 115.571 23.2385L115.488 23.195L118.308 17.8307L118.391 17.8742C118.513 17.9381 118.637 18.002 118.76 18.0645C118.985 18.1786 119.217 18.2955 119.441 18.4219L119.522 18.4668L116.616 23.7862ZM115.741 23.1162C115.828 23.161 115.915 23.2045 116.002 23.2493C116.18 23.339 116.363 23.4315 116.541 23.5307L119.266 18.5402C119.07 18.4328 118.869 18.3309 118.673 18.2316C118.577 18.1827 118.48 18.1338 118.384 18.0835L115.741 23.1162Z" fill="#2EB1B7"/>
<path d="M118.402 24.815L117.297 24.1803L120.277 18.903L121.465 19.5867L118.402 24.815ZM117.552 24.1097L118.335 24.5595L121.21 19.6546L120.349 19.1599L117.552 24.1097Z" fill="#2EB1B7"/>
<path d="M123.581 28.1842L122.543 27.4448L125.987 22.4584L127.104 23.2521L123.581 28.1842ZM122.801 27.4L123.536 27.9232L126.84 23.2969L126.032 22.722L122.801 27.4Z" fill="#2EB1B7"/>
<path d="M125.242 29.4032L124.739 29.0077L124.221 28.6394L127.813 23.759L128.369 24.1559L128.91 24.5799L125.242 29.4032ZM124.486 28.5973L124.852 28.8582L125.208 29.1382L128.649 24.6125L128.257 24.3053L127.854 24.0186L124.486 28.5973Z" fill="#2EB1B7"/>
<path d="M126.863 30.6781L125.86 29.8911L129.597 25.1194L130.674 25.9661L126.863 30.6781ZM126.123 29.8585L126.832 30.4158L130.408 25.996L129.628 25.3831L126.123 29.8585Z" fill="#2EB1B7"/>
<path d="M128.438 32.0058L127.475 31.1714L131.352 26.5138L132.388 27.4108L128.438 32.0058ZM127.736 31.1496L128.418 31.7408L132.124 27.4298L131.374 26.7802L127.736 31.1496Z" fill="#2EB1B7"/>
<path d="M148.513 61.6133L148.106 60.4064L153.801 58.3379L154.242 59.6358L148.513 61.6133ZM148.341 60.5192L148.63 61.3741L154.005 59.5189L153.686 58.5785L148.341 60.5192Z" fill="#2EB1B7"/>
<path d="M149.174 63.5635L148.765 62.3567L154.522 60.4621L154.961 61.7614L149.174 63.5635ZM149.003 62.4763L149.292 63.3311L154.72 61.6404L154.402 60.7L149.003 62.4763Z" fill="#2EB1B7"/>
<path d="M149.733 65.5464L149.385 64.3205L155.196 62.6013L155.571 63.9196L149.733 65.5464ZM149.616 64.4483L149.862 65.3167L155.339 63.7919L155.067 62.8364L149.616 64.4483Z" fill="#2EB1B7"/>
<path d="M150.257 67.5388L150.235 67.4464C150.215 67.3594 150.196 67.2738 150.176 67.1868C150.116 66.9259 150.055 66.6554 149.974 66.3972L149.946 66.3034L155.808 64.7609L155.833 64.8465C155.923 65.1374 155.991 65.4377 156.058 65.7286C156.078 65.8196 156.1 65.9093 156.12 66.0004L156.142 66.0901L150.257 67.5388ZM150.181 66.4353C150.249 66.6718 150.305 66.9123 150.358 67.1461C150.37 67.2018 150.382 67.2562 150.396 67.3119L155.916 65.9542C155.903 65.893 155.888 65.8332 155.874 65.772C155.816 65.5138 155.755 65.2474 155.68 64.9906L150.181 66.4353Z" fill="#2EB1B7"/>
<path d="M150.719 69.5462L150.433 68.3054L156.338 66.9422L156.646 68.2782L150.719 69.5462ZM150.658 68.4453L150.861 69.3247L156.421 68.1341L156.198 67.1665L150.658 68.4453Z" fill="#2EB1B7"/>
<path d="M151.108 71.5685L150.885 70.3141L156.828 69.1303L157.07 70.4799L151.108 71.5685ZM151.101 70.4622L151.259 71.3511L156.851 70.329L156.676 69.3519L151.101 70.4622Z" fill="#2EB1B7"/>
<path d="M151.94 77.6911L151.932 77.5973C151.924 77.4927 151.915 77.3894 151.907 77.2847C151.89 77.0333 151.871 76.7724 151.832 76.5196L151.818 76.4231L157.844 75.7802L157.857 75.8686C157.899 76.1526 157.921 76.4407 157.942 76.7194C157.95 76.8294 157.958 76.9409 157.967 77.051L157.975 77.1434L151.94 77.6911ZM152.032 76.5889C152.062 76.8172 152.078 77.0483 152.095 77.2711C152.1 77.3432 152.106 77.4152 152.111 77.4872L157.773 76.9735C157.766 76.8933 157.761 76.8131 157.755 76.7329C157.738 76.487 157.719 76.2328 157.686 75.9855L152.032 76.5889Z" fill="#2EB1B7"/>
<path d="M152.095 79.746L151.998 78.4753L158.04 78.0132L158.144 79.3791L152.095 79.746ZM152.199 78.6479L152.269 79.5476L157.944 79.2038L157.869 78.2144L152.199 78.6479Z" fill="#2EB1B7"/>
<path d="M152.176 81.8064L152.145 80.5316L158.198 80.2502L158.233 81.6202L152.176 81.8064ZM152.336 80.711L152.358 81.6134L158.04 81.4381L158.015 80.446L152.336 80.711Z" fill="#2EB1B7"/>
<path d="M134.357 37.7371L133.478 36.8156L137.884 32.6555L138.829 33.6476L134.357 37.7371ZM133.743 36.8224L134.367 37.4761L138.562 33.6381L137.877 32.9192L133.743 36.8224Z" fill="#2EB1B7"/>
<path d="M135.711 39.2919L134.876 38.3283L139.405 34.3013L140.302 35.337L135.711 39.2919ZM135.139 38.346L135.73 39.0282L140.038 35.3179L139.389 34.5677L135.139 38.346Z" fill="#2EB1B7"/>
<path d="M137.046 40.8847L136.651 40.3818C136.581 40.2908 136.503 40.2038 136.427 40.1168C136.385 40.0679 136.342 40.019 136.299 39.97L136.238 39.898L140.886 36.0097L140.946 36.0804C140.991 36.1334 141.036 36.185 141.082 36.238C141.166 36.3345 141.252 36.4324 141.331 36.5329L141.753 37.0698L137.046 40.8847ZM136.505 39.9211C136.526 39.9456 136.547 39.97 136.569 39.9945C136.647 40.0842 136.725 40.1725 136.798 40.2663L137.075 40.6197L141.494 37.0412L141.185 36.6498C141.108 36.552 141.025 36.4568 140.942 36.3617C140.916 36.3318 140.89 36.3032 140.865 36.2734L136.505 39.9211Z" fill="#2EB1B7"/>
<path d="M138.319 42.5061L137.531 41.5044L142.293 37.7575L143.14 38.8352L138.319 42.5061ZM137.795 41.5357L138.353 42.2451L142.876 38.7999L142.263 38.0198L137.795 41.5357Z" fill="#2EB1B7"/>
<path d="M139.533 44.1709L138.795 43.1326L143.667 39.5297L144.462 40.6469L139.533 44.1709ZM139.054 43.1734L139.578 43.91L144.202 40.6034L143.626 39.7947L139.054 43.1734Z" fill="#2EB1B7"/>
<path d="M140.714 45.8602L140.663 45.7773C140.57 45.6238 140.462 45.4743 140.362 45.3329L139.991 44.8124L144.97 41.3576L145.366 41.9149C145.477 42.0684 145.594 42.2342 145.702 42.4082L145.749 42.4843L140.714 45.8602ZM140.252 44.8572L140.513 45.2228C140.598 45.3411 140.687 45.4661 140.771 45.5952L145.492 42.4286C145.401 42.2872 145.305 42.1513 145.212 42.0222L144.924 41.6159L140.252 44.8572Z" fill="#2EB1B7"/>
<path d="M141.827 47.5944L141.139 46.5221L146.219 43.2182L146.959 44.3721L141.827 47.5944ZM141.397 46.5765L141.884 47.3362L146.699 44.3123L146.164 43.4764L141.397 46.5765Z" fill="#2EB1B7"/>
<path d="M142.893 49.3571L142.256 48.2536L147.433 45.1046L148.12 46.2911L142.893 49.3571ZM142.509 48.3188L142.96 49.1003L147.864 46.2231L147.368 45.3628L142.509 48.3188Z" fill="#2EB1B7"/>
<path d="M143.92 51.1443L143.284 50.0394L148.554 47.0467L149.237 48.2359L143.92 51.1443ZM143.539 50.1087L143.989 50.8915L148.977 48.1639L148.482 47.3022L143.539 50.1087Z" fill="#2EB1B7"/>
<path d="M144.862 52.975L144.281 51.8416L149.639 49.0092L150.264 50.2297L144.862 52.975ZM144.533 51.9204L144.945 52.7236L150.013 50.1482L149.56 49.2648L144.533 51.9204Z" fill="#2EB1B7"/>
<path d="M145.771 54.8247L145.507 54.2416C145.458 54.1384 145.405 54.0351 145.352 53.9331C145.323 53.8761 145.293 53.8176 145.264 53.7605L145.222 53.6763L150.664 51.007L150.706 51.09C150.737 51.1525 150.77 51.215 150.801 51.2775C150.859 51.3903 150.918 51.5045 150.972 51.62L151.255 52.2438L145.771 54.8247ZM145.475 53.7592C145.49 53.7877 145.505 53.8163 145.52 53.8462C145.574 53.9508 145.628 54.0568 145.679 54.1628L145.863 54.5733L151.008 52.1514L150.802 51.6975C150.749 51.5847 150.692 51.4732 150.635 51.3631C150.617 51.3278 150.598 51.2925 150.581 51.2571L145.475 53.7592Z" fill="#2EB1B7"/>
<path d="M146.619 56.7016L146.094 55.5409L151.613 53.0375L152.177 54.2865L146.619 56.7016ZM146.342 55.6333L146.714 56.4556L151.929 54.19L151.52 53.2849L146.342 55.6333Z" fill="#2EB1B7"/>
<path d="M81.5396 158.314L80.1697 158.279L80.451 152.225L81.7258 152.257L81.5396 158.314ZM80.3654 158.097L81.3575 158.122L81.5328 152.44L80.6304 152.418L80.3654 158.097Z" fill="#2EB1B7"/>
<path d="M79.3 158.224L77.9341 158.121L78.3962 152.079L79.6669 152.175L79.3 158.224ZM78.1339 157.949L79.1233 158.023L79.4671 152.348L78.5674 152.278L78.1339 157.949Z" fill="#2EB1B7"/>
<path d="M77.063 158.056L76.9706 158.048C76.8605 158.038 76.7504 158.03 76.6389 158.022C76.3603 158.001 76.0708 157.98 75.7882 157.938L75.6998 157.924L76.3427 151.898L76.4392 151.913C76.6919 151.951 76.9515 151.97 77.2043 151.988C77.309 151.996 77.4136 152.003 77.5169 152.012L77.6107 152.02L77.063 158.056ZM75.905 157.765C76.1538 157.798 76.4065 157.817 76.6525 157.834C76.7327 157.84 76.8129 157.847 76.8931 157.852L77.4068 152.19C77.3348 152.185 77.2628 152.179 77.1907 152.174C76.9665 152.157 76.7368 152.141 76.5085 152.111L75.905 157.765Z" fill="#2EB1B7"/>
<path d="M74.834 157.818L73.475 157.645L74.2986 151.641L75.5625 151.801L74.834 157.818ZM73.6856 157.482L74.671 157.607L75.3532 151.963L74.4576 151.849L73.6856 157.482Z" fill="#2EB1B7"/>
<path d="M72.6079 157.537L72.5155 157.522C72.2627 157.482 72.0099 157.436 71.7571 157.391C71.6212 157.367 71.4853 157.342 71.3494 157.319L71.257 157.303L72.2613 151.327L72.3537 151.343C72.4842 151.367 72.6147 151.39 72.7451 151.413C72.9707 151.453 73.1977 151.496 73.4247 151.531L73.5171 151.546L72.6079 157.537ZM71.473 157.151C71.5791 157.17 71.6837 157.189 71.7897 157.208C72.0099 157.247 72.2301 157.288 72.4516 157.323L73.3037 151.702C73.1067 151.67 72.9082 151.634 72.7112 151.599C72.612 151.581 72.5141 151.564 72.4149 151.546L71.473 157.151Z" fill="#2EB1B7"/>
<path d="M70.3992 157.149L69.0497 156.907L70.2334 150.964L71.4879 151.187L70.3992 157.149ZM69.2699 156.757L70.247 156.932L71.269 151.339L70.3802 151.182L69.2699 156.757Z" fill="#2EB1B7"/>
<path d="M68.1963 156.727L66.8604 156.418L68.2235 150.513L69.4643 150.8L68.1963 156.727ZM67.0846 156.278L68.0523 156.501L69.2428 150.941L68.3635 150.739L67.0846 156.278Z" fill="#2EB1B7"/>
<path d="M66.0095 156.222L65.9198 156.201C65.8301 156.179 65.739 156.159 65.648 156.138C65.3585 156.072 65.0581 156.004 64.7659 155.914L64.6803 155.888L66.2228 150.026L66.3166 150.055C66.5748 150.135 66.8453 150.196 67.1062 150.256C67.1932 150.276 67.2789 150.296 67.3658 150.316L67.4582 150.338L66.0095 156.222ZM64.9073 155.76C65.1655 155.835 65.4319 155.896 65.6887 155.955C65.7499 155.968 65.8097 155.982 65.8708 155.997L67.2286 150.476C67.1728 150.464 67.1185 150.45 67.0628 150.438C66.829 150.385 66.5884 150.331 66.352 150.262L64.9073 155.76Z" fill="#2EB1B7"/>
<path d="M57.4242 153.56L56.1494 153.057L58.3905 147.426L59.5757 147.894L57.4242 153.56ZM56.3927 152.953L57.3169 153.317L59.3351 148.001L58.4952 147.67L56.3927 152.953Z" fill="#2EB1B7"/>
<path d="M55.3366 152.738L55.251 152.702C55.1871 152.677 55.1219 152.651 55.058 152.626C54.9384 152.58 54.8188 152.533 54.7006 152.481L54.0768 152.2L56.4878 146.64L57.0695 146.903C57.1741 146.95 57.2828 146.992 57.3902 147.034C57.45 147.057 57.5112 147.08 57.571 147.104L57.6593 147.14L55.3366 152.738ZM54.3214 152.104L54.7753 152.31C54.8895 152.36 55.0077 152.406 55.1246 152.451C55.1613 152.465 55.198 152.48 55.2334 152.493L57.4119 147.242C57.382 147.229 57.3521 147.219 57.3222 147.206C57.2122 147.163 57.1007 147.121 56.9933 147.073L56.5829 146.887L54.3214 152.104Z" fill="#2EB1B7"/>
<path d="M53.2805 151.841L52.0315 151.275L54.6097 145.792L55.7703 146.316L53.2805 151.841ZM52.2829 151.183L53.1881 151.592L55.5243 146.409L54.7021 146.038L52.2829 151.183Z" fill="#2EB1B7"/>
<path d="M51.2418 150.904L50.0214 150.281L52.764 144.877L53.8974 145.459L51.2418 150.904ZM50.2741 150.199L51.1589 150.652L53.6514 145.541L52.8482 145.13L50.2741 150.199Z" fill="#2EB1B7"/>
<path d="M49.2454 149.882L49.1625 149.839C49.0402 149.775 48.9165 149.713 48.7928 149.65C48.5686 149.536 48.3362 149.418 48.1119 149.291L48.0317 149.246L50.9361 143.927L51.019 143.973C51.2201 144.087 51.4308 144.193 51.6333 144.295C51.7502 144.354 51.8657 144.413 51.9812 144.473L52.0641 144.517L49.2454 149.882ZM48.2845 149.174C48.4802 149.282 48.6814 149.385 48.8784 149.484C48.9749 149.533 49.0714 149.582 49.1666 149.631L51.8113 144.598C51.7243 144.553 51.636 144.509 51.549 144.465C51.371 144.375 51.1889 144.283 51.0095 144.185L48.2845 149.174Z" fill="#2EB1B7"/>
<path d="M47.2746 148.811L46.0868 148.128L49.1501 142.899L50.2551 143.534L47.2746 148.811ZM46.3437 148.06L47.2039 148.555L49.9996 143.603L49.2167 143.154L46.3437 148.06Z" fill="#2EB1B7"/>
<path d="M41.5666 145.255L40.4495 144.461L43.9722 139.53L45.0105 140.27L41.5666 145.255ZM40.7104 144.416L41.5191 144.991L44.7496 140.313L44.0143 139.79L40.7104 144.416Z" fill="#2EB1B7"/>
<path d="M39.7386 143.954L39.1828 143.557L38.6418 143.133L42.31 138.31L42.8128 138.705L43.3307 139.074L39.7386 143.954ZM38.9028 143.101L39.2956 143.408L39.6978 143.695L43.067 139.116L42.7014 138.855L42.3453 138.575L38.9028 143.101Z" fill="#2EB1B7"/>
<path d="M37.9557 142.595L36.8779 141.748L40.6901 137.036L41.6918 137.823L37.9557 142.595ZM37.143 141.718L37.9231 142.331L41.4281 137.856L40.7187 137.299L37.143 141.718Z" fill="#2EB1B7"/>
<path d="M36.1997 141.199L35.1641 140.302L39.1149 135.707L40.0785 136.543L36.1997 141.199ZM35.4277 140.283L36.1779 140.933L39.8162 136.563L39.1339 135.972L35.4277 140.283Z" fill="#2EB1B7"/>
<path d="M13.7504 109.377L13.3101 108.079L19.0386 106.101L19.4463 107.308L13.7504 109.377ZM13.5479 108.194L13.8673 109.135L19.2112 107.194L18.923 106.339L13.5479 108.194Z" fill="#2EB1B7"/>
<path d="M13.0315 107.251L12.5925 105.952L18.3781 104.15L18.7872 105.356L13.0315 107.251ZM12.8317 106.074L13.1498 107.014L18.5507 105.237L18.2612 104.382L12.8317 106.074Z" fill="#2EB1B7"/>
<path d="M12.3559 105.112L11.9808 103.793L17.8194 102.168L18.1673 103.394L12.3559 105.112ZM12.2132 103.923L12.4851 104.878L17.9377 103.265L17.6917 102.396L12.2132 103.923Z" fill="#2EB1B7"/>
<path d="M11.7458 102.952L11.72 102.867C11.6303 102.576 11.5624 102.275 11.4958 101.985C11.4754 101.895 11.455 101.804 11.4332 101.714L11.4115 101.624L17.2963 100.177L17.318 100.269C17.3384 100.355 17.3574 100.441 17.3778 100.528C17.4376 100.79 17.4988 101.06 17.579 101.32L17.6075 101.414L11.7458 102.952ZM11.6357 101.76C11.6493 101.821 11.6643 101.881 11.6779 101.942C11.7363 102.201 11.7975 102.467 11.8722 102.725L17.371 101.279C17.3017 101.043 17.2474 100.801 17.1944 100.567C17.1821 100.513 17.1699 100.458 17.1563 100.403L11.6357 101.76Z" fill="#2EB1B7"/>
<path d="M11.2144 100.772L10.9059 99.4363L16.8314 98.1669L17.1182 99.4078L11.2144 100.772ZM11.1315 99.5804L11.3544 100.548L16.894 99.2691L16.6901 98.3898L11.1315 99.5804Z" fill="#2EB1B7"/>
<path d="M10.7253 98.5842L10.4834 97.2346L16.4457 96.146L16.6685 97.4004L10.7253 98.5842ZM10.7009 97.3855L10.8762 98.3626L16.4524 97.2523L16.2948 96.3634L10.7009 97.3855Z" fill="#2EB1B7"/>
<path d="M9.70703 91.9329L9.69344 91.8445C9.65131 91.5605 9.62956 91.271 9.60917 90.9924C9.60102 90.8823 9.59287 90.7736 9.58335 90.6635L9.5752 90.5711L15.6108 90.0234L15.619 90.1171C15.6271 90.2204 15.6353 90.3237 15.6421 90.427C15.6598 90.6798 15.6788 90.9421 15.7168 91.1949L15.7318 91.2914L9.70703 91.9329ZM9.77906 90.7396C9.78585 90.8198 9.79129 90.8986 9.79672 90.9788C9.81439 91.2261 9.83342 91.4803 9.86604 91.729L15.5198 91.1269C15.4885 90.8972 15.4722 90.6662 15.4573 90.4406C15.4518 90.3699 15.4478 90.2979 15.441 90.2272L9.77906 90.7396Z" fill="#2EB1B7"/>
<path d="M9.51149 89.6999L9.4082 88.334L15.4574 87.9671L15.5539 89.2378L15.4602 89.2446L9.51149 89.6999ZM9.60934 88.5093L9.68409 89.4987L15.3528 89.0652L15.2835 88.1655L9.60934 88.5093Z" fill="#2EB1B7"/>
<path d="M9.3537 87.4628L9.31836 86.0929L15.3758 85.9067L15.407 87.1815L9.3537 87.4628ZM9.50999 86.275L9.53581 87.2671L15.2154 87.0035L15.1936 86.101L9.50999 86.275Z" fill="#2EB1B7"/>
<path d="M29.6692 135.059L28.7246 134.067L33.196 129.976L34.0753 130.897L29.6692 135.059ZM28.991 134.076L29.676 134.795L33.8103 130.892L33.1864 130.238L28.991 134.076Z" fill="#2EB1B7"/>
<path d="M28.147 133.412L27.25 132.376L31.8423 128.421L32.6768 129.385L28.147 133.412ZM27.5137 132.397L28.1633 133.147L32.4118 129.369L31.8206 128.686L27.5137 132.397Z" fill="#2EB1B7"/>
<path d="M26.6657 131.703L26.6059 131.633C26.561 131.581 26.5162 131.529 26.4713 131.478C26.3857 131.38 26.3014 131.283 26.2213 131.182L25.7986 130.645L30.5078 126.83L30.9019 127.333C30.9726 127.422 31.0487 127.509 31.1248 127.596C31.1683 127.645 31.2104 127.694 31.2525 127.743L31.3137 127.815L26.6657 131.703ZM26.0582 130.672L26.3667 131.063C26.4455 131.163 26.5284 131.258 26.6113 131.353C26.6371 131.381 26.6616 131.411 26.6874 131.44L31.0487 127.792C31.0269 127.768 31.0066 127.743 30.9848 127.719C30.906 127.629 30.8285 127.541 30.7551 127.447L30.4779 127.093L26.0582 130.672Z" fill="#2EB1B7"/>
<path d="M25.2577 129.957L24.411 128.879L29.233 125.208L30.0213 126.21L25.2577 129.957ZM24.676 128.913L25.289 129.695L29.7576 126.179L29.199 125.469L24.676 128.913Z" fill="#2EB1B7"/>
<path d="M23.8851 128.185L23.0901 127.068L28.0194 123.542L28.7574 124.581L23.8851 128.185ZM23.351 127.111L23.9273 127.92L28.4992 124.54L27.976 123.804L23.351 127.111Z" fill="#2EB1B7"/>
<path d="M22.5844 126.357L22.1889 125.8C22.0775 125.646 21.9606 125.48 21.8532 125.306L21.8057 125.229L26.8383 121.853L26.8886 121.936C26.9824 122.089 27.0857 122.233 27.1903 122.38L27.5613 122.901L22.5844 126.357ZM22.0612 125.284C22.1522 125.426 22.2487 125.562 22.3411 125.691L22.6293 126.097L27.3004 122.856L27.0395 122.49C26.9511 122.367 26.8641 122.246 26.7812 122.118L22.0612 125.284Z" fill="#2EB1B7"/>
<path d="M21.3327 124.496L20.5934 123.342L25.7252 120.12L26.4129 121.192L21.3327 124.496ZM20.853 123.401L21.3884 124.237L26.1547 121.137L25.6682 120.377L20.853 123.401Z" fill="#2EB1B7"/>
<path d="M20.1192 122.61L19.4329 121.423L24.6599 118.356L25.2959 119.46L20.1192 122.61ZM19.6897 121.49L20.1858 122.35L25.0431 119.396L24.5919 118.614L19.6897 121.49Z" fill="#2EB1B7"/>
<path d="M18.9994 120.666L18.3171 119.477L23.6338 116.569L24.2699 117.674L18.9994 120.666ZM18.574 119.551L19.0687 120.412L24.013 117.606L23.5632 116.824L18.574 119.551Z" fill="#2EB1B7"/>
<path d="M17.9131 118.704L17.288 117.483L22.6903 114.737L23.2706 115.872L17.9131 118.704ZM17.5408 117.566L17.9933 118.45L23.0205 115.793L22.6087 114.99L17.5408 117.566Z" fill="#2EB1B7"/>
<path d="M16.89 116.707L16.8479 116.624C16.8166 116.562 16.7854 116.501 16.7528 116.438C16.6943 116.324 16.6345 116.21 16.5815 116.094L16.2988 115.471L21.7813 112.888L22.0436 113.471C22.0926 113.575 22.1456 113.678 22.1986 113.78C22.2285 113.838 22.2584 113.895 22.2883 113.954L22.3304 114.038L16.89 116.707ZM16.5462 115.562L16.7514 116.016C16.8044 116.128 16.8615 116.24 16.9199 116.351C16.9376 116.387 16.9566 116.422 16.9743 116.456L22.079 113.953C22.064 113.924 22.0491 113.894 22.0341 113.866C21.9798 113.761 21.9254 113.656 21.8751 113.549L21.6903 113.138L16.5462 115.562Z" fill="#2EB1B7"/>
<path d="M15.9386 114.676L15.3746 113.427L20.9332 111.013L21.4578 112.174L15.9386 114.676ZM15.6233 113.523L16.0324 114.428L21.2105 112.08L20.8381 111.258L15.6233 113.523Z" fill="#2EB1B7"/>
<path d="M152.242 87.0932L152.267 86.0032L158.139 86.184L158.107 87.365L152.242 87.0932Z" fill="#2EB1B7"/>
<path d="M152.099 89.1522L152.182 88.0663L158.043 88.421L157.954 89.5993L152.099 89.1522Z" fill="#2EB1B7"/>
<path d="M151.926 91.2084C151.981 90.8497 151.995 90.4868 152.025 90.1253L157.875 90.6553C157.842 91.0481 157.825 91.4409 157.766 91.8309L151.926 91.2084Z" fill="#2EB1B7"/>
<path d="M151.665 93.2552L151.802 92.1748L157.633 92.8801L157.483 94.053L151.665 93.2552Z" fill="#2EB1B7"/>
<path d="M151.354 95.2938C151.416 94.9364 151.486 94.5803 151.541 94.2215L157.347 95.1022C157.286 95.4909 157.211 95.8782 157.145 96.2669L151.354 95.2938Z" fill="#2EB1B7"/>
<path d="M150.992 97.3257L151.183 96.2547L156.96 97.3093L156.752 98.4727L150.992 97.3257Z" fill="#2EB1B7"/>
<path d="M150.545 99.3384L150.79 98.2784L156.533 99.5083L156.267 100.661L150.545 99.3384Z" fill="#2EB1B7"/>
<path d="M150.064 101.344C150.172 100.998 150.244 100.642 150.327 100.288L156.029 101.691C155.938 102.074 155.859 102.46 155.744 102.838L150.064 101.344Z" fill="#2EB1B7"/>
<path d="M147.468 109.19L147.866 108.178L153.357 110.263L152.924 111.362L147.468 109.19Z" fill="#2EB1B7"/>
<path d="M146.684 111.097L146.908 110.601C146.982 110.435 147.043 110.264 147.111 110.096L152.535 112.346C152.462 112.528 152.394 112.714 152.315 112.894L152.071 113.432L146.684 111.097Z" fill="#2EB1B7"/>
<path d="M145.833 112.977L146.282 111.986L151.635 114.398L151.149 115.476L145.833 112.977Z" fill="#2EB1B7"/>
<path d="M144.921 114.828L145.419 113.859L150.697 116.433L150.159 117.485L144.921 114.828Z" fill="#2EB1B7"/>
<path d="M143.976 116.66C144.154 116.345 144.31 116.016 144.477 115.695L149.676 118.428C149.493 118.777 149.322 119.133 149.129 119.476L143.976 116.66Z" fill="#2EB1B7"/>
<path d="M142.947 118.448L143.489 117.505L148.602 120.393L148.013 121.418L142.947 118.448Z" fill="#2EB1B7"/>
<path d="M139.579 123.64L140.209 122.753L145.042 126.09L144.357 127.053L139.579 123.64Z" fill="#2EB1B7"/>
<path d="M138.361 125.306L138.698 124.878L139.014 124.435L143.744 127.916L143.401 128.397L143.036 128.862L138.361 125.306Z" fill="#2EB1B7"/>
<path d="M137.086 126.929L137.759 126.073L142.383 129.693L141.651 130.623L137.086 126.929Z" fill="#2EB1B7"/>
<path d="M135.76 128.51L136.472 127.686L140.986 131.444L140.212 132.338L135.76 128.51Z" fill="#2EB1B7"/>
<path d="M106.139 148.652L107.17 148.303L109.175 153.824L108.055 154.203L106.139 148.652Z" fill="#2EB1B7"/>
<path d="M104.186 149.314L105.216 148.965L107.052 154.543L105.932 154.92L104.186 149.314Z" fill="#2EB1B7"/>
<path d="M102.202 149.878L103.248 149.581L104.914 155.213L103.777 155.535L102.202 149.878Z" fill="#2EB1B7"/>
<path d="M100.208 150.407C100.561 150.324 100.917 150.252 101.264 150.145L102.758 155.824C102.381 155.94 101.994 156.019 101.61 156.11L100.208 150.407Z" fill="#2EB1B7"/>
<path d="M98.1978 150.87L99.2578 150.626L100.58 156.348L99.4277 156.614L98.1978 150.87Z" fill="#2EB1B7"/>
<path d="M96.1729 151.263L97.2452 151.073L98.3922 156.833L97.2289 157.041L96.1729 151.263Z" fill="#2EB1B7"/>
<path d="M90.0435 152.106C90.405 152.076 90.7678 152.061 91.1266 152.007L91.7491 157.847C91.359 157.905 90.9649 157.921 90.5735 157.955L90.0435 152.106Z" fill="#2EB1B7"/>
<path d="M87.9857 152.262L89.0716 152.179L89.5188 158.035L88.3404 158.124L87.9857 152.262Z" fill="#2EB1B7"/>
<path d="M85.9227 152.348L87.0114 152.322L87.2845 158.188L86.1035 158.219L85.9227 152.348Z" fill="#2EB1B7"/>
<path d="M130.026 134.442L130.814 133.69L134.847 137.961L133.991 138.776L130.026 134.442Z" fill="#2EB1B7"/>
<path d="M128.473 135.801L129.296 135.089L133.198 139.477L132.305 140.251L128.473 135.801Z" fill="#2EB1B7"/>
<path d="M126.881 137.141L127.309 136.805C127.452 136.693 127.585 136.569 127.723 136.452L131.492 140.956C131.343 141.084 131.197 141.217 131.042 141.339L130.578 141.705L126.881 137.141Z" fill="#2EB1B7"/>
<path d="M125.258 138.417L126.113 137.744L129.745 142.36L128.815 143.09L125.258 138.417Z" fill="#2EB1B7"/>
<path d="M123.592 139.635L124.48 139.004L127.971 143.727L127.009 144.412L123.592 139.635Z" fill="#2EB1B7"/>
<path d="M121.905 140.823C122.06 140.728 122.208 140.623 122.355 140.517L122.798 140.202L126.147 145.026L125.666 145.369C125.506 145.484 125.345 145.597 125.178 145.702L121.905 140.823Z" fill="#2EB1B7"/>
<path d="M120.167 141.936L121.083 141.349L124.285 146.271L123.291 146.91L120.167 141.936Z" fill="#2EB1B7"/>
<path d="M118.405 143.007L119.346 142.463L122.399 147.481L121.375 148.072L118.405 143.007Z" fill="#2EB1B7"/>
<path d="M116.616 144.036L117.559 143.492L120.458 148.599L119.433 149.188L116.616 144.036Z" fill="#2EB1B7"/>
<path d="M114.783 144.983L115.752 144.488L118.496 149.68L117.444 150.219L114.783 144.983Z" fill="#2EB1B7"/>
<path d="M112.934 145.898L113.43 145.673C113.595 145.597 113.754 145.509 113.915 145.427L116.502 150.701C116.325 150.789 116.152 150.883 115.974 150.967L115.436 151.21L112.934 145.898Z" fill="#2EB1B7"/>
<path d="M111.054 146.747L112.045 146.298L114.471 151.648L113.393 152.134L111.054 146.747Z" fill="#2EB1B7"/>
<path d="M15.3119 80.6213L15.2848 81.7099L9.41492 81.5292L9.44482 80.3481L15.3119 80.6213Z" fill="#2EB1B7"/>
<path d="M15.4534 78.5623L15.3705 79.6482L9.50879 79.2921L9.59849 78.1151L15.4534 78.5623Z" fill="#2EB1B7"/>
<path d="M15.6273 76.506C15.5729 76.8648 15.5579 77.2277 15.528 77.5892L9.67859 77.0591C9.71121 76.6664 9.72888 76.2736 9.78732 75.8835L15.6273 76.506Z" fill="#2EB1B7"/>
<path d="M15.8869 74.4579L15.751 75.5383L9.92053 74.833L10.0687 73.6601L15.8869 74.4579Z" fill="#2EB1B7"/>
<path d="M16.198 72.4193C16.1355 72.7767 16.0662 73.1328 16.0104 73.4916L10.2045 72.6109C10.2656 72.2222 10.3404 71.8349 10.407 71.4462L16.198 72.4193Z" fill="#2EB1B7"/>
<path d="M16.5597 70.3888L16.3695 71.4597L10.592 70.4038L10.8 69.2404L16.5597 70.3888Z" fill="#2EB1B7"/>
<path d="M17.0066 68.3746L16.762 69.4347L11.0199 68.2047L11.2849 67.0536L17.0066 68.3746Z" fill="#2EB1B7"/>
<path d="M17.488 66.3687C17.3807 66.7152 17.3086 67.0713 17.2257 67.4247L11.5231 66.0221C11.6141 65.6388 11.693 65.2529 11.8085 64.875L17.488 66.3687Z" fill="#2EB1B7"/>
<path d="M20.085 58.5241L19.6855 59.5366L14.1948 57.4518L14.6284 56.3523L20.085 58.5241Z" fill="#2EB1B7"/>
<path d="M20.8692 56.616L20.645 57.112C20.5716 57.2778 20.5104 57.4491 20.4425 57.6176L15.0184 55.367C15.0918 55.1848 15.1598 54.9987 15.2386 54.8193L15.4819 54.2811L20.8692 56.616Z" fill="#2EB1B7"/>
<path d="M21.7188 54.7364L21.2703 55.7285L15.9169 53.3148L16.4034 52.2384L21.7188 54.7364Z" fill="#2EB1B7"/>
<path d="M22.6307 52.8867L22.1346 53.8543L16.856 51.2803L17.3942 50.2283L22.6307 52.8867Z" fill="#2EB1B7"/>
<path d="M23.5763 51.0533C23.3983 51.3686 23.242 51.6975 23.0748 52.0182L17.8763 49.2851C18.0585 48.9358 18.2297 48.5797 18.4227 48.2373L23.5763 51.0533Z" fill="#2EB1B7"/>
<path d="M24.6067 49.2647L24.063 50.2079L18.9502 47.3199L19.5387 46.2965L24.6067 49.2647Z" fill="#2EB1B7"/>
<path d="M27.973 44.0744L27.3424 44.9606L22.5095 41.624L23.1945 40.6604L27.973 44.0744Z" fill="#2EB1B7"/>
<path d="M29.1909 42.4082L28.8538 42.8349L28.5385 43.2794L23.809 39.7974L24.1514 39.3177L24.5157 38.8529L29.1909 42.4082Z" fill="#2EB1B7"/>
<path d="M30.4655 40.7855L29.7941 41.6417L25.1692 38.0198L25.9004 37.0915L30.4655 40.7855Z" fill="#2EB1B7"/>
<path d="M31.7935 39.2049L31.08 40.0271L26.5665 36.2693L27.3398 35.3763L31.7935 39.2049Z" fill="#2EB1B7"/>
<path d="M61.4131 19.062L60.3816 19.41L58.3783 13.8894L59.4968 13.5102L61.4131 19.062Z" fill="#2EB1B7"/>
<path d="M63.3661 18.4002L62.3359 18.7494L60.4998 13.1705L61.6196 12.7926L63.3661 18.4002Z" fill="#2EB1B7"/>
<path d="M65.3504 17.8362L64.3039 18.1324L62.6377 12.5018L63.7752 12.1783L65.3504 17.8362Z" fill="#2EB1B7"/>
<path d="M67.3441 17.3075C66.9907 17.3904 66.6346 17.4624 66.2881 17.5698L64.7944 11.8902C65.1709 11.7747 65.5582 11.6959 65.9415 11.6048L67.3441 17.3075Z" fill="#2EB1B7"/>
<path d="M69.354 16.8427L68.2939 17.0873L66.9729 11.3656L68.124 11.1006L69.354 16.8427Z" fill="#2EB1B7"/>
<path d="M71.3792 16.4499L70.3068 16.6402L69.1598 10.8818L70.3232 10.6725L71.3792 16.4499Z" fill="#2EB1B7"/>
<path d="M77.5087 15.6086C77.1472 15.6385 76.7844 15.6535 76.4256 15.7079L75.8031 9.86791C76.1932 9.80947 76.5873 9.79316 76.9787 9.75919L77.5087 15.6086Z" fill="#2EB1B7"/>
<path d="M79.5676 15.451L78.4817 15.5339L78.0332 9.67899L79.2115 9.58929L79.5676 15.451Z" fill="#2EB1B7"/>
<path d="M81.6295 15.3654L80.5409 15.3925L80.2677 9.52543L81.4487 9.49553L81.6295 15.3654Z" fill="#2EB1B7"/>
<path d="M37.5261 33.2712L36.7378 34.0227L32.7068 29.7525L33.5616 28.9384L37.5261 33.2712Z" fill="#2EB1B7"/>
<path d="M39.0796 31.9121L38.256 32.6256L34.3541 28.2358L35.247 27.4624L39.0796 31.9121Z" fill="#2EB1B7"/>
<path d="M40.6725 30.5721L40.2444 30.9077C40.1017 31.0205 39.9685 31.1442 39.8299 31.2611L36.0612 26.7558C36.2107 26.628 36.3561 26.4948 36.511 26.3725L36.9758 26.0069L40.6725 30.5721Z" fill="#2EB1B7"/>
<path d="M42.2949 29.2972L41.4387 29.97L37.8073 25.3546L38.7369 24.6248L42.2949 29.2972Z" fill="#2EB1B7"/>
<path d="M43.9599 28.0781L43.0724 28.7087L39.5809 23.9859L40.5432 23.301L43.9599 28.0781Z" fill="#2EB1B7"/>
<path d="M45.6479 26.8903C45.493 26.9854 45.3448 27.0901 45.1981 27.1961L44.755 27.5114L41.4062 22.6867L41.8874 22.3442C42.0477 22.2287 42.2081 22.1159 42.3753 22.0112L45.6479 26.8903Z" fill="#2EB1B7"/>
<path d="M47.3847 25.7772L46.4687 26.3657L43.2667 21.4418L44.2616 20.8044L47.3847 25.7772Z" fill="#2EB1B7"/>
<path d="M49.1489 24.7076L48.2057 25.2513L45.1532 20.2336L46.1766 19.6424L49.1489 24.7076Z" fill="#2EB1B7"/>
<path d="M50.9375 23.6788L49.9943 24.2211L47.094 19.1137L48.1187 18.5252L50.9375 23.6788Z" fill="#2EB1B7"/>
<path d="M52.7694 22.7302L51.8004 23.2262L49.0564 18.0332L50.1083 17.495L52.7694 22.7302Z" fill="#2EB1B7"/>
<path d="M54.6177 21.8155L54.1217 22.0398C53.9572 22.1159 53.7982 22.2042 53.6365 22.2858L51.0502 17.0126C51.2269 16.9242 51.3994 16.8305 51.5775 16.7462L52.1157 16.5029L54.6177 21.8155Z" fill="#2EB1B7"/>
<path d="M56.4988 20.9661L55.5066 21.4146L53.0807 16.0666L54.1584 15.5801L56.4988 20.9661Z" fill="#2EB1B7"/>
<path d="M24.4863 66.7018L19.1683 65.1281L19.1973 65.0302C19.2317 64.9103 19.2662 64.7904 19.2992 64.6692C19.3599 64.4514 19.4233 64.2254 19.4949 64.0049L20.5189 60.9773L21.6916 58.0006C21.7812 57.7843 21.8776 57.5734 21.9741 57.3612C22.0251 57.2482 22.0761 57.1366 22.1271 57.0236L23.0049 55.0833C23.2061 54.6616 23.4225 54.2412 23.6319 53.8361C23.7449 53.617 23.8579 53.3992 23.9682 53.1801C24.4271 52.2375 24.9604 51.3156 25.4772 50.424C25.6646 50.1001 25.852 49.7777 26.0353 49.4524C26.1745 49.2002 26.3316 48.9549 26.4846 48.7165L27.7455 46.7486C27.78 46.6949 27.8144 46.6425 27.8475 46.5902C27.9095 46.4923 27.9715 46.3945 28.039 46.2994L29.8912 43.6976L31.8673 41.184C31.9418 41.093 32.0175 41.0062 32.0933 40.9194L33.6106 39.1678C33.9303 38.7833 34.2817 38.4168 34.6221 38.0626C34.7682 37.9096 34.9156 37.758 35.059 37.6037L35.9561 36.6639C36.1449 36.4654 36.3392 36.2601 36.5459 36.0713L36.619 36.0051L40.5189 39.9478L40.4404 40.0195C40.2557 40.1876 40.0793 40.3736 39.9084 40.5542L39.0802 41.4237C38.9438 41.5698 38.8046 41.7145 38.664 41.8592C38.3567 42.1789 38.0384 42.5097 37.7517 42.8569L36.3516 44.4734C36.2827 44.552 36.2138 44.6305 36.1476 44.7118L34.3313 47.0229L32.6294 49.4166C32.5702 49.5007 32.515 49.5889 32.4585 49.6757C32.4268 49.7253 32.3965 49.7749 32.3634 49.8231L31.1976 51.6408C31.0598 51.8544 30.9165 52.0763 30.7938 52.3009C30.6119 52.6234 30.4259 52.9431 30.2412 53.2628C29.7795 54.0593 29.3027 54.8834 28.8948 55.7254C28.7873 55.939 28.6785 56.1499 28.5696 56.3621C28.3822 56.7245 28.1879 57.1008 28.0101 57.4742L27.2039 59.2588C27.1571 59.3649 27.1074 59.4724 27.0592 59.5799C26.9724 59.7701 26.8856 59.9589 26.8056 60.1518L25.728 62.8859L24.7868 65.6669C24.7234 65.864 24.6655 66.0693 24.6104 66.2664C24.5787 66.3794 24.5484 66.491 24.5153 66.604L24.4863 66.7018ZM19.4219 64.9903L24.3485 66.4483C24.3706 66.3697 24.3926 66.2912 24.4147 66.2126C24.4698 66.0128 24.5277 65.8047 24.5938 65.6035L25.5364 62.817L26.6169 60.076C26.6982 59.8804 26.7864 59.6874 26.8732 59.4959C26.9214 59.3898 26.9696 59.2836 27.0179 59.1762L27.8254 57.3888C28.006 57.0098 28.2003 56.6322 28.3891 56.2684C28.4979 56.0576 28.6068 55.8481 28.7129 55.6359C29.1222 54.7883 29.6018 53.9615 30.0648 53.1608C30.2495 52.8425 30.4341 52.5228 30.616 52.2017C30.7414 51.9702 30.8861 51.7469 31.0267 51.5292L32.1926 49.7115C32.2243 49.6619 32.256 49.6137 32.2863 49.5654C32.3442 49.4745 32.4007 49.3849 32.4627 49.2967L34.1687 46.8988L35.9892 44.5823C36.0581 44.4982 36.1284 44.4183 36.1986 44.3384L37.5974 42.7246C37.8868 42.3732 38.2079 42.0397 38.5193 41.7173C38.6585 41.5739 38.7963 41.4292 38.9341 41.2832L39.7624 40.4136C39.9112 40.2565 40.0655 40.0939 40.2268 39.9409L36.6134 36.289C36.4384 36.4558 36.2689 36.6322 36.1049 36.8058L35.2078 37.7456C35.0631 37.9 34.9156 38.053 34.7696 38.2059C34.4319 38.5573 34.0833 38.9211 33.7663 39.3015L32.2477 41.0558C32.1733 41.1412 32.0989 41.2267 32.0272 41.3135L30.0565 43.8216L28.2085 46.4193C28.1438 46.5116 28.0831 46.6067 28.0239 46.7018C27.9894 46.7555 27.955 46.8093 27.9205 46.863L26.6596 48.8295C26.508 49.0638 26.3523 49.3063 26.2172 49.5544C26.0325 49.881 25.8451 50.2049 25.6563 50.5287C25.1423 51.4162 24.6104 52.3354 24.1542 53.2725C24.0426 53.4943 23.9296 53.7134 23.8166 53.9326C23.6085 54.3363 23.3921 54.7553 23.1937 55.1715L22.3172 57.1104C22.2676 57.2234 22.2153 57.3364 22.1643 57.4494C22.0692 57.6589 21.9741 57.8684 21.8859 58.0806L20.7145 61.0503L19.692 64.0711C19.6217 64.2861 19.5597 64.5107 19.4991 64.7271C19.4715 64.8139 19.4467 64.9021 19.4219 64.9903Z" fill="#2EB1B7"/>
<path d="M47.3872 34.0896L44.1088 29.6164L44.1915 29.5557C48.9693 26.0843 53.9744 23.3089 59.0678 21.3052C59.2938 21.217 59.5184 21.1288 59.7431 21.0392C60.1717 20.8697 60.614 20.6933 61.0536 20.5307L64.0826 19.5054L67.1599 18.6317C67.6147 18.5173 68.0777 18.4112 68.5242 18.3092C68.7626 18.2541 68.9996 18.2004 69.238 18.1439C69.38 18.1122 69.5219 18.0791 69.6625 18.046C70.2054 17.9192 70.7663 17.7897 71.3272 17.7001L73.9456 17.2343L75.6351 17.018L76.342 22.5193L74.7821 22.7163L72.3745 23.1463C71.8688 23.2248 71.363 23.3433 70.8738 23.4577C70.736 23.4894 70.5996 23.5225 70.4618 23.5528C70.2275 23.6079 69.9932 23.6617 69.7576 23.7154C69.3621 23.805 68.9542 23.8987 68.5545 23.9993L65.7281 24.8014L62.9471 25.7426C62.564 25.8859 62.1809 26.0375 61.7964 26.1905C61.5732 26.2787 61.3499 26.3682 61.1253 26.455C56.4646 28.2851 51.8687 30.8332 47.4671 34.0303L47.3872 34.0896ZM44.394 29.6605L47.4313 33.8043C51.8219 30.6265 56.404 28.0895 61.0523 26.2635C61.2769 26.1767 61.4987 26.0885 61.722 25.9989C62.1065 25.8459 62.491 25.693 62.8796 25.5483L65.6688 24.6043L68.5021 23.7995C68.9059 23.6975 69.3166 23.6038 69.7121 23.5142C69.9464 23.4605 70.1806 23.4067 70.4149 23.3516C70.5527 23.3199 70.6892 23.2882 70.827 23.2565C71.3203 23.1408 71.8288 23.0223 72.3401 22.9437L74.7504 22.5137L76.1133 22.3415L75.4587 17.2453L73.9759 17.4341L71.3603 17.8999C70.8035 17.9881 70.2468 18.1177 69.708 18.2431C69.566 18.2761 69.4255 18.3092 69.2835 18.3409C69.0465 18.396 68.8081 18.4512 68.5697 18.5063C68.1246 18.6083 67.6629 18.7144 67.2123 18.8274L64.1419 19.6997L61.1212 20.7222C60.6871 20.8835 60.2447 21.0599 59.8175 21.228C59.5929 21.3176 59.3669 21.4058 59.1422 21.494C54.0943 23.4812 49.1332 26.2277 44.394 29.6605Z" fill="#2EB1B7"/>
<path d="M115.408 30.3578L115.32 30.3054C112.911 28.8749 110.426 27.7408 108.315 26.8202L106.494 26.1036C106.386 26.0623 106.277 26.0182 106.168 25.9741C105.974 25.8969 105.781 25.8197 105.584 25.7495L102.8 24.8068L100.919 24.2735C96.0748 22.8996 90.874 22.1458 85.4609 22.0342L85.3589 22.0314L85.4636 16.486L85.5656 16.4888C91.4431 16.61 97.107 17.43 102.399 18.9293L104.447 19.5123L107.477 20.5376C107.696 20.6161 107.911 20.7015 108.126 20.787C108.242 20.8325 108.358 20.8793 108.473 20.9234L110.455 21.7048C112.597 22.635 115.395 23.907 118.09 25.5014L118.176 25.5524L115.408 30.3578ZM85.5656 21.8302C90.9594 21.9501 96.1424 22.7053 100.973 24.0751L102.859 24.6112L105.65 25.5551C105.85 25.6268 106.047 25.7054 106.242 25.7839C106.351 25.8266 106.459 25.8707 106.568 25.9121L108.392 26.6314C110.487 27.5451 112.944 28.6668 115.335 30.0766L117.901 25.6254C115.244 24.0599 112.488 22.81 110.379 21.8922L108.402 21.1122C108.286 21.0681 108.17 21.0213 108.053 20.9758C107.841 20.8917 107.627 20.8063 107.412 20.7291L104.387 19.7066L102.344 19.125C97.0987 17.6395 91.4886 16.8223 85.6648 16.6955L85.5656 21.8302Z" fill="#2EB1B7"/>
<path d="M144.568 68.605L144.004 66.6233C143.973 66.5117 143.941 66.4 143.909 66.287C143.853 66.0858 143.796 65.8833 143.733 65.6848L142.792 62.9011L141.715 60.1698C141.637 59.9782 141.549 59.7853 141.463 59.5979C141.415 59.4917 141.365 59.3856 141.318 59.2781L140.512 57.4922C140.336 57.1187 140.142 56.7425 139.953 56.3787C139.844 56.1678 139.735 55.9583 139.629 55.7461C139.563 55.6166 139.495 55.487 139.429 55.3561C139.203 54.9124 138.97 54.4549 138.71 54.0235L137.731 52.3216C137.598 52.0777 137.445 51.8393 137.296 51.6105L136.16 49.8397C136.129 49.7914 136.097 49.7405 136.065 49.6908C136.01 49.604 135.955 49.5158 135.896 49.4304L134.191 47.0339L132.376 44.7242C132.311 44.6443 132.244 44.5658 132.175 44.4886C132.136 44.4445 132.098 44.4004 132.059 44.3549C131.857 44.122 131.653 43.8878 131.451 43.6521C130.812 42.9107 130.15 42.1431 129.449 41.4389L129.376 41.3645L133.399 37.5472L133.469 37.6175C134.256 38.4113 134.997 39.2698 135.712 40.1008C135.912 40.3323 136.112 40.5638 136.312 40.794C136.352 40.8422 136.393 40.8877 136.433 40.9345C136.51 41.0227 136.586 41.1109 136.661 41.2019L138.634 43.7141L140.487 46.3201C140.554 46.4165 140.616 46.5144 140.678 46.6122L142.007 48.6848C142.171 48.9398 142.341 49.203 142.49 49.4759L143.551 51.3197C143.84 51.7993 144.098 52.3078 144.349 52.7984C144.418 52.9335 144.487 53.0685 144.556 53.2022C144.666 53.4213 144.777 53.639 144.89 53.8554C145.1 54.2619 145.318 54.6836 145.517 55.1053L146.397 57.047C146.448 57.1628 146.5 57.2772 146.552 57.3915C146.646 57.5969 146.743 57.8091 146.831 58.0227L148.002 60.9966L149.027 64.027C149.098 64.2502 149.161 64.4735 149.223 64.6967C149.256 64.8166 149.291 64.9352 149.325 65.0537L149.936 67.2035L144.568 68.605ZM129.667 41.37C130.346 42.059 130.987 42.8018 131.606 43.5198C131.808 43.7541 132.011 43.9884 132.213 44.2226C132.252 44.2681 132.291 44.3108 132.328 44.3549C132.398 44.4349 132.468 44.5148 132.535 44.5988L134.352 46.9126L136.06 49.3146C136.12 49.4028 136.178 49.4924 136.235 49.582C136.266 49.6316 136.297 49.6812 136.33 49.7294L137.465 51.5003C137.616 51.7332 137.771 51.9729 137.906 52.2224L138.882 53.9202C139.145 54.3556 139.381 54.8173 139.608 55.2638C139.674 55.3933 139.741 55.5243 139.808 55.6538C139.914 55.866 140.023 56.0755 140.132 56.285C140.321 56.6501 140.516 57.0277 140.696 57.4067L141.503 59.1955C141.55 59.3029 141.598 59.4077 141.648 59.5138C141.735 59.7026 141.824 59.8983 141.904 60.094L142.982 62.8308L143.926 65.6214C143.991 65.8254 144.047 66.0294 144.105 66.2333C144.137 66.3449 144.167 66.4566 144.2 66.5682L144.708 68.3583L149.679 67.0588L149.127 65.1102C149.092 64.9917 149.058 64.8718 149.025 64.7519C148.963 64.5314 148.901 64.3095 148.83 64.0904L147.806 61.0669L146.638 58.0999C146.552 57.8918 146.456 57.6809 146.364 57.477C146.311 57.3612 146.259 57.2468 146.208 57.1311L145.33 55.1921C145.133 54.7746 144.917 54.3556 144.707 53.9505C144.594 53.7328 144.482 53.515 144.372 53.2959C144.303 53.1622 144.234 53.0272 144.166 52.8921C143.917 52.4043 143.66 51.8999 143.373 51.4245L142.311 49.5778C142.163 49.3105 141.996 49.05 141.834 48.7978L140.504 46.7252C140.443 46.6301 140.383 46.5337 140.318 46.44L138.469 43.8395L136.499 41.3328C136.429 41.2446 136.353 41.1592 136.279 41.0723C136.237 41.0255 136.196 40.9786 136.156 40.9304C135.956 40.7003 135.756 40.4687 135.557 40.2372C134.865 39.4338 134.15 38.6042 133.393 37.8366L129.667 41.37Z" fill="#2EB1B7"/>
<path d="M146.868 110.499L141.75 108.364L142.505 106.447C142.546 106.338 142.589 106.229 142.633 106.12C142.71 105.93 142.789 105.735 142.852 105.537L143.166 104.607C143.244 104.374 143.324 104.141 143.402 103.91C143.533 103.524 143.665 103.138 143.791 102.751L144.593 99.9259L145.254 97.0664C145.34 96.6627 145.413 96.2451 145.483 95.8413C145.524 95.6084 145.564 95.3741 145.608 95.1412C145.64 94.9497 145.676 94.7568 145.712 94.5638C145.793 94.1228 145.877 93.6667 145.923 93.2147C145.958 92.917 145.997 92.6221 146.036 92.3272C146.162 91.3446 146.295 90.3276 146.347 89.3216C146.364 89.0832 146.383 88.8462 146.401 88.6092C146.432 88.2012 146.467 87.7796 146.488 87.3648L146.562 84.4253C146.565 84.2186 146.558 84.0091 146.552 83.7997C146.548 83.6825 146.545 83.5654 146.543 83.4483L146.493 81.4872C146.492 81.1813 146.467 80.8726 146.443 80.5736L146.277 78.3728C146.257 78.1151 146.238 77.8477 146.2 77.5887L146.183 77.4839L151.698 76.8927L151.712 76.9892C151.755 77.2814 151.777 77.579 151.799 77.867L151.979 80.2415C152.005 80.5708 152.032 80.9098 152.034 81.2475L152.088 83.3725C152.091 83.4965 152.094 83.6205 152.098 83.7432C152.105 83.9705 152.112 84.2062 152.109 84.4391L152.029 87.6307C152.004 88.0993 151.967 88.5719 151.931 89.0281C151.912 89.2706 151.892 89.5146 151.876 89.7571C151.814 90.8857 151.666 92.024 151.524 93.1265C151.487 93.4159 151.45 93.7053 151.414 93.9933C151.362 94.4949 151.27 94.9993 151.181 95.4871C151.144 95.6911 151.107 95.8951 151.072 96.099C151.027 96.3429 150.984 96.5855 150.942 96.828C150.863 97.2773 150.78 97.7417 150.685 98.1978L149.963 101.312L149.089 104.39C148.943 104.842 148.792 105.289 148.64 105.736C148.563 105.962 148.487 106.187 148.411 106.413L148.07 107.421C147.998 107.643 147.91 107.862 147.826 108.073C147.78 108.188 147.733 108.303 147.689 108.419L146.868 110.499ZM142.013 108.252L146.755 110.23L147.498 108.346C147.542 108.23 147.589 108.114 147.634 107.999C147.718 107.789 147.805 107.574 147.874 107.358L148.216 106.348C148.291 106.122 148.369 105.896 148.444 105.67C148.596 105.223 148.748 104.778 148.892 104.329L149.763 101.26L150.483 98.1524C150.578 97.7031 150.659 97.2401 150.738 96.7922C150.78 96.5483 150.823 96.3057 150.869 96.0632C150.903 95.8592 150.94 95.6553 150.977 95.4499C151.066 94.9662 151.157 94.466 151.209 93.9699C151.245 93.6791 151.282 93.3897 151.321 93.1003C151.462 92.002 151.61 90.8665 151.672 89.7447C151.69 89.4994 151.708 89.2555 151.727 89.0129C151.763 88.5568 151.8 88.0869 151.824 87.6225L151.903 84.435C151.906 84.2076 151.899 83.9747 151.892 83.7487C151.89 83.6246 151.886 83.5006 151.883 83.3766L151.829 81.2502C151.826 80.9181 151.8 80.5818 151.775 80.2566L151.595 77.8822C151.575 77.63 151.556 77.3709 151.523 77.116L146.416 77.6645C146.446 77.896 146.463 78.1302 146.481 78.3576L146.647 80.557C146.672 80.8602 146.697 81.173 146.698 81.4845L146.748 83.4441C146.751 83.5613 146.754 83.677 146.758 83.7942C146.763 84.0022 146.77 84.2172 146.769 84.4294L146.694 87.373C146.672 87.7933 146.639 88.2164 146.606 88.6257C146.588 88.8613 146.569 89.0984 146.552 89.334C146.499 90.3455 146.366 91.3667 146.24 92.3534C146.201 92.6483 146.164 92.9432 146.127 93.2381C146.08 93.6956 145.996 94.1559 145.913 94.601C145.877 94.7926 145.843 94.9841 145.81 95.1771C145.765 95.4114 145.726 95.6429 145.686 95.8758C145.615 96.2809 145.542 96.6999 145.455 97.1091L144.791 99.9769L143.986 102.81C143.86 103.203 143.727 103.589 143.596 103.976C143.518 104.208 143.438 104.441 143.361 104.673L143.047 105.602C142.982 105.805 142.9 106.005 142.823 106.198C142.779 106.305 142.736 106.413 142.695 106.521L142.013 108.252Z" fill="#2EB1B7"/>
<path d="M118.186 143.064L115.401 138.268L115.49 138.217C119.838 135.728 124.019 132.544 127.918 128.75L128.273 128.411C128.348 128.339 128.419 128.263 128.491 128.188C128.531 128.145 128.571 128.104 128.611 128.061L130.054 126.549C130.245 126.349 130.444 126.141 130.624 125.926C130.849 125.663 131.075 125.404 131.301 125.143C131.923 124.431 132.565 123.692 133.141 122.925L133.749 122.152C133.815 122.065 133.885 121.977 133.954 121.89C134.085 121.724 134.221 121.555 134.34 121.378L135.478 119.777C135.544 119.682 135.613 119.586 135.682 119.491C135.802 119.325 135.926 119.153 136.035 118.978L136.564 118.151C136.692 117.948 136.822 117.747 136.951 117.546C137.172 117.204 137.4 116.85 137.617 116.497L137.669 116.411L142.415 119.28L142.362 119.368C142.118 119.765 141.861 120.163 141.615 120.548C141.482 120.753 141.35 120.958 141.219 121.165L140.644 122.061C140.522 122.256 140.384 122.448 140.252 122.631C140.179 122.733 140.106 122.834 140.035 122.937L138.801 124.673C138.667 124.871 138.517 125.059 138.371 125.243C138.298 125.335 138.223 125.427 138.151 125.521L137.493 126.359C136.845 127.219 136.126 128.044 135.43 128.842C135.204 129.101 134.978 129.362 134.753 129.622C134.551 129.865 134.329 130.098 134.114 130.322L132.561 131.951C132.515 131.997 132.472 132.043 132.428 132.089C132.35 132.172 132.27 132.256 132.189 132.336L131.803 132.704C127.575 136.821 123.023 140.29 118.274 143.01L118.186 143.064ZM115.681 138.344L118.26 142.787C122.962 140.082 127.471 136.642 131.661 132.56L132.047 132.192C132.127 132.115 132.204 132.034 132.281 131.952C132.325 131.906 132.369 131.859 132.415 131.813L133.966 130.186C134.178 129.964 134.398 129.734 134.597 129.495C134.822 129.232 135.049 128.973 135.275 128.713C135.969 127.917 136.685 127.095 137.33 126.239L137.989 125.401C138.061 125.307 138.135 125.214 138.209 125.12C138.353 124.939 138.5 124.753 138.631 124.562L139.866 122.825C139.936 122.724 140.011 122.62 140.084 122.518C140.214 122.336 140.35 122.149 140.469 121.957L141.045 121.06C141.176 120.853 141.309 120.648 141.442 120.441C141.671 120.086 141.908 119.719 142.134 119.353L137.738 116.694C137.537 117.02 137.327 117.345 137.123 117.66C136.994 117.862 136.864 118.061 136.736 118.264L136.207 119.09C136.094 119.27 135.969 119.444 135.847 119.613C135.78 119.707 135.711 119.802 135.645 119.897L134.508 121.497C134.387 121.678 134.247 121.851 134.114 122.019C134.045 122.105 133.976 122.192 133.91 122.278L133.302 123.05C132.723 123.822 132.078 124.563 131.454 125.278C131.228 125.538 131.002 125.797 130.779 126.058C130.595 126.279 130.394 126.488 130.2 126.692L128.757 128.204C128.717 128.245 128.677 128.287 128.639 128.33C128.566 128.408 128.491 128.485 128.414 128.561L128.058 128.9C124.175 132.676 120.012 135.854 115.681 138.344Z" fill="#2EB1B7"/>
<path d="M84.5168 152.154C84.0703 152.154 83.6252 152.15 83.1801 152.14L81.0523 152.086C80.8153 152.086 80.5741 152.066 80.3412 152.046C80.2227 152.037 80.1042 152.027 79.9857 152.02L77.3315 151.817L74.687 151.483C74.1109 151.422 73.5321 151.317 72.9713 151.215L72.5799 151.145C72.3415 151.102 72.1044 151.06 71.866 151.018C71.4044 150.937 70.9427 150.854 70.4838 150.765L67.368 150.045C67.1434 149.986 66.9229 149.924 66.7024 149.861C66.5811 149.826 66.4598 149.792 66.3386 149.757L66.2407 149.73L67.7015 144.38L67.8007 144.408C67.9137 144.439 68.0281 144.472 68.1411 144.504C68.3409 144.562 68.5421 144.618 68.7433 144.672L71.6056 145.332C72.0066 145.409 72.4131 145.481 72.8197 145.553C73.0567 145.594 73.2937 145.637 73.5308 145.68L73.9125 145.748C74.4182 145.841 74.9405 145.934 75.4587 145.988L77.8924 146.298L80.333 146.483C80.4446 146.49 80.5562 146.499 80.6692 146.509C80.8759 146.527 81.0895 146.545 81.299 146.545C81.3004 146.545 81.3017 146.545 81.3031 146.545L83.2683 146.595C88.3437 146.705 93.5694 146.134 98.7978 144.897L98.8971 144.873L100.187 150.267L100.088 150.291C94.8634 151.527 89.6322 152.154 84.5168 152.154ZM66.4915 149.588C66.5811 149.613 66.6707 149.639 66.7589 149.664C66.978 149.726 67.1971 149.789 67.4176 149.847L70.5265 150.565C70.9813 150.653 71.4416 150.734 71.9019 150.817C72.1403 150.86 72.3787 150.901 72.6157 150.944L73.0071 151.014C73.5638 151.115 74.1399 151.218 74.7104 151.279L77.3522 151.614L79.9995 151.815C80.118 151.822 80.2379 151.831 80.3564 151.842C80.5851 151.862 80.8222 151.881 81.0537 151.881L83.1828 151.935C88.6717 152.053 94.3081 151.44 99.9375 150.114L98.7427 145.117C93.5308 146.342 88.3217 146.909 83.2614 146.797L81.299 146.748C81.0812 146.741 80.8621 146.73 80.6499 146.712C80.5383 146.702 80.428 146.692 80.3164 146.686L77.8703 146.501L75.4339 146.191C74.9102 146.137 74.3838 146.041 73.8753 145.948L73.4935 145.879C73.2565 145.837 73.0195 145.794 72.7825 145.753C72.3745 145.681 71.968 145.609 71.5615 145.531L68.6923 144.869C68.487 144.815 68.2844 144.756 68.0832 144.7C68.0033 144.676 67.9233 144.654 67.8434 144.631L66.4915 149.588Z" fill="#2EB1B7"/>
<path d="M56.9608 146.433L54.9268 145.513C54.5009 145.302 54.0806 145.086 53.6603 144.871C53.4495 144.762 53.2372 144.653 53.025 144.545L52.0769 144.059C51.8702 143.953 51.6662 143.836 51.4705 143.721C51.363 143.659 51.2556 143.596 51.1467 143.535L49.3001 142.473C46.3634 140.652 44.2039 139.154 42.2953 137.615L41.4602 136.958C41.4106 136.918 41.361 136.879 41.3127 136.841C41.2218 136.769 41.1308 136.699 41.0412 136.623L38.6268 134.531L36.313 132.325C36.229 132.241 36.1491 132.156 36.0691 132.072L35.941 131.937C35.7411 131.728 35.5413 131.518 35.3415 131.31C34.5712 130.507 33.776 129.676 33.0498 128.804L32.2009 127.824C32.0217 127.617 31.8357 127.403 31.6662 127.18L30.2881 125.427L34.6924 122.057L35.9671 123.679C36.1174 123.88 36.2855 124.071 36.4467 124.256L37.2364 125.167C37.8827 125.947 38.5938 126.69 39.2828 127.409C39.4868 127.621 39.6893 127.833 39.8919 128.048L40.0132 128.177C40.0849 128.252 40.1551 128.327 40.2282 128.4L42.3559 130.428L44.576 132.352C44.6546 132.418 44.7359 132.482 44.8186 132.546C44.8654 132.582 44.9109 132.618 44.9564 132.655L45.7267 133.26C47.933 135.045 50.3226 136.581 52.1582 137.722L53.8546 138.698C53.9552 138.755 54.0558 138.814 54.1564 138.872C54.3342 138.975 54.5175 139.083 54.7035 139.176L55.5772 139.623C55.7936 139.733 56.0085 139.843 56.2249 139.955C56.5901 140.142 56.9553 140.331 57.3232 140.513L59.1988 141.361L56.9608 146.433ZM30.5775 125.464L31.8288 127.058C31.9941 127.277 32.1774 127.488 32.3552 127.691L33.2055 128.673C33.9276 129.541 34.7214 130.369 35.489 131.171C35.6888 131.381 35.8886 131.589 36.0884 131.798L36.218 131.933C36.2965 132.016 36.3751 132.099 36.4564 132.18L38.766 134.381L41.1749 136.468C41.2604 136.54 41.3499 136.61 41.4381 136.681C41.4877 136.719 41.5373 136.759 41.587 136.798L42.4234 137.455C44.3266 138.992 46.4791 140.484 49.4062 142.298L51.2487 143.357C51.3575 143.418 51.4664 143.481 51.5739 143.545C51.7682 143.658 51.9694 143.775 52.1706 143.878L53.1187 144.365C53.3309 144.472 53.5418 144.581 53.754 144.69C54.1729 144.905 54.5933 145.121 55.015 145.33L56.8574 146.163L58.9342 141.464L57.2392 140.699C56.8671 140.514 56.5005 140.326 56.1353 140.138C55.9204 140.028 55.704 139.916 55.489 139.806L54.6153 139.36C54.4251 139.263 54.2391 139.154 54.0586 139.048C53.9593 138.99 53.8587 138.932 53.7582 138.876L52.0576 137.899C50.2137 136.754 47.8173 135.212 45.6027 133.422L44.8323 132.817C44.7869 132.779 44.7414 132.745 44.6959 132.709C44.6118 132.644 44.5278 132.578 44.4465 132.509L42.2222 130.581L40.089 128.547C40.0132 128.471 39.9402 128.394 39.8671 128.317L39.7458 128.19C39.5433 127.977 39.3393 127.765 39.1367 127.551C38.4463 126.83 37.7325 126.083 37.082 125.3L36.2938 124.392C36.1298 124.204 35.9603 124.009 35.8059 123.805L34.658 122.345L30.5775 125.464Z" fill="#2EB1B7"/>
<path d="M24.8983 117.189L24.584 116.639L23.126 113.792C23.0737 113.687 23.0268 113.581 22.9786 113.475C22.9538 113.419 22.9276 113.361 22.9014 113.304C22.765 112.998 22.6258 112.694 22.488 112.391C22.0456 111.418 21.5867 110.412 21.2078 109.389C21.1196 109.16 21.0286 108.932 20.9377 108.703C20.7682 108.278 20.5945 107.84 20.4388 107.402L19.7553 105.383C19.7167 105.265 19.6767 105.147 19.6354 105.03C19.561 104.811 19.4852 104.592 19.419 104.37L18.5467 101.296C17.1562 95.7986 16.4355 90.1195 16.4052 84.417V84.3151L21.9505 84.3068V84.4088C21.9809 89.6482 22.6423 94.8643 23.9171 99.9108L24.7191 102.737C24.7784 102.936 24.8473 103.133 24.9148 103.33C24.9534 103.44 24.9906 103.552 25.0278 103.662L25.6548 105.518C25.7926 105.908 25.9497 106.301 26.1013 106.681C26.1895 106.902 26.2777 107.121 26.3618 107.343C26.6966 108.254 27.1059 109.151 27.5014 110.019C27.6406 110.325 27.7798 110.629 27.9162 110.937C27.9397 110.989 27.9645 111.043 27.9879 111.097C28.0306 111.192 28.072 111.285 28.1188 111.378L29.4597 113.995L29.7532 114.506L24.8983 117.189ZM16.6091 84.5176C16.6477 90.1705 17.3657 95.7958 18.7438 101.242L19.6161 104.312C19.6822 104.53 19.7566 104.748 19.8297 104.964C19.8696 105.083 19.911 105.2 19.9496 105.318L20.6317 107.334C20.7861 107.767 20.9597 108.204 21.1278 108.627C21.2188 108.857 21.3111 109.086 21.3993 109.316C21.7755 110.333 22.233 111.335 22.674 112.305C22.8132 112.61 22.951 112.914 23.0875 113.219C23.1136 113.275 23.1398 113.333 23.1646 113.391C23.2115 113.495 23.257 113.598 23.3079 113.7L24.7632 116.541L24.9754 116.912L29.4707 114.426L29.2778 114.091L27.9342 111.469C27.8859 111.372 27.8432 111.276 27.7991 111.178C27.7757 111.126 27.7523 111.072 27.7274 111.019C27.591 110.712 27.4518 110.408 27.3126 110.103C26.9158 109.231 26.5051 108.331 26.1675 107.414C26.0834 107.195 25.9952 106.976 25.9084 106.757C25.7554 106.375 25.5983 105.98 25.4578 105.586L24.8293 103.727C24.7921 103.615 24.7549 103.506 24.7177 103.396C24.6488 103.196 24.5799 102.996 24.5193 102.794L23.7159 99.9631C22.4453 94.9304 21.7824 89.7323 21.7438 84.5108L16.6091 84.5176Z" fill="#2EB1B7"/>
<path d="M52.6412 145.394C60.9457 149.575 70.1045 152.032 79.3886 152.578L79.1492 156.571C69.3315 155.994 59.6312 153.393 50.8463 148.969L52.6412 145.394Z" fill="#2EB1B7"/>
<path d="M25.9343 121.687C28.4959 125.566 31.4503 129.187 34.7349 132.479C38.0273 135.764 41.6483 138.717 45.5274 141.28L43.3195 144.616C39.2165 141.906 35.3874 138.782 31.9057 135.309C28.4318 131.827 25.3084 127.998 22.5981 123.895L25.9343 121.687Z" fill="#2EB1B7"/>
<path d="M14.6348 87.8241C15.1809 97.1082 17.6377 106.269 21.8189 114.572L18.2433 116.366C13.8195 107.58 11.2172 97.8812 10.6414 88.0635L14.6348 87.8241Z" fill="#2EB1B7"/>
<path d="M114.547 21.8435C106.243 17.6623 97.0836 15.2055 87.7996 14.6594L88.039 10.666C97.8567 11.2434 107.557 13.8441 116.342 18.2679L114.547 21.8435Z" fill="#2EB1B7"/>
<path d="M141.255 45.5505C138.694 41.6713 135.739 38.0503 132.455 34.7579C129.162 31.4734 125.541 28.5206 121.662 25.9574L123.87 22.6212C127.973 25.3315 131.802 28.4548 135.284 31.9287C138.758 35.4105 141.881 39.2396 144.592 43.3425L141.255 45.5505Z" fill="#2EB1B7"/>
<path d="M152.553 79.4132C152.007 70.1292 149.55 60.9687 145.369 52.6658L148.945 50.8709C153.369 59.6574 155.971 69.3561 156.547 79.1738L152.553 79.4132Z" fill="#2EB1B7"/>
<path d="M84.4394 144.051C68.5386 144.051 53.5884 137.859 42.345 126.614C31.1016 115.371 24.9097 100.421 24.9097 84.5201C24.9097 68.6193 31.1016 53.669 42.345 42.4257C53.5884 31.1823 68.5386 24.9903 84.4394 24.9903C100.34 24.9903 115.29 31.1823 126.534 42.4257C137.777 53.669 143.971 68.6193 143.971 84.5201C143.971 100.421 137.779 115.371 126.534 126.614C115.289 137.858 100.34 144.051 84.4394 144.051ZM84.4394 25.1887C51.7232 25.1887 25.108 51.8052 25.108 84.5201C25.108 117.235 51.7246 143.851 84.4394 143.851C117.154 143.851 143.771 117.235 143.771 84.5201C143.771 51.8052 117.154 25.1887 84.4394 25.1887Z" fill="#2EB1B7"/>
<path d="M83.7752 152.962C65.3159 152.962 47.9631 145.774 34.9099 132.721C21.8581 119.669 14.6687 102.315 14.6687 83.8559C14.6687 65.3965 21.8568 48.0437 34.9099 34.9906C47.9617 21.9388 65.3159 14.7493 83.7752 14.7493C102.235 14.7493 119.587 21.9374 132.641 34.9906C145.692 48.0423 152.882 65.3965 152.882 83.8559C152.882 102.315 145.694 119.668 132.641 132.721C119.587 145.774 102.233 152.962 83.7752 152.962ZM83.7752 14.9822C45.7967 14.9822 14.9002 45.8801 14.9002 83.8572C14.9002 121.834 45.7981 152.732 83.7752 152.732C121.752 152.732 152.65 121.834 152.65 83.8572C152.65 45.8801 121.752 14.9822 83.7752 14.9822Z" fill="#2EB1B7"/>
<path d="M84.4402 151.138C66.6467 151.138 49.9175 144.209 37.3345 131.626C24.7529 119.045 17.8228 102.316 17.8228 84.5208C17.8228 66.7273 24.7515 49.9982 37.3345 37.4151C49.9161 24.8335 66.6453 17.9034 84.4402 17.9034C102.234 17.9034 118.963 24.8321 131.546 37.4151C144.127 49.9968 151.058 66.7259 151.058 84.5208C151.058 102.314 144.129 119.043 131.546 131.626C118.963 144.208 102.234 151.138 84.4402 151.138ZM84.4402 23.2474C50.6535 23.2474 23.1668 50.7342 23.1668 84.5208C23.1668 118.307 50.6535 145.794 84.4402 145.794C118.227 145.794 145.714 118.307 145.714 84.5208C145.714 50.7342 118.225 23.2474 84.4402 23.2474Z" fill="#2EB1B7"/>
<g style="mix-blend-mode:color-dodge">
<path d="M130.75 114.109C172.045 114.109 205.522 80.6324 205.522 39.337C205.522 -1.95831 172.045 -35.4348 130.75 -35.4348C89.4546 -35.4348 55.9781 -1.95831 55.9781 39.337C55.9781 80.6324 89.4546 114.109 130.75 114.109Z" fill="url(#paint1_radial_29:3099)"/>
</g>
<g style="mix-blend-mode:color-dodge">
<path d="M43.5933 109.857C84.8887 109.857 118.365 76.3802 118.365 35.0849C118.365 -6.21047 84.8887 -39.687 43.5933 -39.687C2.298 -39.687 -31.1785 -6.21047 -31.1785 35.0849C-31.1785 76.3802 2.298 109.857 43.5933 109.857Z" fill="url(#paint2_radial_29:3099)"/>
</g>
<g style="mix-blend-mode:color-dodge">
<path d="M35.0848 201.27C76.3801 201.27 109.857 167.793 109.857 126.498C109.857 85.2024 76.3801 51.726 35.0848 51.726C-6.21053 51.726 -39.687 85.2024 -39.687 126.498C-39.687 167.793 -6.21053 201.27 35.0848 201.27Z" fill="url(#paint3_radial_29:3099)"/>
</g>
<g style="mix-blend-mode:color-dodge">
<path d="M127.915 202.687C169.21 202.687 202.687 169.21 202.687 127.915C202.687 86.6198 169.21 53.1433 127.915 53.1433C86.6198 53.1433 53.1433 86.6198 53.1433 127.915C53.1433 169.21 86.6198 202.687 127.915 202.687Z" fill="url(#paint4_radial_29:3099)"/>
</g>
</g>
<defs>
<linearGradient id="paint0_linear_29:3099" x1="56.6957" y1="0" x2="56.6957" y2="113.391" gradientUnits="userSpaceOnUse">
<stop stop-color="#155555"/>
<stop offset="1" stop-opacity="0"/>
</linearGradient>
<radialGradient id="paint1_radial_29:3099" cx="0" cy="0" r="1" gradientUnits="userSpaceOnUse" gradientTransform="translate(130.75 39.3368) scale(74.7716)">
<stop stop-color="white"/>
<stop offset="0.00738025" stop-color="#F6F6F6"/>
<stop offset="0.0477" stop-color="#C8C8C8"/>
<stop offset="0.0931" stop-color="#9D9D9D"/>
<stop offset="0.1419" stop-color="#777777"/>
<stop offset="0.195" stop-color="#575757"/>
<stop offset="0.2537" stop-color="#3B3B3B"/>
<stop offset="0.32" stop-color="#252525"/>
<stop offset="0.3974" stop-color="#141414"/>
<stop offset="0.4931" stop-color="#090909"/>
<stop offset="0.6274" stop-color="#020202"/>
<stop offset="1"/>
</radialGradient>
<radialGradient id="paint2_radial_29:3099" cx="0" cy="0" r="1" gradientUnits="userSpaceOnUse" gradientTransform="translate(43.5932 35.0846) scale(74.7715)">
<stop stop-color="white"/>
<stop offset="0.00738025" stop-color="#F6F6F6"/>
<stop offset="0.0477" stop-color="#C8C8C8"/>
<stop offset="0.0931" stop-color="#9D9D9D"/>
<stop offset="0.1419" stop-color="#777777"/>
<stop offset="0.195" stop-color="#575757"/>
<stop offset="0.2537" stop-color="#3B3B3B"/>
<stop offset="0.32" stop-color="#252525"/>
<stop offset="0.3974" stop-color="#141414"/>
<stop offset="0.4931" stop-color="#090909"/>
<stop offset="0.6274" stop-color="#020202"/>
<stop offset="1"/>
</radialGradient>
<radialGradient id="paint3_radial_29:3099" cx="0" cy="0" r="1" gradientUnits="userSpaceOnUse" gradientTransform="translate(35.0845 126.498) scale(74.7715)">
<stop stop-color="white"/>
<stop offset="0.00738025" stop-color="#F6F6F6"/>
<stop offset="0.0477" stop-color="#C8C8C8"/>
<stop offset="0.0931" stop-color="#9D9D9D"/>
<stop offset="0.1419" stop-color="#777777"/>
<stop offset="0.195" stop-color="#575757"/>
<stop offset="0.2537" stop-color="#3B3B3B"/>
<stop offset="0.32" stop-color="#252525"/>
<stop offset="0.3974" stop-color="#141414"/>
<stop offset="0.4931" stop-color="#090909"/>
<stop offset="0.6274" stop-color="#020202"/>
<stop offset="1"/>
</radialGradient>
<radialGradient id="paint4_radial_29:3099" cx="0" cy="0" r="1" gradientUnits="userSpaceOnUse" gradientTransform="translate(127.915 127.915) scale(74.7716)">
<stop stop-color="white"/>
<stop offset="0.00738025" stop-color="#F6F6F6"/>
<stop offset="0.0477" stop-color="#C8C8C8"/>
<stop offset="0.0931" stop-color="#9D9D9D"/>
<stop offset="0.1419" stop-color="#777777"/>
<stop offset="0.195" stop-color="#575757"/>
<stop offset="0.2537" stop-color="#3B3B3B"/>
<stop offset="0.32" stop-color="#252525"/>
<stop offset="0.3974" stop-color="#141414"/>
<stop offset="0.4931" stop-color="#090909"/>
<stop offset="0.6274" stop-color="#020202"/>
<stop offset="1"/>
</radialGradient>
<clipPath id="clip0_29:3099">
<rect width="164.417" height="163" fill="white"/>
</clipPath>
</defs>
</svg>
