<svg width="28" height="28" viewBox="0 0 28 28" fill="none" xmlns="http://www.w3.org/2000/svg">
<path fill-rule="evenodd" clip-rule="evenodd" d="M18.0461 22.5237L6.0387 22.5687C3.85248 22.5687 2.00375 19.1487 2 15.0912C2 10.8987 3.65373 7.61747 5.76496 7.61747L10.1937 7.62498C10.7937 6.45872 11.4424 5.75747 11.8961 5.37122C12.1736 5.13122 12.5299 4.99998 12.9011 4.99998H25.636C25.831 4.99998 25.9922 5.15747 25.9997 5.35247C26.0072 5.55122 25.8535 5.71622 25.6585 5.72747C24.181 5.81372 23.0073 8.34872 22.4373 12.6875C22.3398 13.46 22.3023 14.3112 22.3173 15.365C22.3885 19.25 20.6223 21.2 19.8573 21.8562C19.3511 22.2875 18.7098 22.5237 18.0461 22.5237ZM12.9049 5.73122C12.7061 5.73122 12.5224 5.79873 12.3761 5.92623C12.0274 6.22248 11.3524 6.90498 10.7487 8.14998C10.0849 9.51873 9.57492 12.4437 9.53742 15.1025V15.11C9.53367 18.2337 8.80243 20.6787 7.64369 21.8375L18.0461 21.7962C18.5373 21.7962 19.0136 21.6237 19.3848 21.305C20.0673 20.7162 21.6535 18.9537 21.5898 15.3762C21.5748 14.2887 21.6123 13.4037 21.7173 12.5937C22.0548 10.0287 22.7298 7.07372 24.091 5.73122H12.9049ZM9.10242 11.5587C9.28992 10.3137 9.55992 9.18872 9.87491 8.35247L7.41119 8.34873C8.13868 9.03123 8.73118 10.1525 9.10242 11.5587ZM8.80618 15.095C8.80618 11.4387 7.41494 8.34873 5.76871 8.34873C4.12248 8.34873 2.73124 11.4387 2.72749 15.095C2.72749 18.9537 4.47497 21.8412 6.03496 21.8412C7.58744 21.8412 8.80618 18.8787 8.80618 15.095ZM7.23873 15.0988C7.23873 16.6888 6.73248 18.2975 5.76874 18.2975C4.805 18.2975 4.29876 16.685 4.29876 15.0988C4.29876 13.5088 4.805 11.9 5.76874 11.9C6.73248 11.9 7.23873 13.5088 7.23873 15.0988ZM6.51124 15.095C6.51124 13.4638 5.98999 12.6238 5.76874 12.6238C5.5475 12.6238 5.02625 13.4638 5.02625 15.095C5.02625 16.73 5.5475 17.57 5.76874 17.57C5.98999 17.57 6.51124 16.7263 6.51124 15.095Z" fill="white"/>
</svg>
