<svg width="28" height="28" viewBox="0 0 28 28" fill="none" xmlns="http://www.w3.org/2000/svg">
<path fill-rule="evenodd" clip-rule="evenodd" d="M22.5986 11.91L24.6491 12.1071C24.7438 12.1158 24.8319 12.1592 24.8967 12.2288C24.9614 12.2985 24.9982 12.3896 25 12.4847V15.6102C24.9982 15.7053 24.9614 15.7964 24.8967 15.866C24.832 15.9357 24.7438 15.979 24.6491 15.9878L22.5959 16.1849C22.3791 17.0559 22.0285 17.888 21.5567 18.6515L22.8591 20.2243C22.9194 20.2971 22.9504 20.3897 22.946 20.484C22.9416 20.5784 22.9022 20.6677 22.8354 20.7345L20.6307 22.9393C20.5639 23.006 20.4745 23.0455 20.3802 23.0499C20.2858 23.0542 20.1932 23.0233 20.1205 22.963L18.5467 21.6595C17.7818 22.1277 16.9507 22.4779 16.0814 22.6983L15.8841 24.7448C15.8751 24.8387 15.8314 24.9258 15.7616 24.9892C15.6918 25.0526 15.6009 25.0877 15.5066 25.0877H12.4934C12.3991 25.0877 12.3082 25.0526 12.2384 24.9892C12.1686 24.9258 12.1249 24.8386 12.1159 24.7448L11.9186 22.6983C11.0493 22.4779 10.2182 22.1277 9.45332 21.6594L7.87917 22.9629C7.80644 23.0232 7.71382 23.0542 7.61944 23.0498C7.52506 23.0454 7.43572 23.006 7.3689 22.9392L5.16413 20.7344C5.09728 20.6677 5.05772 20.5784 5.05321 20.4841C5.04869 20.3897 5.07954 20.2971 5.13971 20.2243L6.44124 18.6515C5.96881 17.888 5.61763 17.056 5.40021 16.1849L3.35115 15.988C3.25641 15.9793 3.16821 15.936 3.10343 15.8663C3.03864 15.7966 3.00182 15.7055 3 15.6104V12.4847C3.0019 12.3895 3.03881 12.2984 3.10368 12.2288C3.16855 12.1592 3.25681 12.1159 3.35158 12.1073L5.40604 11.9103C5.62628 11.0409 5.97634 10.2097 6.44441 9.44474L5.14095 7.87059C5.08065 7.79786 5.04966 7.70525 5.05405 7.61089C5.05843 7.51652 5.09787 7.42718 5.16465 7.36036L7.36975 5.1556C7.43652 5.08879 7.52581 5.0493 7.62015 5.04484C7.7145 5.04039 7.80711 5.07129 7.87988 5.13151L9.45271 6.43365C10.2161 5.9615 11.0481 5.61061 11.9191 5.39347L12.1163 3.34655C12.1252 3.25231 12.1687 3.16471 12.2384 3.1007C12.3082 3.03668 12.3992 3.0008 12.4938 3H15.5067C15.6014 3.00077 15.6924 3.03663 15.7622 3.10064C15.832 3.16466 15.8756 3.25228 15.8845 3.34655L16.0816 5.39532C16.9525 5.61205 17.7845 5.96256 18.5479 6.43436L20.1209 5.13151C20.1937 5.07123 20.2863 5.04028 20.3807 5.04471C20.4751 5.04914 20.5644 5.08863 20.6312 5.15545L22.836 7.36055C22.9028 7.42727 22.9424 7.51653 22.9469 7.61087C22.9514 7.7052 22.9205 7.79783 22.8604 7.87063L21.558 9.44479C22.0267 10.2096 22.3776 11.0406 22.5986 11.91ZM22.26 15.4557L24.2416 15.2657V12.829L22.26 12.639C22.1792 12.6316 22.1029 12.5991 22.0415 12.5461C21.9801 12.4931 21.9369 12.4223 21.9178 12.3435C21.7038 11.3745 21.3151 10.4525 20.7708 9.62264C20.7264 9.55482 20.7048 9.47456 20.7094 9.39361C20.7139 9.31267 20.7443 9.23531 20.796 9.17287L22.0548 7.65277L20.3384 5.93599L18.8184 7.1946C18.7557 7.24647 18.6779 7.27678 18.5966 7.28105C18.5153 7.28532 18.4348 7.26332 18.367 7.21831C17.5408 6.66982 16.6193 6.28099 15.6499 6.07197C15.5711 6.05459 15.4999 6.01269 15.4465 5.95229C15.393 5.89189 15.3601 5.81609 15.3524 5.73581L15.1622 3.75863H12.8385L12.6481 5.73571C12.6405 5.81621 12.6076 5.89224 12.5542 5.95294C12.5008 6.01364 12.4295 6.0559 12.3507 6.07368C11.3813 6.28245 10.4596 6.67108 9.63336 7.21945C9.56548 7.26443 9.48493 7.28638 9.40361 7.28204C9.3223 7.2777 9.24454 7.24731 9.18183 7.19536L7.66168 5.93651L5.94476 7.65267L7.20304 9.17287C7.25459 9.23541 7.28475 9.31282 7.2891 9.39375C7.29345 9.47469 7.27177 9.55488 7.22722 9.62259C6.68226 10.4524 6.2929 11.3745 6.07818 12.3438C6.05996 12.4223 6.01751 12.4931 5.95684 12.5461C5.89617 12.5992 5.82035 12.6318 5.74012 12.6393L3.75863 12.829V15.2661L5.74031 15.4558C5.82136 15.4633 5.89802 15.4961 5.95948 15.5494C6.02094 15.6028 6.0641 15.6741 6.08288 15.7533C6.29157 16.7227 6.6801 17.6443 7.22836 18.4705C7.27332 18.5384 7.29525 18.6189 7.29092 18.7002C7.28658 18.7815 7.2562 18.8593 7.20427 18.922L5.94542 20.442L7.66182 22.1584L9.18183 20.8995C9.24427 20.8478 9.32163 20.8175 9.40257 20.8129C9.48352 20.8084 9.56378 20.8299 9.6316 20.8743C10.4614 21.4188 11.3834 21.8076 12.3525 22.0218C12.4307 22.0391 12.5014 22.0807 12.5545 22.1407C12.6075 22.2007 12.6403 22.276 12.648 22.3557L12.8381 24.3291H15.1623L15.3525 22.3557C15.3602 22.276 15.3929 22.2007 15.446 22.1407C15.499 22.0807 15.5698 22.0391 15.648 22.0218C16.617 21.8076 17.5391 21.4188 18.3689 20.8743C18.4367 20.8299 18.517 20.8084 18.5979 20.8129C18.6789 20.8174 18.7563 20.8478 18.8187 20.8995L20.3388 22.1584L22.0552 20.442L20.7969 18.922C20.7451 18.8592 20.7149 18.7814 20.7108 18.7001C20.7066 18.6188 20.7287 18.5383 20.7738 18.4706C21.3228 17.6444 21.7121 16.7227 21.9216 15.7532C21.9395 15.6743 21.9818 15.603 22.0426 15.5496C22.1034 15.4962 22.1795 15.4633 22.26 15.4557ZM7.60435 14.0475C7.60435 10.5209 10.4735 7.65176 14.0001 7.65176C17.5267 7.65176 20.3958 10.5209 20.3958 14.0475C20.3958 17.5742 17.5268 20.4433 14.0001 20.4433C10.4734 20.4433 7.60435 17.5742 7.60435 14.0475ZM16.0469 13.7156H19.6271C19.5442 12.3384 18.9596 11.0392 17.984 10.0636C17.0084 9.08797 15.7093 8.50344 14.332 8.42044V12.0006C14.7614 12.071 15.1579 12.2744 15.4655 12.5821C15.7732 12.8897 15.9766 13.2862 16.0469 13.7156ZM13.2694 15.141C13.4857 15.2855 13.74 15.3627 14.0001 15.3627C14.3488 15.3622 14.683 15.2235 14.9296 14.977C15.1761 14.7305 15.3148 14.3962 15.3152 14.0475C15.3152 13.7874 15.2381 13.5331 15.0935 13.3169C14.949 13.1006 14.7436 12.932 14.5033 12.8325C14.263 12.733 13.9986 12.7069 13.7435 12.7577C13.4884 12.8084 13.254 12.9337 13.0701 13.1176C12.8862 13.3015 12.7609 13.5359 12.7102 13.791C12.6595 14.0461 12.6855 14.3105 12.7851 14.5508C12.8846 14.7911 13.0532 14.9965 13.2694 15.141ZM13.5734 12.0182V8.42646C12.214 8.5315 10.9386 9.12493 9.98266 10.0971C9.02676 11.0694 8.45499 12.3547 8.37298 13.7156H11.9532C12.0209 13.3025 12.2119 12.9194 12.5009 12.6165C12.79 12.3136 13.1638 12.1051 13.5734 12.0182ZM11.9708 14.4743H8.379C8.48282 15.8174 9.06342 17.0791 10.016 18.0316C10.9685 18.9841 12.2303 19.5647 13.5734 19.6685V16.0769C13.1799 15.9933 12.8191 15.7974 12.5346 15.513C12.2502 15.2286 12.0543 14.8677 11.9708 14.4743ZM14.332 16.0944V19.6746C15.6929 19.5926 16.9782 19.0208 17.9504 18.0649C18.9226 17.109 19.516 15.8336 19.6211 14.4743H16.0294C15.9425 14.8838 15.734 15.2576 15.4311 15.5467C15.1283 15.8357 14.7452 16.0267 14.332 16.0944Z" fill="white"/>
</svg>
